<?xml version="1.0" encoding="UTF-8" standalone="no"?>
<svg
   xmlns:svg="http://www.w3.org/2000/svg"
   xmlns:xlink="http://www.w3.org/1999/xlink"
   xmlns="http://www.w3.org/2000/svg"
   version="1.0"
   width="900"
   height="600"
   viewBox="0 0 6 4">

<clipPath id="around">
<rect id="path_around" width="6" height="4"/>
</clipPath>

<g clip-path="url(#around)">

<rect id="red_background" width="6" height="4" fill="#bf0a30"/>

<defs>
<rect id="yellow_ray" width="10" height="1" x="-2" y="2" fill="#fed700"/>
<rect id="red_gap" width="10" height="1" x="-2" y="2" fill="#bf0a30"/>
</defs>

<use xlink:href="#yellow_ray" transform="rotate(-83.07692307692307692307 3 2)"/>
<use xlink:href="#yellow_ray" transform="rotate(83.07692307692307692307 3 2)"/>
<use xlink:href="#red_gap" transform="rotate(-69.23076923076923076923 3 2)"/>
<use xlink:href="#red_gap" transform="rotate(69.23076923076923076923 3 2)"/>
<use xlink:href="#yellow_ray" transform="rotate(-55.38461538461538461538 3 2)"/>
<use xlink:href="#yellow_ray" transform="rotate(55.38461538461538461538 3 2)"/>
<use xlink:href="#red_gap" transform="rotate(-41.53846153846153846153 3 2)"/>
<use xlink:href="#red_gap" transform="rotate(41.53846153846153846153 3 2)"/>
<use xlink:href="#yellow_ray" transform="rotate(-27.69230769230769230769 3 2)"/>
<use xlink:href="#yellow_ray" transform="rotate(27.69230769230769230769 3 2)"/>
<use xlink:href="#red_gap" transform="rotate(-13.84615384615384615384 3 2)"/>
<use xlink:href="#red_gap" transform="rotate(13.84615384615384615384 3 2)"/> <comment>rotate around (180/13) degrees</comment>

<rect id="blue_half" width="6" height="2" y="2" fill="#002868"/>
</g>

<g id="star" transform="matrix(1.105573,0,0,1.105573,3,2.105573)" fill="#ce5c17">
 <g id="cone">
  <polygon id="triangle" points="0,0 0,1 0.5,1 0,0 " transform="matrix(0.951057,0.309017,-0.309017,0.951057,0,-1)" />
  <use xlink:href="#triangle" transform="scale(-1,1)" width="6" height="4" />
 </g>

 <use xlink:href="#cone" transform="matrix(0.309017,0.951057,-0.951057,0.309017,0,0)" width="6" height="4" />
 <use xlink:href="#cone" transform="matrix(0.309017,-0.951057,0.951057,0.309017,0,0)" width="6" height="4" />
 <use xlink:href="#cone" transform="matrix(-0.809017,0.587785,-0.587785,-0.809017,0,0)" width="6" height="4" />
 <use xlink:href="#cone" transform="matrix(-0.809017,-0.587785,0.587785,-0.809017,0,0)" width="6" height="4" />
</g>

</svg>