<?xml version="1.0" encoding="UTF-8" standalone="no"?>
<svg
   xmlns:dc="http://purl.org/dc/elements/1.1/"
   xmlns:cc="http://creativecommons.org/ns#"
   xmlns:rdf="http://www.w3.org/1999/02/22-rdf-syntax-ns#"
   xmlns:svg="http://www.w3.org/2000/svg"
   xmlns="http://www.w3.org/2000/svg"
   xmlns:xlink="http://www.w3.org/1999/xlink"
   xmlns:sodipodi="http://sodipodi.sourceforge.net/DTD/sodipodi-0.dtd"
   xmlns:inkscape="http://www.inkscape.org/namespaces/inkscape"
   version="1.1"
   preserveAspectRatio="xMidYMid meet"
   zoomAndPan="magnify"
   id="Flag_of_Hawaii"
   viewBox="-13.125 -7.5 26.25 15"
   width="1200"
   height="600"
   inkscape:version="0.48.2 r9819"
   sodipodi:docname="hi.svg"
   inkscape:export-filename="/Users/greg/Desktop/flags/png/hi.png"
   inkscape:export-xdpi="4.8000002"
   inkscape:export-ydpi="4.8000002">
  <metadata
     id="metadata32">
    <rdf:RDF>
      <cc:Work
         rdf:about="">
        <dc:format>image/svg+xml</dc:format>
        <dc:type
           rdf:resource="http://purl.org/dc/dcmitype/StillImage" />
        <dc:title></dc:title>
      </cc:Work>
    </rdf:RDF>
  </metadata>
  <sodipodi:namedview
     pagecolor="#ffffff"
     bordercolor="#666666"
     borderopacity="1"
     objecttolerance="10"
     gridtolerance="10"
     guidetolerance="10"
     inkscape:pageopacity="0"
     inkscape:pageshadow="2"
     inkscape:window-width="640"
     inkscape:window-height="480"
     id="namedview30"
     showgrid="false"
     inkscape:zoom="0.29333333"
     inkscape:cx="600"
     inkscape:cy="300"
     inkscape:window-x="0"
     inkscape:window-y="0"
     inkscape:window-maximized="0"
     inkscape:current-layer="Flag_of_Hawaii" />
  <defs
     id="defs3">
    <clipPath
       id="border">
      <rect
         x="-13.125"
         y="-7.5"
         width="26.25"
         height="15"
         id="rect6" />
    </clipPath>
  </defs>
  <rect
     x="-15"
     y="-7.5"
     width="30"
     height="15"
     fill="#CF142B"
     id="rect8" />
  <path
     d="M -15,-6.5625 H 15"
     stroke-width="1.875"
     stroke="white"
     id="path10" />
  <g
     id="blwh">
    <path
       d="M -15,-2.8125 H 15"
       stroke-width="1.875"
       stroke="#00247D"
       id="path13" />
    <path
       d="M -15,-0.9375 H 15"
       stroke-width="1.875"
       stroke="white"
       id="path15" />
  </g>
  <use
     transform="translate(0,5.625)"
     xlink:href="#blwh"
     id="use17" />
  <g
     transform="matrix(0.5,0,0,0.5,-8.4375,-3.75)"
     clip-path="url(#border)"
     id="g19">
    <circle
       r="16"
       fill="#00247D"
       id="circle21"
       d="M 16,0 C 16,8.836556 8.836556,16 0,16 -8.836556,16 -16,8.836556 -16,0 c 0,-8.836556 7.163444,-16 16,-16 8.836556,0 16,7.163444 16,16 z" />
    <path
       d="M -17.5,-10 L 17.5,10 M -17.5,10 L 17.5,-10"
       stroke-width="3"
       stroke="white"
       id="diags_white" />
    <path
       d="M -17.5,-10 L 17.5,10 M -17.5,10 L 17.5,-10"
       stroke-width="2"
       stroke="#CF142B"
       id="diags_red" />
    <path
       stroke="none"
       fill="white"
       d="M 0,0 l 17.5,10 h -2.25 l -17.5,-10 M 0,0 l 17.5,-10 h 2.25 l -17.5,10 M 0,0 l -17.5,10 h -2.25 l 17.5,-10 M 0,0 l -17.5,-10 h 2.25 l 17.5,10"
       id="eraser_white" />
    <comment
       id="comment26">I think the above two lines give the simplest way to make the diagonals</comment>
    <path
       d="M -17.5,0 H 17.5 M 0,-10 V 10"
       stroke-width="5"
       stroke="white"
       id="cross_white" />
    <path
       d="M -17.5,0 H 17.5 M 0,-10 V 10"
       stroke-width="3"
       stroke="#CF142B"
       id="cross_red" />
  </g>
</svg>
