<?xml version="1.0" encoding="UTF-8" standalone="no"?>
<svg
   xmlns:dc="http://purl.org/dc/elements/1.1/"
   xmlns:cc="http://creativecommons.org/ns#"
   xmlns:rdf="http://www.w3.org/1999/02/22-rdf-syntax-ns#"
   xmlns:svg="http://www.w3.org/2000/svg"
   xmlns="http://www.w3.org/2000/svg"
   xmlns:sodipodi="http://sodipodi.sourceforge.net/DTD/sodipodi-0.dtd"
   xmlns:inkscape="http://www.inkscape.org/namespaces/inkscape"
   width="128"
   height="77"
   id="svg2"
   sodipodi:version="0.32"
   inkscape:version="0.48.2 r9819"
   sodipodi:docname="or.svg"
   version="1.0">
  <metadata
     id="metadata425">
    <rdf:RDF>
      <cc:Work
         rdf:about="">
        <dc:format>image/svg+xml</dc:format>
        <dc:type
           rdf:resource="http://purl.org/dc/dcmitype/StillImage" />
        <dc:title></dc:title>
      </cc:Work>
    </rdf:RDF>
  </metadata>
  <sodipodi:namedview
     inkscape:cy="25.260861"
     inkscape:cx="64.488749"
     inkscape:zoom="2.3444518"
     inkscape:window-height="687"
     inkscape:window-width="923"
     inkscape:pageshadow="2"
     inkscape:pageopacity="0.0"
     borderopacity="1.0"
     bordercolor="#666666"
     pagecolor="#ffffff"
     id="base"
     inkscape:window-x="41"
     inkscape:window-y="66"
     inkscape:current-layer="svg2"
     showgrid="false"
     fit-margin-top="0"
     fit-margin-left="0"
     fit-margin-right="0"
     fit-margin-bottom="0"
     inkscape:window-maximized="0" />
  <defs
     id="defs4">
    <marker
       id="ArrowEnd"
       viewBox="0 0 10 10"
       refX="0"
       refY="5"
       markerUnits="strokeWidth"
       markerWidth="4"
       markerHeight="3"
       orient="auto">
      <path
         d="M 0,0 10,5 0,10 0,0 z"
         id="path7"
         inkscape:connector-curvature="0" />
    </marker>
    <marker
       id="ArrowStart"
       viewBox="0 0 10 10"
       refX="10"
       refY="5"
       markerUnits="strokeWidth"
       markerWidth="4"
       markerHeight="3"
       orient="auto">
      <path
         d="M 10,0 0,5 10,10 10,0 z"
         id="path10"
         inkscape:connector-curvature="0" />
    </marker>
  </defs>
  <path
     id="path14"
     d="m -2428.457,1943.886 0,0 0,0 z"
     style="fill:#000000;stroke:none"
     inkscape:connector-curvature="0" />
  <g
     id="g3094"
     inkscape:export-filename="/Users/greg/Desktop/flags/png/or.png"
     inkscape:export-xdpi="45"
     inkscape:export-ydpi="45"
     transform="scale(0.17066667,0.17111111)">
    <path
       style="fill:#002a86;fill-opacity:1;stroke:none"
       d="M 0,450 750,450 750,0 0,0 0,450 z"
       id="path76"
       inkscape:connector-curvature="0" />
    <path
       id="path82"
       d="m 330.9005,118.74869 c -5.72085,0.31776 -12.78514,2.75586 -17.53125,6.59375 0.576,1.392 1.62325,1.24825 2.78125,0.90625 l 0.34375,-0.4375 c 0.81,0 1.85124,-0.81325 2.78125,-1.28125 0.0593,-0.0887 0.13618,-0.18581 0.21875,-0.25 0.023,-0.017 0.0692,-0.0471 0.0937,-0.0625 0.74903,-0.44877 2.14398,-0.26578 2.8125,-0.90625 0.1523,-0.15383 0.28666,-0.35922 0.34375,-0.625 4.746,-2.904 9.35701,-2.081 15.375,-1.625 l 0,1.15625 c -4.05,-0.81 -11.4635,-1.38625 -14.9375,2.09375 3.474,3 7.89,4.60125 12.75,4.03125 l 3.46875,-1.5 c 1.734,6.816 9.14849,9.82325 14.8125,12.03125 0.696,-1.164 1.17324,-2.65625 1.28125,-4.15625 -1.386,-1.626 -3.83701,-1.646 -4.875,-3.5 1.962,0.12 4.52949,1.05225 5.6875,2.90625 0.582,1.734 -0.0245,3.472 -1.0625,4.75 0.43312,0.53438 1.29736,0.55602 1.78125,0.28125 0.0157,-0.01 0.0476,-0.0211 0.0625,-0.0312 l 8.125,-6.5 c 0.027,-0.0222 0.0653,-0.0444 0.0937,-0.0625 0.57762,-0.33596 1.41125,0.10313 1.625,0.75 l 0.25,-0.21875 c 2.658,3.36 6.94074,4.28125 9.71875,7.28125 l -0.34375,0.46875 0.0625,0.0937 c -0.57729,-0.0478 -1.357,-0.7995 -2.03125,-1.125 -2.778,-2.424 -6.12825,-3.71425 -8.90625,-6.15625 -2.43,3.012 -5.81576,4.05475 -8.59375,6.71875 -5.436,-0.24 -10.63824,-3.5945 -15.15625,-7.0625 -1.038,-1.5 -2.41299,-3.12075 -2.875,-4.96875 -1.158,-0.12 -2.21699,1.04226 -3.375,1.15625 -4.398,-0.234 -10.05725,-0.59201 -13.53125,-4.75 -3.24,0.576 -6.71776,5.32524 -9.84375,1.28125 l -0.5625,0 c -10.884,10.758 -25.82899,17.46475 -34.625,29.96875 1.854,2.544 4.64776,-0.923 6.84375,-1.625 3.012,-2.544 7.76426,-3.934 10.65625,-7.75 l 0.21875,-1.03125 c -0.005,-0.005 -0.0266,-0.0269 -0.0312,-0.0312 -0.005,-0.004 -0.0263,-0.0275 -0.0312,-0.0312 -0.0153,-0.0109 -0.0462,-0.0218 -0.0625,-0.0312 -0.0111,-0.006 -0.051,-0.0258 -0.0625,-0.0312 -0.45479,-0.20005 -1.2178,0.0277 -1.625,-0.1875 -0.0102,-0.006 -0.0215,-0.0248 -0.0312,-0.0312 -0.005,-0.003 -0.0266,-0.0277 -0.0312,-0.0312 -0.018,-0.0148 -0.0466,-0.045 -0.0625,-0.0625 -0.004,-0.005 -0.0276,-0.0265 -0.0312,-0.0312 -0.003,-0.005 -0.028,-0.0259 -0.0312,-0.0312 -0.006,-0.0111 -0.0257,-0.0506 -0.0312,-0.0625 -0.003,-0.006 0.002,-0.0249 0,-0.0312 -0.005,-0.0132 -0.0273,-0.0484 -0.0312,-0.0625 -0.005,-0.0218 0.004,-0.0698 0,-0.0937 -0.007,-0.0494 -0.0317,-0.12886 -0.0312,-0.1875 8.1e-4,-0.0301 -0.003,-0.0611 0,-0.0937 0.57637,-0.86456 1.72286,-0.64915 2.15625,-1.125 0.008,-0.009 0.0238,-0.0215 0.0312,-0.0312 0.004,-0.005 0.0278,-0.0261 0.0312,-0.0312 0.01,-0.016 0.0226,-0.0452 0.0312,-0.0625 0.005,-0.0119 0.0264,-0.05 0.0312,-0.0625 0.0115,-0.0321 0.0237,-0.0885 0.0312,-0.125 0.003,-0.015 -0.002,-0.0468 0,-0.0625 3.702,-2.202 8.222,-4.19749 11,-7.4375 l 4.96875,-4.15625 c 0.0109,0.0111 0.0508,0.0213 0.0625,0.0312 0.006,0.005 0.025,0.0268 0.0312,0.0312 0.0128,0.008 0.049,0.0236 0.0625,0.0312 0.0137,0.007 0.0483,0.0248 0.0625,0.0312 0.18059,0.0768 0.40967,0.12074 0.5625,0.1875 0.0178,0.008 0.0467,0.0214 0.0625,0.0312 0.005,0.003 0.0265,0.0276 0.0312,0.0312 0.009,0.008 0.0233,0.0227 0.0312,0.0312 0.004,0.005 0.0279,0.0265 0.0312,0.0312 0.009,0.0151 0.0252,0.0448 0.0312,0.0625 0.002,0.006 -10e-4,0.0247 0,0.0312 0.003,0.0205 10e-4,0.07 0,0.0937 -0.005,0.0497 -0.009,0.12281 -0.0312,0.1875 -5.67,4.29 -9.61376,9.36551 -16.09375,11.6875 l 0,1.375 c 1.506,0.348 2.78626,-1.23975 4.40625,-1.59375 3.126,-1.968 6.021,-4.40625 9.375,-5.90625 0.234,0.456 0.45776,0.81926 0.34375,1.28125 -1.158,0.702 -1.85299,1.26275 -3.125,1.71875 l -0.34375,0.34375 0.1875,0.21875 c -0.0531,-0.009 -0.10704,0.003 -0.15625,0 -0.0776,-0.004 -0.18062,-0.008 -0.25,0 -0.41091,0.056 -0.71149,0.28876 -1.0625,0.46875 l 0,0.375 -0.21875,-0.25 c -0.924,1.62 -2.88,2.207 -4.5,3.125 -1.158,0.348 -2.11824,1.26 -3.15625,1.5 -0.0979,-0.19575 -0.2298,-0.29741 -0.375,-0.375 -0.17071,-0.086 -0.376,-0.1508 -0.53125,-0.21875 -0.0145,-0.007 -0.0486,-0.0239 -0.0625,-0.0312 -0.0136,-0.008 -0.0496,-0.0227 -0.0625,-0.0312 -0.006,-0.005 -0.0252,-0.0265 -0.0312,-0.0312 -0.053,-0.045 -0.1233,-0.11512 -0.15625,-0.1875 -0.0101,-0.0254 -0.0239,-0.0643 -0.0312,-0.0937 -1.76332,5.74166 -8.13026,6.66784 -12.28125,10.125 -0.007,0.018 -0.0253,0.0436 -0.0312,0.0625 -0.16157,0.58864 0.29048,1.56394 1.0625,1.78125 l 1.875,0 c 4.632,-3.132 9.69574,-6.71525 14.09375,-10.53125 0.55463,-0.36337 1.50413,-0.81836 2.03125,-0.6875 0.0902,0.0271 0.18935,0.0887 0.25,0.15625 0.007,0.008 0.0251,0.0229 0.0312,0.0312 0.003,0.004 -0.003,0.0268 0,0.0312 -0.001,0.0108 0.002,0.052 0,0.0625 -0.003,0.0139 0.003,0.049 0,0.0625 -0.004,0.0133 -0.0269,0.0496 -0.0312,0.0625 -0.002,0.006 0.002,0.025 0,0.0312 -0.30645,0.72593 -1.60894,0.87976 -2.03125,1.40625 -3.936,3.936 -7.988,6.72701 -12.5,9.625 -0.006,0.0323 0.002,0.0639 0,0.0937 -0.002,0.0582 -0.0103,0.13812 0,0.1875 0.006,0.024 0.0225,0.0717 0.0312,0.0937 0.006,0.0143 0.0238,0.049 0.0312,0.0625 0.008,0.0131 0.0223,0.0501 0.0312,0.0625 0.005,0.006 0.0263,0.0254 0.0312,0.0312 0.005,0.006 0.0259,0.0257 0.0312,0.0312 0.21772,0.20985 0.59347,0.30222 0.875,0.4375 5.094,-0.69 8.23124,-5.53374 12.28125,-7.84375 3.936,-3.234 7.18224,-6.009 10.65625,-9.375 0.22199,0.21784 0.65419,0.34993 0.78125,0.5625 0.002,0.004 -0.002,0.0276 0,0.0312 0.081,0.14513 0.14627,0.2495 0.15625,0.34375 3.7e-4,0.005 -1.9e-4,0.0263 0,0.0312 10e-6,0.005 1.6e-4,0.0265 0,0.0312 -3.3e-4,0.005 4.9e-4,0.0268 0,0.0312 -6.5e-4,0.004 -0.0304,0.027 -0.0312,0.0312 -10e-4,0.004 10e-4,0.0273 0,0.0312 -0.006,0.0154 -0.0235,0.0486 -0.0312,0.0625 -0.0219,0.033 -0.0619,0.0677 -0.0937,0.0937 -0.14046,0.10477 -0.36651,0.19523 -0.5,0.3125 -0.006,0.006 -0.0256,0.0251 -0.0312,0.0312 -0.021,0.0258 -0.0492,0.062 -0.0625,0.0937 -0.002,0.004 10e-4,0.0271 0,0.0312 -0.002,0.009 -0.0294,0.0222 -0.0312,0.0312 -7.9e-4,0.005 6.4e-4,0.0265 0,0.0312 -4.7e-4,0.005 3.1e-4,0.0262 0,0.0312 -1.4e-4,0.005 -4e-5,0.026 0,0.0312 2.1e-4,0.005 -3.9e-4,0.0257 0,0.0312 0.006,0.0567 0.0362,0.14656 0.0625,0.21875 -3.348,1.854 -5.80051,5.07926 -8.8125,7.28125 -2.43,1.968 -5.53374,4.06 -7.84375,6.25 1.968,1.854 4.38251,-0.9265 6.8125,-0.8125 0.348,-1.38 2.31575,-3.25775 3.59375,-3.59375 l 0.34375,0.46875 c -0.81,1.044 -1.85549,2.08601 -2.4375,3.25 1.278,0.348 2.77276,-0.24225 3.46875,-1.40625 4.86,-3.468 5.56224,-9.83676 10.65625,-12.96875 0.924,2.202 -2.32349,2.31825 -2.4375,4.40625 -1.392,1.614 -2.42901,3.36474 -3.125,5.21875 l -0.21875,-0.25 -1.75,2.3125 c 0.696,0.81 1.5245,1.28125 2.5625,1.28125 2.55,-2.424 3.58601,-5.30475 6.25,-7.96875 0.20916,0.0841 0.36934,0.15146 0.46875,0.25 0.0124,0.013 0.0205,0.0488 0.0312,0.0625 0.003,0.005 0.028,0.0265 0.0312,0.0312 0.006,0.01 0.0258,0.0214 0.0312,0.0312 0.003,0.005 -0.002,0.0261 0,0.0312 0.004,0.0104 0.0275,0.0517 0.0312,0.0625 0.002,0.006 -0.002,0.0256 0,0.0312 10e-4,0.006 -10e-4,0.0254 0,0.0312 10e-4,0.006 0.0303,0.0252 0.0312,0.0312 0.0162,0.1238 0.004,0.285 -0.0312,0.46875 -1.044,1.044 -2.33949,2.3125 -2.6875,3.8125 3.006,1.38 3.81751,-2.89425 5.4375,-4.40625 0.93,-2.424 2.21275,-5.0785 3.71875,-6.8125 0.007,0.007 0.0237,0.0244 0.0312,0.0312 0.0478,0.0388 0.12963,0.0964 0.1875,0.125 0.12739,0.0599 0.29467,0.1137 0.40625,0.1875 0.0288,0.021 0.0701,0.0678 0.0937,0.0937 0.003,0.004 0.0282,0.0272 0.0312,0.0312 0.006,0.008 0.0261,0.0223 0.0312,0.0312 0.002,0.005 -0.002,0.0265 0,0.0312 0.004,0.01 0.0277,0.0207 0.0312,0.0312 0.011,0.027 0.0233,0.0706 0.0312,0.0937 0.005,0.0146 -0.003,0.0494 0,0.0625 0.004,0.0185 0.0293,0.0471 0.0312,0.0625 3.8e-4,0.005 -1.3e-4,0.0267 0,0.0312 -1.2e-4,0.004 3.5e-4,0.0273 0,0.0312 -7.9e-4,0.003 -0.0303,0.0281 -0.0312,0.0312 -0.001,0.003 0.002,0.0288 0,0.0312 -0.002,0.002 -0.029,-0.002 -0.0312,0 -0.007,0.005 -0.023,0.0275 -0.0312,0.0312 -0.006,0.002 -0.0249,-0.002 -0.0312,0 -0.053,0.0132 -0.13383,0.0326 -0.1875,0.0625 -0.007,0.004 -0.025,0.0264 -0.0312,0.0312 -0.003,0.003 -0.0284,0.0282 -0.0312,0.0312 -0.005,0.007 -0.0266,0.023 -0.0312,0.0312 -0.002,0.004 0.002,0.0265 0,0.0312 -0.002,0.005 0.002,0.0259 0,0.0312 -1.392,2.202 -2.67899,4.29475 -3.375,6.71875 0.005,0.002 0.0258,-0.002 0.0312,0 0.005,0.002 0.0259,-0.002 0.0312,0 0.005,0.003 0.026,0.0285 0.0312,0.0312 0.39004,0.21998 0.69904,0.93279 1.09375,1.15625 0.005,0.003 0.0259,-0.003 0.0312,0 0.005,0.002 0.0258,0.029 0.0312,0.0312 0.005,0.002 0.0257,-0.002 0.0312,0 0.006,0.002 0.0256,-0.001 0.0312,0 0.0169,0.004 0.0451,0.0294 0.0625,0.0312 0.0117,7.9e-4 0.0506,1.4e-4 0.0625,0 0.006,-3.1e-4 0.0252,5.5e-4 0.0312,0 0.0122,-0.002 0.05,-0.0286 0.0625,-0.0312 0.006,-0.002 0.0249,0.002 0.0312,0 0.0128,-0.004 0.0494,-0.0259 0.0625,-0.0312 0.007,-0.003 0.0246,0.003 0.0312,0 0.0605,-0.0318 0.15254,-0.0988 0.21875,-0.15625 0.0149,-0.0135 0.0473,-0.0477 0.0625,-0.0625 0.046,-0.0466 0.10731,-0.12759 0.15625,-0.1875 0.79897,-1.03747 1.51487,-2.38275 2.3125,-3.3125 0.0141,0.0108 0.0495,0.0202 0.0625,0.0312 0.006,0.006 0.0253,0.0256 0.0312,0.0312 0.0455,0.0456 0.0944,0.10736 0.125,0.15625 0.007,0.0123 0.0248,0.05 0.0312,0.0625 0.003,0.006 0.0284,0.0249 0.0312,0.0312 0.11663,0.28081 0.0625,0.61575 0.0625,0.9375 0,0.0161 10e-4,0.0465 0,0.0625 -0.002,0.0239 -0.0268,0.07 -0.0312,0.0937 -0.12465,0.56743 -0.82623,1.09283 -1.0625,1.59375 -0.006,0.0139 -0.0258,0.0486 -0.0312,0.0625 -0.005,0.0139 -0.0271,0.0486 -0.0312,0.0625 -0.004,0.0139 0.003,0.0486 0,0.0625 -0.006,0.0348 -0.0319,0.0901 -0.0312,0.125 8e-4,0.014 0.0293,0.0485 0.0312,0.0625 0.002,0.014 -0.004,0.0485 0,0.0625 0.004,0.014 0.0257,0.0484 0.0312,0.0625 0.006,0.0141 0.0237,0.0484 0.0312,0.0625 0.0865,0.14832 0.2352,0.31519 0.5,0.46875 1.506,-0.468 2.91301,-1.38 3.375,-3 0.14939,0.0835 0.27309,0.19422 0.34375,0.3125 0.003,0.006 0.0281,0.0252 0.0312,0.0312 0.012,0.0245 0.0219,0.0681 0.0312,0.0937 0.31667,0.94083 -1.04339,2.62051 -1.03125,3.34375 0.002,0.0337 -0.009,0.0959 0,0.125 0.003,0.008 0.0276,0.0236 0.0312,0.0312 0.004,0.007 0.0264,0.0244 0.0312,0.0312 0.003,0.003 -0.003,0.028 0,0.0312 0.006,0.006 0.0247,0.0254 0.0312,0.0312 0.003,0.003 0.0276,-0.003 0.0312,0 0.008,0.005 0.0229,0.0266 0.0312,0.0312 0.004,0.002 0.0267,-0.002 0.0312,0 0.005,0.002 0.0263,0.0294 0.0312,0.0312 0.005,0.002 0.0259,-0.002 0.0312,0 0.27065,0.0731 0.79148,0.006 1.65625,-0.28125 0.009,-0.004 0.0226,-0.0272 0.0312,-0.0312 0.0824,-0.0442 0.16603,-0.11495 0.21875,-0.1875 0.0152,-0.0224 0.049,-0.0699 0.0625,-0.0937 0.095,-0.17772 0.15469,-0.40924 0.25,-0.5625 0.004,-0.007 0.0266,-0.0248 0.0312,-0.0312 0.0584,-0.0746 0.15081,-0.1348 0.25,-0.15625 0.0778,-0.0118 0.1986,-0.0329 0.3125,0 0.14025,0.0588 0.23572,0.16268 0.3125,0.25 0.026,0.0325 0.075,0.0899 0.0937,0.125 0.0381,0.0801 0.0565,0.19339 0.0625,0.28125 0.007,0.2257 -0.0874,0.49047 -0.21875,0.6875 -0.0705,0.10088 -0.163,0.21159 -0.25,0.28125 1.278,1.614 3.353,1.16125 4.625,2.78125 0.348,-0.576 0.68324,-1.14276 1.03125,-1.71875 l 0.59375,0 c 0.001,0.004 -10e-4,0.0274 0,0.0312 0.0421,0.14382 0.006,0.36477 0.0312,0.53125 0.003,0.0135 -0.004,0.0498 0,0.0625 0.003,0.008 0.0276,0.0233 0.0312,0.0312 0.002,0.004 -0.002,0.0275 0,0.0312 0.005,0.007 0.0257,0.0244 0.0312,0.0312 0.003,0.003 0.0278,0.0282 0.0312,0.0312 0.0116,0.008 0.0486,0.0244 0.0625,0.0312 -0.0134,0.008 -0.0186,0.0537 -0.0312,0.0625 -0.0487,0.036 -0.11747,0.0844 -0.15625,0.125 -0.24896,0.27479 -0.31847,0.659 -0.53125,0.90625 -0.0386,0.0423 -0.10607,0.0908 -0.15625,0.125 -0.0223,0.0141 -0.0687,0.0502 -0.0937,0.0625 -0.009,0.004 -0.0223,-0.004 -0.0312,0 0.231,0.636 0.51588,0.89466 0.8125,0.9375 0.0837,0.009 0.19625,-0.0145 0.28125,-0.0312 0.38743,-0.0865 0.80712,-0.36467 1.125,-0.4375 0.0153,-0.003 0.0475,-0.0294 0.0625,-0.0312 0.0222,-0.002 0.0725,-0.001 0.0937,0 0.0279,0.003 0.0675,0.0222 0.0937,0.0312 0.0129,0.005 0.0501,0.0242 0.0625,0.0312 0.0486,0.0319 0.11602,0.0917 0.15625,0.15625 0.0929,0.16392 0.15366,0.43139 0.1875,0.84375 0.30319,0.29925 0.62963,0.60829 1.03125,0.75 0.20312,0.0669 0.45493,0.0999 0.71875,0.0625 0.62531,-0.53287 0.97991,-1.71141 1.8125,-1.84375 0.0145,-0.002 0.0477,0.001 0.0625,0 0.0224,-0.002 0.0706,-2e-5 0.0937,0 0.0233,5.4e-4 0.0697,-0.002 0.0937,0 0.114,1.164 -0.35225,2.54475 0.34375,3.46875 0.22781,0.0996 0.43465,0.1005 0.59375,0.0625 0.0435,-0.0119 0.11553,-0.045 0.15625,-0.0625 0.22554,-0.10319 0.43981,-0.28345 0.6875,-0.34375 0.0899,-0.0187 0.20375,-0.0188 0.3125,0 -0.0214,0.14063 -0.0406,0.27662 -0.0312,0.375 0.002,0.0159 0.0285,0.0476 0.0312,0.0625 0.003,0.0145 -0.004,0.0489 0,0.0625 0.004,0.0132 0.0262,0.0501 0.0312,0.0625 0.008,0.018 0.0216,0.046 0.0312,0.0625 0.003,0.005 0.0277,0.0261 0.0312,0.0312 0.0187,0.0251 0.0397,0.0718 0.0625,0.0937 0.005,0.004 0.0264,0.0271 0.0312,0.0312 0.14097,0.11439 0.35487,0.19437 0.59375,0.3125 l 0.0312,0.0312 1.4375,0.71875 c 0.678,-1.896 1.65874,-4.07075 1.71875,-6.21875 0.56995,-0.58964 0.88252,-1.09493 1,-1.5 0.0206,-0.0765 0.0241,-0.17901 0.0312,-0.25 0.003,-0.0352 0.0317,-0.0911 0.0312,-0.125 -0.001,-0.0336 -0.027,-0.0927 -0.0312,-0.125 -0.004,-0.024 0.005,-0.0704 0,-0.0937 -0.006,-0.0232 -0.0238,-0.0712 -0.0312,-0.0937 -0.005,-0.0149 -0.0252,-0.0479 -0.0312,-0.0625 -0.57379,-1.31132 -3.86664,-1.57138 -4.65625,-2.9375 -0.004,-0.008 -0.0272,-0.0236 -0.0312,-0.0312 -4.746,-2.544 -8.79199,-7.6435 -12.5,-11.6875 -0.0431,-0.0368 -0.0886,-0.0858 -0.125,-0.125 -0.51355,-0.58661 -0.37525,-1.43776 -0.90625,-1.96875 -2.778,4.398 -8.09099,2.90625 -12.375,2.90625 -3.708,-1.164 -8.69676,-3.8215 -9.96875,-8.6875 l 0.25,-1.5 c 0.0941,-0.007 0.17558,-0.007 0.25,0 0.036,0.005 0.0934,0.0234 0.125,0.0312 0.0229,0.006 0.0732,0.023 0.0937,0.0312 0.0397,0.0175 0.0938,0.0387 0.125,0.0625 0.005,0.004 0.0265,0.027 0.0312,0.0312 0.009,0.009 0.023,0.0217 0.0312,0.0312 0.004,0.005 0.0275,0.0262 0.0312,0.0312 0.0143,0.0208 0.0198,0.0708 0.0312,0.0937 0.003,0.006 0.0287,0.0253 0.0312,0.0312 0.002,0.006 -0.002,0.025 0,0.0313 0.13763,0.42456 -0.0563,1.12551 0.0625,1.59375 0.004,0.0138 0.0268,0.0491 0.0312,0.0625 0.005,0.0132 0.0259,0.0498 0.0312,0.0625 0.003,0.006 -0.003,0.0251 0,0.0312 0.003,0.006 0.0279,0.0254 0.0312,0.0312 0.007,0.0115 0.0233,0.0515 0.0312,0.0625 0.004,0.005 0.0269,0.026 0.0312,0.0312 0.0183,0.0204 0.0408,0.0445 0.0625,0.0625 0.77203,0.549 0.71315,1.83884 1.5,2.0625 0.0328,0.008 0.0891,0.0266 0.125,0.0312 0.696,-1.044 1.3725,-1.53375 2.0625,-2.34375 1.74,1.866 -3.46374,3.25825 -0.34375,4.65625 l 2.21875,-2.90625 0.90625,0.8125 c -0.81,0.81 -1.37076,1.86225 -1.71875,2.90625 0.696,0.456 1.48649,0.67999 2.0625,1.25 0.348,-2.082 1.62326,-3.7035 2.78125,-5.4375 1.272,1.278 -1.05324,2.79225 -1.28125,4.40625 -0.18272,0.26822 -0.55967,0.49396 -0.71875,0.78125 -0.003,0.006 -0.0284,0.0252 -0.0312,0.0312 -0.005,0.0122 0.004,0.05 0,0.0625 -0.002,0.006 -0.0294,0.0248 -0.0312,0.0312 -0.003,0.013 0.002,0.0491 0,0.0625 -0.002,0.0136 5.6e-4,0.0485 0,0.0625 3.354,0.12 7.38501,2.10075 9.125,-2.53125 0.15094,0.0774 0.27157,0.17595 0.34375,0.28125 0.0144,0.0229 0.0511,0.0697 0.0625,0.0937 0.0174,0.0406 0.0213,0.11291 0.0312,0.15625 0.0102,0.0526 0.0302,0.13149 0.0312,0.1875 -0.002,0.3015 -0.133,0.649 -0.25,1 l -1.03125,0.8125 c 3,1.266 3.59449,-2.4325 5.5625,-3.8125 0.81,0.804 0.69924,2.29975 1.28125,3.34375 5.208,5.448 9.59424,11.706 16.65625,14.25 1.038,-1.614 2.19425,-3.46951 2.65625,-5.4375 1.62,-0.924 3.02699,-0.9095 4.875,-0.6875 1.74,1.044 2.76351,2.41125 3.6875,4.03125 0.462,2.658 0.11825,5.331 -0.34375,7.875 1.62,0.81 4.17725,0.34125 6.03125,-0.46875 -0.234,-3 -2.68601,-8.0895 1.25,-9.9375 2.082,-0.576 4.17901,-0.472 6.375,-0.25 0.696,-3.246 -0.82174,-6.94074 -2.09375,-9.71875 -0.1575,-0.66609 -0.0335,-1.07661 0.21875,-1.34375 0.0745,-0.0739 0.18521,-0.16593 0.28125,-0.21875 0.74413,-0.38743 2.05251,-0.2514 2.75,-0.65625 0.0359,-0.0221 0.0926,-0.0684 0.125,-0.0937 6.6,-1.5 14.47625,-4.03775 16.90625,-11.09375 l 0.4375,0 c -0.348,7.056 -8.45326,9.46949 -13.78125,11.4375 -1.968,0.576 -4.141,0.592 -5.875,1.75 0,1.386 0.788,2.55476 1.25,3.71875 3.126,-0.12 7.08176,-2.78526 10.09375,-4.53125 0.81,0 1.6005,-0.81325 2.0625,-1.28125 3.936,-0.93 6.47524,-6 10.53125,-6 1.272,0.126 2.55651,2.201 4.0625,1.625 2.778,0.696 6.23975,-0.0245 8.09375,-2.5625 0.0329,-0.0996 0.0944,-0.18055 0.15625,-0.25 0.38817,-0.39858 1.25406,-0.3125 1.9375,-0.3125 2.43,2.202 5.32174,3.44075 8.09375,4.71875 0.46763,-0.15722 0.73866,-0.038 1.03125,-0.0937 0.0137,-0.003 0.0486,-0.0275 0.0625,-0.0312 0.014,-0.004 0.0482,0.005 0.0625,0 0.0145,-0.006 0.0477,-0.0247 0.0625,-0.0312 0.0826,-0.0393 0.18225,-0.10706 0.28125,-0.1875 -6.708,-5.316 -13.41777,-10.403 -22.09375,-10.625 -9.378,-2.322 -13.4455,11.66975 -22.9375,9.59375 -2.196,0.108 -5.77949,0.004 -6.9375,-2.3125 -2.082,2.082 -5.31149,3.80325 -8.4375,2.53125 -1.968,-1.5 -4.05225,-2.3005 -5.90625,-3.8125 -1.968,1.392 -4.03449,3.3385 -6.8125,2.3125 -7.062,-1.974 -12.27924,-9.359 -20.03125,-9.125 -0.1357,0.005 -0.26895,-0.008 -0.40625,0 z m 14.9375,9.59375 c 0.003,-0.002 0.0279,0.002 0.0312,0 1.272,0.456 2.88175,1.37825 3.34375,2.65625 -0.13912,0.0643 -0.27715,0.078 -0.40625,0.0937 -0.055,0.005 -0.13403,0.0335 -0.1875,0.0312 -0.0444,-0.003 -0.1129,-0.0235 -0.15625,-0.0312 -0.0432,-0.009 -0.11399,-0.0182 -0.15625,-0.0312 -0.79135,-0.26142 -1.45647,-1.26009 -2.21875,-1.6875 -0.16819,-0.24581 -0.3176,-0.6146 -0.3125,-0.84375 2.7e-4,-0.005 -4.4e-4,-0.0265 0,-0.0312 6.1e-4,-0.005 -7.8e-4,-0.0268 0,-0.0312 9.6e-4,-0.004 -10e-4,-0.0271 0,-0.0312 0.002,-0.004 0.0295,-0.0277 0.0312,-0.0312 0.002,-0.003 -0.002,-0.0282 0,-0.0312 0.002,-0.003 0.0285,0.003 0.0312,0 0.003,-0.002 -0.003,-0.029 0,-0.0312 z"
       style="fill:#ffea0f;fill-opacity:1;stroke:none"
       inkscape:connector-curvature="0" />
    <path
       id="path84"
       d="m 403.088,155.77994 c -0.19156,0.0418 -0.37555,0.1407 -0.5,0.21875 -4.50601,4.17 -10.417,7.167 -15.625,9.375 -4.278,1.392 -8.9255,2.29725 -13.4375,2.53125 -0.003,0.005 -0.0285,0.0259 -0.0312,0.0312 -0.0102,0.0221 -0.0217,0.0741 -0.0312,0.0937 -0.0233,0.0438 -0.0495,0.11347 -0.0625,0.15625 -0.008,0.0298 -0.0249,0.0911 -0.0312,0.125 -0.0186,0.19245 0.0154,0.40523 0,0.59375 -0.008,0.0693 -0.0311,0.17643 -0.0625,0.25 -0.0614,0.11792 -0.16656,0.249 -0.34375,0.375 l 0.21875,0.21875 c -1.39201,1.968 -4.05225,1.1765 -5.90625,1.0625 -2.01747,-0.90943 -6.05177,0.80755 -7.59375,-1.03125 -0.21805,-0.26848 -0.39875,-0.6275 -0.5,-1.0625 l -0.8125,-1.03125 c -2.97001,-0.762 -6.2375,-1.01925 -8.9375,-2.53125 l -2.53125,-0.75 c -1.584,-0.59401 -3.71575,-1.1275 -3.34375,-3.4375 -0.0113,-8.8e-4 -0.0499,-8.2e-4 -0.0625,0 -0.004,1.4e-4 -0.0276,8e-5 -0.0312,0 -0.0345,-0.002 -0.097,-2.2e-4 -0.125,0 -0.0118,4.2e-4 -0.0448,4.4e-4 -0.0625,0 -0.004,3e-5 -0.0278,-1.6e-4 -0.0312,0 -0.0109,-2.5e-4 -0.0518,7e-5 -0.0625,0 -0.0109,0.006 -0.0517,0.0255 -0.0625,0.0312 -0.0109,-3.7e-4 -0.0517,2.1e-4 -0.0625,0 -0.43359,0.17788 -0.68194,0.71053 -1.03125,0.875 -0.006,0.006 -0.0257,0.0255 -0.0312,0.0312 -0.003,-2.3e-4 -0.0285,7e-5 -0.0312,0 -0.003,-1.9e-4 -0.0285,6e-5 -0.0312,0 -0.005,0.003 -0.0256,0.0277 -0.0312,0.0312 -0.003,0.002 -0.0286,-10e-4 -0.0312,0 -0.0164,1.2e-4 -0.0533,0 -0.0625,0 -0.006,8e-5 -0.0281,2.3e-4 -0.0312,0 -0.0109,-0.006 -0.0515,-0.0254 -0.0625,-0.0312 -0.0108,3.3e-4 -0.0516,-8e-5 -0.0625,0 -0.0108,-0.005 -0.0516,-0.0256 -0.0625,-0.0312 -0.0161,-0.008 -0.0512,-0.026 -0.0625,-0.0312 -0.0153,-0.008 -0.0445,-0.022 -0.0625,-0.0312 -0.047,-0.0249 -0.11309,-0.0624 -0.15625,-0.0937 -0.0105,-0.0107 -0.0518,-0.0515 -0.0625,-0.0625 -0.73406,-0.83737 -0.72951,-2.23505 -1.75,-2.84375 -0.0985,-0.0564 -0.22464,-0.11552 -0.34375,-0.15625 -0.23399,0.708 -0.2305,1.51775 -0.8125,2.09375 -1.73401,-0.924 -3.69675,-1.85475 -4.96875,-3.46875 -0.189,0.26578 -0.28238,0.48563 -0.3125,0.6875 -0.0517,0.40146 0.0761,0.78806 -0.15625,1.40625 -2.08201,-0.70799 -1.944,-3.27025 -4.5,-3.15625 -0.336,0.576 -0.25,1.62575 -0.25,2.09375 -0.008,0.007 -0.0235,0.0245 -0.0312,0.0312 -0.0544,0.045 -0.13293,0.0933 -0.1875,0.125 -0.0546,0.0299 -0.13277,0.0759 -0.1875,0.0937 -0.0548,0.0163 -0.13265,0.0257 -0.1875,0.0312 -0.0235,0.002 -0.0702,2e-5 -0.0937,0 -0.0157,-3.9e-4 -0.0468,0.001 -0.0625,0 -0.016,-0.002 -0.0465,0.002 -0.0625,0 -0.90767,-0.15677 -1.88979,-1.49784 -3,-1.75 -0.10834,-0.0227 -0.2324,-0.0312 -0.34375,-0.0312 l -0.21875,-0.21875 c -0.81001,0.91201 0.1115,1.72125 -0.8125,2.53125 -1.50601,-0.708 -3.13,-2.19525 -4.75,-1.03125 0.11399,1.73401 0.47375,2.995 -0.90625,4.375 0.21656,0.19969 0.41186,0.33024 0.59375,0.375 0.004,5.4e-4 0.0275,-3.9e-4 0.0312,0 0.0322,0.001 0.0935,0.002 0.125,0 0.007,-2.8e-4 0.0248,-2e-5 0.0312,0 0.0196,2.7e-4 0.0713,-4e-4 0.0937,0 0.005,-9e-5 0.0264,3.6e-4 0.0312,0 0.0255,-0.007 0.0726,-0.0248 0.0937,-0.0312 0.72836,-0.24636 1.25778,-1.51956 2,-1.84375 0.98963,-0.0811 1.8003,-1.22224 2.71875,-1.5 0.36443,-0.10229 0.76394,-0.0749 1.1875,0.21875 0.15914,0.44625 0.15346,0.83495 0.0312,1.15625 -0.29944,0.74672 -1.1413,1.27604 -1.4375,1.96875 -0.0129,0.0319 -0.0472,0.0848 -0.0625,0.125 -0.002,0.006 0.002,0.0257 0,0.0312 -0.007,0.0222 -0.025,0.0712 -0.0312,0.0937 0.8685,0.477 1.49658,0.54235 1.9375,0.375 0.0226,-0.009 0.0656,-0.0209 0.0937,-0.0312 0.0207,-0.008 0.0468,-0.0224 0.0625,-0.0312 0.0247,-0.0147 0.0702,-0.0461 0.0937,-0.0625 0.007,-0.005 0.024,-0.0257 0.0312,-0.0312 0.90282,-0.72203 0.99034,-2.74989 1.78125,-3.625 0.0134,-0.0143 0.0487,-0.0489 0.0625,-0.0625 0.0421,-0.0399 0.11004,-0.0915 0.15625,-0.125 0.0235,-0.0162 0.0691,-0.048 0.0937,-0.0625 0.0156,-0.009 0.0464,-0.0233 0.0625,-0.0312 0.0327,-0.0153 0.0903,-0.0502 0.125,-0.0625 0.49251,-0.16163 1.19869,-0.0161 2.21875,0.625 0.01,0.017 0.0224,0.0455 0.0312,0.0625 0.0169,0.0339 0.0489,0.0913 0.0625,0.125 0.0288,0.0756 0.0489,0.17556 0.0625,0.25 0.14711,0.9081 -0.73756,1.73854 -0.8125,2.34375 -0.003,0.0324 -0.002,0.0938 0,0.125 -3.5e-4,0.0108 -2e-5,0.0518 0,0.0625 0.006,0.0224 0.0214,0.072 0.0312,0.0937 0.003,0.005 0.0276,0.0259 0.0312,0.0312 0.0205,0.028 0.044,0.0727 0.0625,0.0937 0.005,0.005 0.0261,0.0265 0.0312,0.0312 0.0374,0.0332 0.10582,0.0929 0.15625,0.125 0.15719,0.0956 0.38752,0.18208 0.6875,0.25 0.92399,-1.044 1.52525,-2.42725 3.03125,-2.78125 0.46199,0.588 0.81175,1.50575 0.34375,2.09375 -0.12112,0.1785 -0.29139,0.29636 -0.375,0.4375 -0.007,0.0127 -0.0236,0.0464 -0.0312,0.0625 1.7e-4,0.003 -5e-5,0.0285 0,0.0312 -0.006,0.006 -0.0255,0.0257 -0.0312,0.0312 1.7e-4,0.007 2.9e-4,0.0288 0,0.0312 8e-5,0.007 1.1e-4,0.0287 0,0.0312 0,0.005 -2e-4,0.0259 0,0.0312 -1.3e-4,0.006 -3.1e-4,0.0285 0,0.0312 9.1e-4,0.003 -10e-4,0.0273 0,0.0312 0.006,0.0175 0.0277,0.05 0.0312,0.0625 -2.7e-4,0.003 5e-5,0.0285 0,0.0312 0.005,0.0108 0.0256,0.0516 0.0312,0.0625 0.003,0.003 0.0284,0.0285 0.0312,0.0312 2.19599,1.37999 3.222,-3.24925 6,-1.28125 0.11399,1.27799 -0.35225,2.09625 0.34375,2.90625 1.49999,-0.354 2.891,-1.96125 4.625,-1.03125 0.0428,0.0239 0.10967,0.0586 0.15625,0.0937 0.004,0.003 0.0278,0.028 0.0312,0.0312 0.58908,0.64709 0.87838,2.6004 1.65625,3.09375 0.019,0.0114 0.0429,0.0216 0.0625,0.0312 0.35478,0.15456 0.83711,0.0412 1.46875,-0.59375 2.20201,0 4.048,2.0855 6.25,0.6875 1.506,-0.57 2.80975,-0.1505 4.84375,3.4375 l 31.1875,0.9375 c 4.92,-4.398 11.069,-5.65625 16.625,-5.65625 0.007,-0.007 0.0242,-0.0245 0.0312,-0.0312 0.10053,-0.092 0.22514,-0.17962 0.3125,-0.25 0.0277,-0.0234 0.0715,-0.0675 0.0937,-0.0937 0.006,-0.006 0.0257,-0.0257 0.0312,-0.0312 -2.6e-4,-0.003 1.1e-4,-0.0285 0,-0.0312 -1.1e-4,-0.007 -1.8e-4,-0.0298 0,-0.0312 0,-0.003 1.9e-4,-0.0282 0,-0.0312 1.1e-4,-0.004 -1e-5,-0.0284 0,-0.0312 1.9e-4,-0.003 -3e-5,-0.0284 0,-0.0312 -6.01801,-1.968 -9.721,1.72975 -15.625,1.84375 -0.14915,-0.38297 -0.53259,-0.74246 -0.6875,-1.0625 -0.006,-0.0108 -0.0259,-0.0517 -0.0312,-0.0625 -0.002,-0.006 0.002,-0.0251 0,-0.0312 -0.01,-0.0399 -0.0276,-0.092 -0.0312,-0.125 -2.4e-4,-0.0162 -3.4e-4,-0.0515 0,-0.0625 0.002,-0.0219 -0.005,-0.0657 0,-0.0937 0.002,-0.007 0.0295,-0.0246 0.0312,-0.0312 0.002,-0.006 -0.002,-0.0258 0,-0.0312 4.398,-1.5 7.76075,-5.33275 12.96875,-5.21875 2.31599,-0.46801 4.652,-1.375 6.5,-2.875 -1.15799,-0.46799 -2.32175,-0.604 -3.59375,-0.25 -1.84801,1.158 -4.288,3.71375 -6.25,2.09375 0.57002,-1.848 3.11225,-2.21875 4.15625,-3.71875 -0.009,-0.0283 -0.0209,-0.068 -0.0312,-0.0937 -0.01,-0.0186 -0.0192,-0.0443 -0.0312,-0.0625 -0.004,-0.006 -0.0268,-0.0254 -0.0312,-0.0312 -0.023,-0.0288 -0.0686,-0.0698 -0.0937,-0.0937 -0.005,-0.005 -0.0263,-0.027 -0.0312,-0.0312 -0.005,-0.004 -0.0264,-0.0276 -0.0312,-0.0312 -0.0161,-0.008 -0.0514,-0.0255 -0.0625,-0.0312 -0.0246,-0.01 -0.073,-0.0245 -0.0937,-0.0312 -0.028,-0.008 -0.0908,-0.0246 -0.125,-0.0312 -0.0339,-0.002 -0.0949,0 -0.125,0 -0.005,1.4e-4 -0.0251,8e-5 -0.0312,0 -0.0266,-8.4e-4 -0.0671,-3.9e-4 -0.0937,0 -0.006,3.8e-4 -0.0259,-7.5e-4 -0.0312,0 -0.003,-6e-5 -0.0284,1.8e-4 -0.0312,0 -0.0129,0.002 -0.0185,-0.003 -0.0312,0 z m -19.96875,13.6875 c 0.29304,-0.0228 0.57031,-0.007 0.8125,0.0625 0.024,0.007 0.0706,0.0224 0.0937,0.0312 0.0685,0.0281 0.15876,0.0818 0.21875,0.125 0.0524,0.04 0.11183,0.10219 0.15625,0.15625 0.0975,0.12587 0.20191,0.28738 0.25,0.5 -0.76228,0.24675 -2.05597,0.31147 -2.71875,-0.125 -0.007,-0.005 -0.0245,-0.0264 -0.0312,-0.0312 -0.0464,-0.0349 -0.11735,-0.0843 -0.15625,-0.125 -0.005,-0.006 -0.026,-0.0252 -0.0312,-0.0312 -0.0101,-0.0124 -0.0218,-0.0496 -0.0312,-0.0625 -0.0771,-0.11152 -0.13728,-0.25642 -0.15625,-0.40625 0.45067,0.0928 1.05651,-0.052 1.59375,-0.0937 z m -6,0.0312 c 0.0108,-1e-5 0.0517,-1.8e-4 0.0625,0 0.0147,-5.6e-4 0.048,-2.8e-4 0.0625,0 0.0109,-1.9e-4 0.0517,-4e-5 0.0625,0 0.0209,0.006 0.0731,0.0244 0.0937,0.0312 0.024,0.007 0.068,0.0208 0.0937,0.0312 0.01,0.005 0.0462,0.0229 0.0625,0.0312 0.005,0.006 0.0258,0.0256 0.0312,0.0312 0.005,0.004 0.0259,0.0263 0.0312,0.0312 0.0277,0.027 0.0721,0.0688 0.0937,0.0937 0.0111,0.0106 0.0515,0.0515 0.0625,0.0625 0.0546,0.0801 0.11078,0.19531 0.15625,0.3125 -0.008,0.0188 -0.0212,0.0448 -0.0312,0.0625 -0.004,0.006 -0.0275,0.0256 -0.0312,0.0312 -0.0385,0.0551 -0.0815,0.11599 -0.125,0.15625 -0.49884,0.41531 -1.55391,0.10531 -2.25,0.21875 l -0.21875,-0.25 c 0.006,8e-5 0.0284,2e-4 0.0312,0 0.003,9e-5 0.0285,-1e-5 0.0312,0 0.007,-0.001 0.024,0.001 0.0312,0 0.0221,-0.005 0.0707,-0.0238 0.0937,-0.0312 0.41373,-0.14337 1.00041,-0.60503 1.5,-0.75 0.0375,-0.01 0.0883,-0.0252 0.125,-0.0312 0.003,-0.003 0.0283,-0.0275 0.0312,-0.0312 z"
       style="fill:#ffea0f;fill-opacity:1;stroke:none"
       inkscape:connector-curvature="0" />
    <path
       id="path86"
       d="m 367.213,112.21744 c -1.185,0.056 -2.40269,0.266 -3.0625,0.59375 -3.474,1.044 -3.80826,5.20251 -4.15625,8.5625 -0.23034,1.36434 -1.2346,2.63766 -1.375,3.78125 l 0.21875,-0.1875 c 0.007,-0.002 0.024,0.002 0.0312,0 0.0146,-0.003 0.0477,0.002 0.0625,0 0.25305,-0.0321 0.5432,0.0164 0.75,0.15625 0.0656,0.0467 0.13908,0.12552 0.1875,0.1875 0.004,0.006 0.0272,0.0254 0.0312,0.0312 0.008,0.012 0.0242,0.05 0.0312,0.0625 0.003,0.006 0.0281,0.0248 0.0312,0.0312 0.0147,0.0329 0.0219,0.0894 0.0312,0.125 0.75169,0.41681 1.64123,0.94515 2.375,0.875 0.0864,-0.0102 0.19935,-0.0339 0.28125,-0.0625 0.0542,-0.0205 0.13567,-0.0641 0.1875,-0.0937 0.0343,-0.0209 0.0919,-0.0685 0.125,-0.0937 0.23768,-0.19126 0.46731,-0.49841 0.625,-0.96875 0.3465,-0.0855 0.62803,-0.046 0.84375,0.125 0.0613,0.053 0.13762,0.14394 0.1875,0.21875 -0.21019,0.64716 -0.0465,1.48485 -0.46875,1.96875 -0.0225,0.024 -0.0679,0.0717 -0.0937,0.0937 0.0209,0.0584 0.034,0.14303 0.0625,0.1875 0.0108,0.0153 0.0508,0.0487 0.0625,0.0625 0.0242,0.026 0.0666,0.0731 0.0937,0.0937 0.0139,0.01 0.048,0.0227 0.0625,0.0312 0.0222,0.0121 0.0704,0.0525 0.0937,0.0625 0.0236,0.009 0.0692,0.0235 0.0937,0.0312 0.16494,0.0486 0.36771,0.0774 0.53125,0.125 0.0243,0.008 0.0704,0.0221 0.0937,0.0312 0.023,0.01 0.0719,0.0195 0.0937,0.0312 0.0356,0.0209 0.0937,0.0654 0.125,0.0937 0.0182,0.0181 0.0462,0.0411 0.0625,0.0625 2.898,0.93 4.38076,-1.26425 6.46875,-2.65625 0.462,-2.436 -2.66726,-5.20775 -1.28125,-8.09375 1.278,-1.734 2.907,-0.70525 4.875,-1.28125 0.10331,0.261 0.29429,0.60851 0.53125,0.875 0.0416,0.0451 0.11113,0.11624 0.15625,0.15625 0.25654,0.21739 0.58313,0.35238 0.9375,0.25 0.462,-1.512 0.11074,-3.2635 -1.28125,-4.1875 -1.272,-0.456 -2.87749,-0.21625 -3.6875,0.59375 -0.30319,0.32813 -0.57142,0.48631 -0.78125,0.5 -0.0222,5.1e-4 -0.0724,0.002 -0.0937,0 -0.014,-0.002 -0.0488,-0.028 -0.0625,-0.0312 -0.0271,-0.008 -0.068,-0.0194 -0.0937,-0.0312 -0.0127,-0.006 -0.0501,-0.0238 -0.0625,-0.0312 -0.006,-0.004 -0.0252,-0.0271 -0.0312,-0.0312 -0.024,-0.0176 -0.0709,-0.0415 -0.0937,-0.0625 -0.006,-0.005 -0.0257,-0.0256 -0.0312,-0.0312 -0.41527,-0.43615 -0.68594,-1.38203 -1.09375,-1.65625 -0.08,0.0309 -0.17745,0.0486 -0.25,0.0625 -0.41573,0.0707 -0.7556,-0.12224 -1.21875,-0.3125 l 0.21875,-0.21875 c -0.42356,-0.0287 -0.88005,-0.0532 -1.34375,-0.0312 z m 0.1875,2.1875 c 0.53931,-0.13657 1.184,0.52775 1.625,0.96875 0.23399,0.804 -0.7145,1.146 -1.0625,1.5 -0.80999,-0.354 -1.25925,-1.16975 -1.03125,-2.09375 0.05,-0.0794 0.10162,-0.134 0.15625,-0.1875 0.005,-0.005 0.0262,-0.0268 0.0312,-0.0312 0.005,-0.004 0.0261,-0.0272 0.0312,-0.0312 0.0154,-0.0116 0.0468,-0.0213 0.0625,-0.0312 0.005,-0.003 0.026,-0.0283 0.0312,-0.0312 0.005,-0.003 0.0259,0.003 0.0312,0 0.005,-0.002 0.0259,-0.029 0.0312,-0.0312 0.0216,-0.008 0.0717,-0.0257 0.0937,-0.0312 z"
       style="fill:#ffea0f;fill-opacity:1;stroke:none"
       inkscape:connector-curvature="0" />
    <path
       style="fill:#ffea0f;fill-opacity:1;stroke:none"
       d="m 416.466,128.67572 c 3.012,1.278 5.79,3.942 9.378,3.132 5.67,3.582 11.802,8.568 17.706,11.448 2.778,3.246 7.176,4.524 9.378,8.112 -6.714,-4.866 -13.89,-6.954 -20.604,-12.036 -2.664,-0.93 -5.442,0.114 -7.752,-1.632 -3.708,-1.5 -6.6,-5.202 -10.188,-7.17 -0.576,-1.032 -1.506,-2.076 -1.044,-3.234 1.626,-0.924 1.74,1.266 3.126,1.392"
       id="path90"
       inkscape:connector-curvature="0" />
    <path
       style="fill:#ffea0f;fill-opacity:1;stroke:none"
       d="m 401.886,129.37172 c -0.582,8.796 -10.764,14.352 -16.668,19.788 -1.392,0.234 -2.43,1.62 -4.164,1.398 -1.392,-3.132 -2.316,-6.834 -2.424,-10.182 6.474,-1.74 12.03,-6.258 17.814,-9.39 0.81,-1.146 1.968,-2.076 3.126,-2.646 0.924,-0.132 1.854,0.336 2.316,1.032"
       id="path94"
       inkscape:connector-curvature="0" />
    <path
       style="fill:#ffea0f;fill-opacity:1;stroke:none"
       d="m 418.32,135.38972 c -1.392,1.632 -3.012,1.278 -4.98,1.044 0.234,-0.702 -0.576,-0.702 -0.576,-1.278 -1.272,0.354 -2.43,2.898 -3.936,1.044 -2.424,-0.81 -2.772,2.436 -5.088,0.81 l -2.43,0.234 c -0.81,2.886 2.778,0.342 3.708,1.5 1.734,1.62 2.778,-3.468 4.626,-0.456 1.392,0.456 2.202,-0.81 3.126,-1.044 0.696,1.5 2.082,0.576 3.474,0.81 0.576,-0.12 1.032,-0.576 1.728,-0.354 1.158,3.012 3.702,5.448 6.48,7.302 0.81,-1.854 -1.968,-3.012 -3.006,-4.17 -1.158,-1.386 -2.778,-3.354 -2.43,-4.632 l -0.456,-0.468 c 0.336,0.12 0.69,-0.456 1.032,0.234 l 0.234,-0.234 -0.234,0.234 c 3.24,1.512 7.524,5.79 10.65,3.936 0,0.228 -0.114,0.354 -0.234,0.462 3.822,-0.462 6.366,3.702 9.84,4.746 2.664,1.848 5.442,3.126 8.334,5.094 2.778,1.266 4.626,2.19 6.018,5.202 0,0.81 0,1.974 -0.81,2.208 l -0.804,-0.12 c -5.208,-3.936 -10.302,-7.872 -15.624,-11.106 -0.93,0.456 0.114,1.26 0.348,1.734 4.626,3.348 9.954,6.48 14.004,10.182 -0.468,0.81 -1.044,2.424 -2.316,1.38 -3.822,-0.69 -7.41,-3.804 -10.65,-6.246 -3.24,-4.158 -8.1,-6.126 -10.416,-10.758 -0.348,0.222 -0.81,0.222 -1.044,0.576 l 0,0.69 c 6.024,5.448 11.46,12.858 18.756,16.206 0,0.474 0.114,1.044 -0.348,1.278 -1.614,-1.044 -3.354,-2.316 -5.214,-2.082 -1.146,1.614 -3.234,0.468 -4.626,0.234 -2.772,-3.132 -6.942,-6.378 -9.138,-10.08 -0.348,-0.108 -0.582,0.234 -0.81,0.468 0.81,2.898 4.746,5.91 6.828,8.568 -0.576,0.456 -0.924,1.614 -1.62,1.146 l -3.822,-3.702 c -0.114,0.354 -0.69,0.354 -0.81,0 -3.354,-3.114 -6.018,-5.892 -7.752,-9.948 -0.348,-0.12 -0.696,0 -1.044,0.354 1.506,4.734 5.094,7.518 8.334,11.214 -0.348,0.234 -0.114,0.582 -0.114,0.936 -3.006,-1.158 -4.968,-4.404 -7.98,-5.214 -0.582,-3.12 -2.892,-5.088 -3.474,-7.992 -0.462,-0.108 -0.576,0.234 -0.924,0.468 0.348,2.892 2.892,5.214 3.012,7.86 0.114,0 0.228,0.132 0.342,0.234 -2.196,0 -3.354,-2.424 -5.436,-3.582 0,-1.854 -0.582,-4.164 -1.392,-6.012 l -0.696,0 c -0.114,1.848 1.278,4.392 0.468,6.012 -1.044,-0.69 -1.62,-3.012 -3.36,-2.664 -1.386,2.544 -5.556,0.93 -6.48,3.708 l 0.234,0.234 -0.348,0 c 0,-0.702 0,-1.278 -0.696,-1.62 -1.038,0.81 -0.462,2.544 -1.614,3.468 -0.81,-0.69 -2.202,-0.114 -2.082,-1.614 -1.854,0.102 -0.348,2.424 -1.74,3.126 -0.924,-0.234 -0.576,-2.556 -2.082,-1.626 l -0.114,2.892 c -0.81,-0.234 -2.082,-0.456 -2.778,0.222 -0.582,0.468 -0.582,1.164 -0.804,1.866 -0.696,-0.12 -1.272,-1.164 -2.082,-0.468 -0.816,0.468 -0.582,2.316 -1.854,1.734 0.228,-1.032 -1.158,-1.266 -1.044,-2.088 -0.228,-1.956 -1.386,-4.044 -0.69,-5.658 6.132,-1.044 9.954,-6.6 14.466,-10.422 4.398,-3.012 5.67,-7.062 7.062,-11.46 2.892,0.93 6.018,0.222 8.556,-1.044 0.576,3.132 4.284,4.056 6.366,6.486"
       id="path96"
       inkscape:connector-curvature="0" />
    <path
       style="fill:#ffea0f;fill-opacity:1;stroke:none"
       d="m 363.804,148.92572 c -0.114,5.91 -1.386,11.46 -2.082,16.914 l -1.272,0 c 0.228,-1.044 0.462,-2.556 -0.234,-3.366 -1.968,0.354 0.582,5.67 -3.354,3.702 -1.044,-0.69 0.462,-1.968 -1.158,-2.082 -0.228,0.468 -0.696,1.038 -0.228,1.512 -0.81,0.102 -1.734,-0.234 -2.544,-0.474 0.234,-1.848 3.012,-3.582 1.734,-5.436 -1.272,1.398 -2.778,3.246 -2.778,5.1 l -1.038,0 c 2.082,-4.278 1.038,-9.024 3.354,-13.194 l -0.228,-0.234 0.69,-0.342 c -0.114,-0.936 0.582,-2.088 1.044,-3.132 0.234,-0.924 1.158,-1.848 2.082,-2.082 0.462,0.468 1.392,0 1.152,-0.69 2.316,0.114 3.822,1.968 4.86,3.816"
       id="path98"
       inkscape:connector-curvature="0" />
    <path
       id="path100"
       d="m 373.93175,146.59244 c -0.6262,0.006 -1.34625,0.0312 -2.25,0.0312 -1.158,0.456 -1.29225,1.73224 -1.40625,2.65625 1.386,5.67 0.48474,11.47025 2.21875,16.90625 0.0696,0.1088 0.14429,0.20444 0.21875,0.28125 0.0544,0.0539 0.13078,0.11712 0.1875,0.15625 0.0143,0.009 0.0481,0.0228 0.0625,0.0312 0.0144,0.008 0.0479,0.024 0.0625,0.0312 0.0439,0.0207 0.11131,0.0485 0.15625,0.0625 0.70667,0.20229 1.54581,-0.34375 2.3125,-0.34375 l -0.21875,-0.8125 c 0.0882,-1.07198 -0.99814,-2.6441 -0.53125,-3.5625 0.0504,-0.0915 0.13334,-0.2043 0.21875,-0.28125 0.15167,-0.12814 0.37974,-0.236 0.65625,-0.3125 0.924,1.62 0.79726,3.4655 1.03125,5.1875 l 6.5,-1.71875 c -0.696,-1.158 -0.3665,-2.89025 -1.0625,-4.15625 -0.087,-0.117 -0.14766,-0.24044 -0.1875,-0.34375 -0.005,-0.0128 -0.0275,-0.0499 -0.0312,-0.0625 -0.002,-0.006 10e-4,-0.025 0,-0.0312 -0.003,-0.0124 0.002,-0.0503 0,-0.0625 -6.3e-4,-0.006 4.2e-4,-0.0252 0,-0.0312 -4e-4,-0.012 -4.8e-4,-0.0506 0,-0.0625 4.6e-4,-0.006 -6.9e-4,-0.0254 0,-0.0312 9.1e-4,-0.006 -0.001,-0.0254 0,-0.0312 10e-4,-0.006 -0.002,-0.0255 0,-0.0312 0.004,-0.0115 0.0266,-0.0511 0.0312,-0.0625 0.003,-0.006 -0.003,-0.0256 0,-0.0312 0.003,-0.006 0.028,-0.0256 0.0312,-0.0312 0.0176,-0.028 0.0386,-0.0662 0.0625,-0.0937 0.0101,-0.011 0.0514,-0.0515 0.0625,-0.0625 0.006,-0.005 0.0252,-0.0258 0.0312,-0.0312 0.006,-0.005 0.0246,-0.0258 0.0312,-0.0312 0.055,-0.0436 0.146,-0.0815 0.21875,-0.125 -2.898,-3.942 -1.05225,-9.048 -4.40625,-12.75 -1.67062,-0.23513 -2.62236,-0.26249 -4,-0.25 z m 5.5,15.875 c 0.93,0.46799 0.79725,1.73225 1.03125,2.65625 -0.004,0.006 0.004,0.0259 0,0.0312 -0.004,0.005 -0.0274,0.0264 -0.0312,0.0312 -0.004,0.005 -0.0274,0.0268 -0.0312,0.0312 -0.004,0.004 -0.0272,0.0274 -0.0312,0.0312 -0.0447,0.0402 -0.10805,0.0734 -0.15625,0.0937 -0.053,0.0189 -0.13354,0.0273 -0.1875,0.0312 -0.12563,0.005 -0.27263,0 -0.375,0 -0.1755,-0.6975 -0.79125,-1.539 -0.65625,-2.25 0.008,-0.0369 0.019,-0.0888 0.0312,-0.125 0.008,-0.0217 0.0216,-0.0724 0.0312,-0.0937 0.0272,-0.0568 0.0846,-0.13283 0.125,-0.1875 0.0632,-0.0816 0.15269,-0.17406 0.25,-0.25 z"
       style="fill:#ffea0f;fill-opacity:1;stroke:none"
       inkscape:connector-curvature="0" />
    <path
       style="fill:#ffea0f;fill-opacity:1;stroke:none"
       d="m 369.822,157.61372 c 0.12,3.582 0.234,7.638 2.316,10.65 0.348,0.81 -0.576,1.266 -0.81,1.734 -1.506,0.69 -2.658,-1.734 -4.164,-0.924 0.114,-0.69 0.576,-1.854 0,-2.43 -0.582,0.228 -1.278,0.81 -1.278,1.386 l 0,1.278 -1.728,0 c -0.576,-1.044 0.582,-2.898 -1.038,-3.702 0.348,-2.322 0.348,-5.442 0.924,-8.334 1.728,1.044 4.398,-0.354 5.778,0.342"
       id="path102"
       inkscape:connector-curvature="0" />
    <path
       style="fill:#ffea0f;fill-opacity:1;stroke:none"
       d="m 360.912,169.54172 0,-2.088 c 0.696,0.222 1.044,-0.456 1.62,-0.582 l 0.228,2.67 -1.848,0"
       id="path106"
       inkscape:connector-curvature="0" />
    <path
       style="fill:none;stroke:#ffea0f;stroke-width:3.47399998;stroke-opacity:1"
       d="m 305.706,171.65972 c 0,0 -3.762,-7.038 -8.682,-7.614 -4.92,-0.588 -7.716,-0.402 -11.19,1.626 -3.474,2.028 -10.002,6.084 -13.698,19.77 -3.66,13.608 -4.05,21.222 -2.892,29.814 0,0 4.632,34.428 22.572,59.028 17.94,24.6 32.79,36.456 43.11,42.246 8.832,4.944 34.146,14.178 34.146,14.178 0,0 32.118,-7.818 56.712,-33.864 24.594,-26.04 28.26,-35.874 35.208,-52.656 6.942,-16.782 7.326,-29.802 6.168,-39.348 -1.152,-9.552 -4.914,-28.938 -13.884,-35.016 -8.97,-6.072 -14.472,-5.202 -18.81,-3.468 -4.338,1.734 -8.1,6.36 -8.1,6.36 l -120.66,-1.056 z"
       id="path114"
       inkscape:connector-curvature="0" />
    <path
       id="path116"
       d="m 346.61925,180.71744 c -0.003,0.003 0.003,0.0284 0,0.0312 -0.0408,0.0216 -0.0921,0.048 -0.125,0.0625 -0.0417,0.0195 -0.0904,0.0424 -0.125,0.0625 -0.15581,0.0999 -0.27351,0.26518 -0.3125,0.4375 -0.17145,0.89617 0.9375,2.5 0.9375,2.5 l 1.71875,27.78125 -2.6875,-0.1875 -0.59375,-8.875 -4.21875,0.375 0,7.15625 -4.25,0 -2.90625,2.6875 -0.5625,-8.3125 5.96875,-0.375 -0.5625,-2.5 -5.84375,0.59375 -1.3125,-14.09375 -2.125,0 0.40625,25.46875 -5.21875,-0.78125 -3.65625,-17.15625 -1.5625,0.1875 -0.75,0.75 -4.25,-0.375 0,5.78125 5,0.78125 2.53125,11.375 c 0,0 -0.7384,0.17698 -1.21875,0.5 -0.0244,0.017 -0.0709,0.0447 -0.0937,0.0625 -0.005,0.005 -0.0259,0.0258 -0.0312,0.0312 -0.007,0.006 -0.0242,0.0247 -0.0312,0.0312 -0.007,0.007 -0.0245,0.0243 -0.0312,0.0312 -0.0271,0.0327 -0.0746,0.0963 -0.0937,0.125 -0.006,0.005 -0.0256,0.0257 -0.0312,0.0312 1.9e-4,0.002 6e-5,0.0242 0,0.0312 -0.006,0.005 -0.0256,0.0257 -0.0312,0.0312 -0.01,0.0237 -0.0247,0.069 -0.0312,0.0937 4e-5,0.0109 -2.6e-4,0.0515 0,0.0625 1.7e-4,0.006 2.7e-4,0.028 0,0.0312 -6.5e-4,0.0132 -2.9e-4,0.049 0,0.0625 -2e-4,0.0108 -5e-5,0.0516 0,0.0625 -3e-4,0.0108 4e-5,0.0516 0,0.0625 0.005,0.0108 0.0255,0.0517 0.0312,0.0625 -1.8e-4,10e-4 -5e-5,0.0241 0,0.0312 0.38999,0.97201 2.3125,3.09375 2.3125,3.09375 l 11,-0.9375 1.5625,-1.75 1.90625,1.53125 3.6875,0.21875 1.34375,-1.9375 2.6875,1.53125 c 2e-5,0 6.95175,-2.125 9.84375,-2.125 2.89199,0 53.03125,1.34375 53.03125,1.34375 l -1.71875,2.71875 c 0.0274,0.19122 0.31187,1.75187 1.9375,1.9375 1.74001,0.186 31.25,0.15625 31.25,0.15625 l -1.75,5.03125 0.78125,3.28125 -3.46875,4.84375 3.28125,0.1875 -4.84375,6.90625 3.09375,0.40625 -3.09375,3.09375 4.4375,-0.21875 0,10.8125 2.3125,-0.1875 0,-3.875 3.09375,0 -0.1875,4.0625 3.09375,0 0,-5.96875 1.71875,0.1875 0,6.1875 2.125,0 0.96875,-17 2.6875,1.75 -0.375,-4.625 1.15625,-0.1875 c 0,-1e-5 -2.71875,-4.455 -2.71875,-6.375 -10e-6,-1.93201 -0.1875,-4.25 -0.1875,-4.25 l 2.125,0.96875 1.34375,2.3125 -0.9375,2.5 2.3125,-0.96875 -0.40625,17.375 -2.6875,3.65625 2.5,-1.15625 0.59375,1.375 2.875,-5.625 0,-15.4375 0.78125,-4.8125 3.09375,-0.375 0.1875,-1.53125 -2.90625,-1.75 3.09375,-1.71875 -2.3125,-2.34375 -0.40625,-4.8125 2.90625,-2.5 -2.90625,-0.96875 -0.75,-4.8125 1.90625,-1.375 c 0,0 -1.52225,-2.4895 -1.90625,-3.4375 -0.38401,-0.97201 -0.78125,-2.90625 -0.78125,-2.90625 l 3.875,-1.34375 c 1e-5,1e-5 -4.45025,-3.85825 -7.15625,-5.40625 -2.59452,-1.476 -7.15406,-3.32869 -8.1875,-4.15625 -0.0289,-0.0263 -0.0728,-0.0726 -0.0937,-0.0937 -0.768,-0.77401 -3.09375,-3.28125 -3.09375,-3.28125 -10e-6,1e-5 -2.06896,-0.61314 -3.03125,-0.15625 -0.0488,0.0246 -0.11392,0.063 -0.15625,0.0937 -0.0108,0.005 -0.0514,0.0259 -0.0625,0.0312 -0.004,0.004 -0.0248,0.0248 -0.0312,0.0312 -0.006,0.006 -0.0238,0.024 -0.0312,0.0312 -1.12568,1.05614 -13.867,11.40508 -14.4375,12.3125 -0.384,0.774 -1.543,4.8525 -2.125,5.8125 -0.576,0.96 -2.50875,3.638 -3.46875,5 -0.90562,1.26 -1.29871,2.36808 -1.34375,2.5 0.0791,0.0622 0.61081,0.46543 1.09375,0.59375 0.003,-2e-4 0.0285,5e-5 0.0312,0 0.0295,0.007 0.0944,0.0242 0.125,0.0312 0.003,0 0.028,9e-5 0.0312,0 0.016,1.1e-4 0.0499,-2.6e-4 0.0625,0 0.0113,-1.9e-4 0.0462,1.8e-4 0.0625,0 0.0219,-0.006 0.0726,-0.0244 0.0937,-0.0312 0.003,7e-5 0.0282,-2.5e-4 0.0312,0 0.576,-0.18601 3.0965,-1.15925 4.0625,-0.78125 0.90563,0.36 1.46443,1.06981 1.53125,1.15625 -1e-5,-1e-5 -0.958,0 -2.5,0 -1.54199,-1e-5 -4.62325,1.54 -5.78125,2.5 -1.15799,0.96 -3.65625,2.125 -3.65625,2.125 l -0.78125,-0.375 5.40625,-3.875 c -0.12504,-0.10057 -1.12897,-0.87277 -1.6875,-0.59375 -0.0109,0.005 -0.0517,0.0257 -0.0625,0.0312 -0.576,0.372 -4.04575,1.9135 -5.59375,2.6875 -1.44562,0.72562 -2.72104,1.97451 -2.875,2.125 l 0,0.53125 c -0.28991,-0.4963 -5.05338,-8.43319 -12.15625,-8.625 -7.10286,-0.18018 -11.86671,8.13628 -12.15625,8.65625 l -14.65625,-2.3125 0.375,1.5625 -8.46875,-0.59375 4.21875,-1.34375 0.40625,0.78125 2.5,-0.78125 -13.5,-3.46875 -1.34375,3.46875 -3.6875,-0.375 -3.0625,-27.78125 c -1e-5,0 0.56356,-1.46455 0.15625,-2.3125 -0.007,-0.0142 -0.0235,-0.0487 -0.0312,-0.0625 -0.0242,-0.0369 -0.0678,-0.0925 -0.0937,-0.125 -0.0202,-0.0237 -0.071,-0.0719 -0.0937,-0.0937 -0.0325,-0.0271 -0.0932,-0.0721 -0.125,-0.0937 -0.13505,-0.0855 -0.32143,-0.15172 -0.53125,-0.1875 -0.0741,-0.0112 -0.16727,-0.0312 -0.25,-0.0312 -0.0166,0 -0.0464,-3.7e-4 -0.0625,0 -0.006,1.3e-4 -0.0258,6e-5 -0.0312,0 -0.0133,-4.5e-4 -0.0456,1e-4 -0.0625,0 -0.004,7e-5 -0.0252,7e-5 -0.0312,0 -0.003,9e-5 -0.0286,1e-4 -0.0312,0 -0.003,-1e-5 -0.0287,-2.1e-4 -0.0312,0 -0.003,-1.4e-4 -0.0285,2e-5 -0.0312,0 -0.003,-2e-4 -0.0285,4e-5 -0.0312,0 -0.003,-6e-5 -0.0279,2.1e-4 -0.0312,0 -0.003,0.003 -0.0284,-0.003 -0.0312,0 z M 450.838,190.81119 c 0.1972,0.0869 1.35938,0.56568 2.0625,0.90625 0.774,0.402 0.75001,1.55925 0.75,3.28125 0,1.62563 -0.3328,2.74143 -0.375,2.875 l 1.34375,2.34375 1.34375,-2.53125 0.96875,0 -2.3125,4.65625 c 0.003,0.003 0.028,0.0281 0.0312,0.0312 0.007,0.007 0.0292,0.029 0.0312,0.0312 0.005,0.005 0.0257,0.0261 0.0312,0.0312 0.0288,0.0249 0.0786,0.066 0.125,0.0937 0.0141,0.008 0.0468,0.0234 0.0625,0.0312 0.17427,0.0817 0.45897,0.15625 0.875,0.15625 0.015,0 0.0479,-7.4e-4 0.0625,0 0.0109,-1.8e-4 0.0517,0 0.0625,0 0.0348,0.007 0.0965,0.023 0.125,0.0312 0.69277,0.22022 0.88411,1.34812 0.90625,1.5 0,0 -0.18751,2.71976 -0.1875,4.84375 0,0.56259 -0.13281,0.97784 -0.3125,1.28125 -0.0715,0.11601 -0.16506,0.22723 -0.25,0.3125 -0.006,0.006 -0.0276,0.0279 -0.0312,0.0312 -0.10427,0.0935 -0.24081,0.19294 -0.34375,0.25 -0.26186,0.13923 -0.54168,0.20105 -0.6875,0.21875 -0.0113,3e-5 -0.0523,2e-4 -0.0625,0 0.0654,0.068 0.58688,0.63624 1.3125,1.1875 0.768,0.57 0.93751,2.28925 0.9375,6.53125 0,4.10944 -2.70537,5.15738 -2.875,5.21875 l -2.90625,-5.78125 2.3125,-1.15625 -3.0625,-5.8125 3.0625,-1.53125 c 0,0 -0.74825,-1.54575 -1.90625,-3.09375 -1.152,-1.536 0.1875,-4.81249 0.1875,-4.8125 0.0823,-0.13357 0.72751,-1.24937 0.1875,-2.875 -0.52744,-1.57144 0.23089,-2.52585 0.375,-2.6875 -7e-5,-0.002 2.2e-4,-0.0295 0,-0.0312 0,0 -0.3795,-1.5235 -0.1875,-2.6875 0.0112,-0.0679 0.0316,-0.17573 0.0312,-0.25 -4e-5,-0.004 -10e-5,-0.0273 0,-0.0312 5.1e-4,-0.0125 5.9e-4,-0.0513 0,-0.0625 -0.14852,-0.9811 -1.37818,-2.20534 -1.6875,-2.5 z m -2.625,0.9375 -0.90625,1.53125 1.71875,1.90625 c 10e-6,1e-5 -0.66438,3.30139 -0.25,4.46875 -3.1e-4,0.003 6e-5,0.0284 0,0.0312 0.006,0.0114 0.0258,0.0523 0.0312,0.0625 0.006,0.0122 0.0231,0.0466 0.0312,0.0625 0.582,0.96 2.69825,2.142 1.15625,6 -1.54199,3.852 -1.7545,5.589 -1.5625,7.125 0.192,1.548 0,3.65625 0,3.65625 l -0.9375,-0.1875 -0.59375,-3.46875 -0.5625,-1.34375 c 1e-5,0 0.5625,-3.29575 0.5625,-4.84375 1e-5,-1.536 -1.15625,-4.40625 -1.15625,-4.40625 0,1e-5 -6.1545,1.13075 -7.3125,1.71875 -1.158,0.57 -3.875,1.5625 -3.875,1.5625 l -0.375,-1.1875 c 0,0 8.36359,-3.04046 9.0625,-3.46875 0.57599,-0.384 2.125,-0.375 2.125,-0.375 l 1.15625,-4.625 c 1e-5,0 -1.34375,-1.3495 -1.34375,-1.9375 -7e-5,-0.003 -10e-6,-0.0285 0,-0.0312 -1.6e-4,-0.003 2e-5,-0.0285 0,-0.0312 -2.5e-4,-0.003 4e-5,-0.0285 0,-0.0312 0.004,-0.003 0.0284,-0.0285 0.0312,-0.0312 0.34964,-0.62832 2.68659,-1.97808 3,-2.15625 z m -8.78125,15 c 0.007,-6e-5 0.0295,-2e-4 0.0312,0 0.0106,1.5e-4 0.0519,-4e-4 0.0625,0 0.007,5e-5 0.0293,2e-5 0.0312,0 0.004,1.6e-4 0.0271,-2.6e-4 0.0312,0 0.004,1.8e-4 0.0275,1e-5 0.0312,0 0.04,-0.002 0.10834,-0.002 0.15625,0 0.003,-5e-5 0.0282,1e-4 0.0312,0 0.0459,0.008 0.1075,0.0187 0.15625,0.0312 0.003,-6e-5 0.0281,1.9e-4 0.0312,0 0.003,-7e-5 0.0281,2.3e-4 0.0312,0 0.006,0.006 0.0257,0.0255 0.0312,0.0312 0.003,-9e-5 0.028,3.1e-4 0.0312,0 0.006,0.006 0.0257,0.0255 0.0312,0.0312 0.007,6e-5 0.0296,1.9e-4 0.0312,0 0.006,0.006 0.0257,0.0256 0.0312,0.0312 0.0108,0.0105 0.0521,0.0515 0.0625,0.0625 0.006,0.007 0.0254,0.0244 0.0312,0.0312 0.0454,0.0571 0.0923,0.14784 0.125,0.21875 0.20674,0.47857 0.16885,1.19467 0.15625,1.3125 l -1.375,2.90625 0.78125,0.75 2.6875,1.375 0.96875,-4.25 1.15625,-0.5625 c 0,0 0.40625,1.726 0.40625,2.5 0,0.762 -1.16951,3.85976 -1.9375,5.59375 -0.72563,1.62563 0.25061,2.90784 0.375,3.0625 l -0.5625,2.125 -0.96875,0 0,-1.15625 c 0.0183,-0.1314 0.13189,-1.22501 -0.59375,-2.125 -0.005,-0.005 -0.0258,-0.0259 -0.0312,-0.0312 -0.006,-0.006 -0.0283,-0.0281 -0.0312,-0.0312 -0.0385,-0.0402 -0.089,-0.0916 -0.125,-0.125 -0.003,-0.003 -0.0283,-0.0281 -0.0312,-0.0312 -0.67315,-0.53216 -1.56939,-0.0697 -2.125,0.0312 -0.0113,7.3e-4 -0.0499,6.5e-4 -0.0625,0 -0.004,-1.2e-4 -0.0276,-5e-5 -0.0312,0 -0.0162,1.6e-4 -0.0501,0 -0.0625,0 -0.576,0 -2.31249,-1.15625 -2.3125,-1.15625 0,0 -0.76774,0.1905 -1.34375,0.5625 -0.006,0.006 -0.0257,0.0256 -0.0312,0.0312 -0.0107,0.006 -0.0462,0.0234 -0.0625,0.0312 -0.003,-2.1e-4 -0.0285,6e-5 -0.0312,0 -0.0107,0.006 -0.0517,0.0258 -0.0625,0.0312 -0.006,-1.6e-4 -0.0285,-2.7e-4 -0.0312,0 -0.61894,0.0418 -1.58526,-0.9883 -2.09375,-2 -0.576,-1.158 -1.15625,-4.25 -1.15625,-4.25 l -0.96875,0.40625 -0.96875,-0.96875 4.0625,-3.28125 0.1875,1.53125 -1.15625,1.34375 c 0,0 -0.009,0.97575 0.375,3.09375 0.36,1.99125 2.09884,2.45004 2.3125,2.5 l 1.75,-1.34375 1.34375,1.9375 2.6875,0.375 0.96875,-2.5 c 0,0 -4.44024,-1.94775 -5.40625,-3.09375 -0.10566,-0.12666 -0.18779,-0.2677 -0.25,-0.40625 -0.4788,-1.12388 0.34794,-2.572 1.03125,-3.25 0.51638,-0.52041 0.97231,-1.05261 1.4375,-1.28125 0.0431,-0.0201 0.11265,-0.0479 0.15625,-0.0625 -1.7e-4,-0.002 -5e-5,-0.0242 0,-0.0312 z m 9.21875,11.78125 -0.1875,2.875 -1.15625,3.09375 -0.40625,-0.75 -0.5625,-4.25 2.3125,-0.96875 z m -6,5.59375 1.15625,2.3125 -0.9375,2.5 -1.375,0.96875 0,-3.28125 1.15625,-2.5 z m 4.4375,5.03125 1.75,0.375 c 0,0 0.1875,2.33174 0.1875,3.09375 0,0.774 -1.34375,4.43751 -1.34375,4.4375 l -1.34375,-2.34375 0.75,-5.5625 z m -5.375,2.875 0.9375,1.5625 -0.75,2.875 -1.15625,-0.1875 0,-3.28125 0.96875,-0.96875 z m 0.75,6.1875 0.78125,1.71875 -0.59375,0.96875 -1.90625,-0.1875 1.71875,-2.5 z m 3.28125,2.3125 1.9375,0.375 -0.96875,6.1875 -0.96875,-0.21875 0,-6.34375 z m -4.4375,3.28125 2.5,0.78125 0.21875,0.75 -2.90625,2.875 -0.78125,-0.34375 -0.1875,-3.125 1.15625,-0.9375 z"
       style="fill:#ffea0f;fill-opacity:1;stroke:none"
       inkscape:connector-curvature="0" />
    <path
       id="path138"
       d="m 351.463,216.84244 c -1.77439,0.24018 -3.29058,1.52622 -4.46875,2.46875 -0.0454,0.0363 -0.084,0.0844 -0.125,0.125 -0.0101,0.0103 -0.0463,0.0461 -0.0625,0.0625 -1.56458,1.78279 0.42126,7.11121 1.34375,11.1875 0.966,4.242 8.5,15.25 8.5,15.25 l 3.65625,6.9375 c 0,0 -0.95524,0.78401 -1.53125,1.75 -0.582,0.96 -2.13999,4.6225 -1.75,9.0625 0.384,4.434 4.45351,6.15301 6.1875,7.125 1.74,0.96 5.78126,0.37501 5.78125,0.375 l 1.34375,1.15625 -23.71875,-1.15625 1.71875,-6.75 1.375,-3.0625 c 0,0 0.74551,4.60101 0.9375,5.375 0.002,0.006 -0.002,0.0247 0,0.0312 0.0142,0.0401 0.0461,0.0903 0.0625,0.125 0.0236,0.0455 0.0621,0.11465 0.0937,0.15625 0.006,0.007 0.0251,0.0241 0.0312,0.0312 0.0131,0.0143 0.048,0.0483 0.0625,0.0625 0.015,0.0141 0.0466,0.0488 0.0625,0.0625 0.0652,0.0539 0.1509,0.11667 0.21875,0.15625 0.32474,0.18016 0.75541,0.2614 1.0625,0.1875 0.0274,-0.008 0.0682,-0.0212 0.0937,-0.0312 0.0174,-0.008 0.0461,-0.0224 0.0625,-0.0312 0.0109,-0.005 0.0519,-0.0259 0.0625,-0.0312 0.0244,-0.0204 0.073,-0.0693 0.0937,-0.0937 0.006,-0.005 0.0258,-0.0259 0.0312,-0.0312 0.384,-0.576 0.5625,-3.09301 0.5625,-6.375 0,-3.27 0.192,-12.15875 0,-14.46875 -0.198,-2.322 -2.31249,-2.68749 -2.3125,-2.6875 l -5.96875,-0.375 c 0,0 0.005,-1.162 -0.1875,-1.75 2e-4,-0.003 -4e-5,-0.0285 0,-0.0312 -0.004,-0.003 -0.0284,-0.0285 -0.0312,-0.0312 -0.0149,-0.0258 -0.0449,-0.07 -0.0625,-0.0937 -0.44525,-0.54801 -2.14892,-1.23955 -3.375,-1.59375 -1.35,-0.372 -9.05901,-0.9375 -11.375,-0.9375 -2.31,0 -8.87976,1.13549 -14.09375,0.9375 -5.208,-0.186 -13.875,1.75 -13.875,1.75 l -3.46875,-2.875 -1.9375,1.53125 -2.53125,0.1875 0.78125,3.28125 c 0,0 -1.52224,7.5295 -1.90625,8.6875 -0.0102,0.0345 -0.0233,0.0919 -0.0312,0.125 -0.0199,0.092 -0.0334,0.21124 -0.0312,0.3125 1.7e-4,0.004 1.1e-4,0.0252 0,0.0312 0.11095,1.14881 1.55831,2.68281 2.5625,3.1875 1.152,0.576 3.28126,0.5625 3.28125,0.5625 l 1.875,-1.84375 c -0.0854,0.24661 -0.15625,0.56445 -0.15625,0.90625 0,0.774 0.59375,1.90625 0.59375,1.90625 0,0 2.62183,0.94067 3.625,0.78125 0.003,6e-5 0.0283,-1.8e-4 0.0312,0 0.966,-0.198 3.46874,-0.59374 3.46875,-0.59375 0,0 1.732,4.04724 2.5,5.78125 0.774,1.746 -0.18751,7.15626 -0.1875,7.15625 0,0 -2.90125,0.48156 -3.84375,1.15625 -0.003,0.003 -0.0285,0.0284 -0.0312,0.0312 -0.0414,0.0382 -0.0931,0.0889 -0.125,0.125 -0.003,0.003 -0.0281,0.0282 -0.0312,0.0312 -0.006,0.005 -0.0257,0.0258 -0.0312,0.0312 -0.008,0.0164 -0.0267,0.0532 -0.0312,0.0625 -0.009,0.0219 -0.0248,0.068 -0.0312,0.0937 1.8e-4,0.006 2.8e-4,0.028 0,0.0312 -3.3e-4,0.01 -2.3e-4,0.0461 0,0.0625 -3e-4,0.0109 -2e-5,0.0516 0,0.0625 0.002,0.002 0.0243,0.0242 0.0312,0.0312 0.0142,0.0335 0.0441,0.0895 0.0625,0.125 0.005,0.0109 0.0258,0.0516 0.0312,0.0625 0.005,0.0109 0.0259,0.0517 0.0312,0.0625 0.006,0.005 0.0257,0.0258 0.0312,0.0312 0.005,0.006 0.0257,0.0253 0.0312,0.0312 0.61817,0.62944 2.36738,1.25 3.90625,1.25 2.124,0 8.11949,0.37499 12.9375,0.375 4.824,0 14.25799,-0.39576 18.5,-0.59375 4.242,-0.192 9.08225,-0.75001 13.90625,-0.75 4.818,0 16.38324,0.74999 19.28125,0.75 2.892,0 12.55001,0.78124 15.25,0.78125 2.706,0 14.08125,0.22025 16.78125,0.40625 2.706,0.198 17.74376,1.90475 19.09375,1.71875 0.24134,-0.0352 0.45786,-0.11025 0.625,-0.1875 0.11784,-0.0569 0.23108,-0.12187 0.3125,-0.1875 0.0109,-0.0108 0.0519,-0.0516 0.0625,-0.0625 0.0142,-0.0139 0.0494,-0.0485 0.0625,-0.0625 0.006,-0.006 0.0272,-0.0272 0.0312,-0.0312 0.0268,-0.0335 0.0726,-0.0919 0.0937,-0.125 0.0348,-0.0575 0.0729,-0.13524 0.0937,-0.1875 0.013,-0.0281 0.0477,-0.0932 0.0625,-0.125 -3e-5,-0.003 2.5e-4,-0.0281 0,-0.0312 -2e-5,-0.003 2e-4,-0.0282 0,-0.0312 1.9e-4,-0.003 -10e-6,-0.0284 0,-0.0312 -3.2e-4,-0.006 1.9e-4,-0.0262 0,-0.0312 -10e-5,-0.006 -6e-5,-0.0277 0,-0.0312 -3.3e-4,-0.0123 0,-0.0312 0,-0.0312 l -4.4375,-1.53125 c 0,0 -8.53505,0.37092 -9.25,0.3125 -0.003,-3.2e-4 -0.0246,-1.7e-4 -0.0312,0 -9e-5,-0.002 2e-5,-0.0243 0,-0.0312 0.003,1.6e-4 0.0284,-4e-5 0.0312,0 0.13152,-0.0193 0.46213,-0.0531 0.96875,-0.0937 4.626,-0.396 8.65899,-4.63351 9.625,-6.9375 0.966,-2.31 0.37499,-7.34374 0.375,-7.34375 0,0 2.12774,0.37499 3.09375,0.375 0.954,0 3.67826,-0.19201 5.40625,0 1.734,0.198 2.90449,-0.57125 4.0625,-1.53125 1.158,-0.966 2.125,-1.53124 2.125,-1.53125 l -6.375,-0.59375 0.96875,-3.65625 0.375,3.28125 2.125,-0.59375 -0.1875,-8.46875 -0.59375,-0.40625 -2.3125,2.53125 0.78125,0.5625 -1.15625,0.78125 -1.34375,-2.3125 -2.71875,5 1.375,0 -0.59375,2.90625 -3.84375,0 c 0,0 0.17701,-3.86526 0.375,-7.53125 0.192,-3.672 6.15724,-16.001 8.28125,-18.125 2.124,-2.118 2.14001,-4.81525 1.75,-5.78125 -0.008,-0.0162 -0.0254,-0.0513 -0.0312,-0.0625 -0.013,-0.0225 -0.0457,-0.0713 -0.0625,-0.0937 -0.005,-0.005 -0.0257,-0.0258 -0.0312,-0.0312 -0.032,-0.0353 -0.0843,-0.0899 -0.125,-0.125 -1.01605,-0.84181 -4.43015,-1.625 -6.3125,-1.625 -2.118,0 -4.25549,1.17425 -6.1875,0.40625 -1.85147,-0.74405 -5.85023,-0.0491 -6.84375,0.6875 -0.005,0.005 -0.0259,0.0258 -0.0312,0.0312 -0.0111,0.005 -0.0518,0.0261 -0.0625,0.0312 -0.006,0.006 -0.0249,0.0253 -0.0312,0.0312 -0.0472,0.041 -0.12412,0.0865 -0.1875,0.125 -1.10564,0.64286 -4.41165,0.89581 -6.90625,-0.53125 -2.7,-1.536 -5.41776,-0.57749 -7.34375,-0.1875 -1.932,0.384 -3.66774,0.19225 -5.59375,-1.34375 -1.932,-1.548 -5.00725,-0.57 -5.78125,0 -0.0108,0.005 -0.0515,0.026 -0.0625,0.0312 -0.016,0.008 -0.0512,0.0251 -0.0625,0.0312 -0.9414,0.48333 -3.61083,0.42708 -5.25,-0.65625 -1.74,-1.164 -2.898,-0.77825 -6.75,-0.40625 -3.864,0.402 -3.68401,-0.57126 -6,-1.53125 -2.316,-0.96 -7.90999,0.98351 -11,1.1875 -3.084,0.186 -3.28051,-0.39825 -6.5625,-2.90625 -1.10053,-0.84253 -2.16379,-1.15972 -3.15625,-1.125 -0.008,2.7e-4 -0.0235,-3e-5 -0.0312,0 -0.0314,-5.3e-4 -0.0937,-1e-4 -0.125,0 -0.004,1.3e-4 -0.0254,1.1e-4 -0.0312,0 -0.0115,2.5e-4 -0.0504,4.8e-4 -0.0625,0 -0.004,-2e-5 -0.0274,-1.4e-4 -0.0312,0 -0.0114,3.2e-4 -0.0503,5.7e-4 -0.0625,0 -0.004,-3e-5 -0.0275,-1.6e-4 -0.0312,0 -0.0283,0.003 -0.0656,-0.004 -0.0937,0 z m -52.625,31.03125 c 0.0797,-0.0157 0.125,0 0.125,0 0,0 0,0.77376 0,1.34375 -0.002,0.0353 -0.0209,0.0926 -0.0312,0.125 -0.0183,0.0475 -0.0608,0.11495 -0.0937,0.15625 -0.0117,0.0134 -0.0496,0.0497 -0.0625,0.0625 -0.0743,0.0684 -0.18467,0.13781 -0.28125,0.1875 -0.2835,0.13985 -0.62,0.20602 -0.6875,0.21875 0,0 -0.19915,-0.0713 -0.375,-0.21875 -0.0375,-0.0327 -0.0909,-0.0855 -0.125,-0.125 -0.0608,-0.0746 -0.12707,-0.18376 -0.15625,-0.28125 -0.0366,-0.14484 -0.0335,-0.33775 0.0625,-0.53125 0.312,-0.62887 1.27983,-0.86934 1.625,-0.9375 z m 7.15625,1.9375 c 0.0626,-0.01 0.13002,0.002 0.1875,0 0.25452,-0.002 0.48143,0.0744 0.59375,0.125 0.0368,0.0176 0.0826,0.0245 0.0937,0.0312 0,0 -0.20526,0.95523 -0.78125,1.53125 -0.108,0.11025 -0.21892,0.1995 -0.3125,0.25 -0.0461,0.0232 -0.11429,0.0505 -0.15625,0.0625 -0.0137,0.003 -0.0493,0.0288 -0.0625,0.0312 -0.007,9.6e-4 -0.0249,-7.3e-4 -0.0312,0 -0.0125,0.001 -0.0505,-2e-4 -0.0625,0 -0.006,-9e-5 -0.0255,2.7e-4 -0.0312,0 -0.006,-4.4e-4 -0.0258,6e-4 -0.0312,0 -0.053,-0.008 -0.11812,-0.0459 -0.15625,-0.0625 -0.014,-0.007 -0.0511,-0.0244 -0.0625,-0.0312 -0.0251,-0.0164 -0.055,-0.0245 -0.0625,-0.0312 0,0 -0.36774,-1.36 0.40625,-1.75 0.168,-0.084 0.3227,-0.13369 0.46875,-0.15625 z m 116.40625,1.71875 0.40625,5.1875 c 0,0 -1.36426,-2.30501 -2.90625,-2.875 -1.548,-0.576 -3.46174,-0.78124 -8.09375,-0.78125 -4.48144,0 -7.3569,4.88167 -7.53125,5.1875 l -0.96875,-0.375 1.15625,-5 -25.625,0.78125 c 0.26086,0.11178 2.40751,1.05439 4.21875,2.5 1.926,1.536 3.84376,5.59375 3.84375,5.59375 l -0.5625,0.78125 9.84375,0.1875 c 0,10e-6 -0.768,3.6455 0,5.1875 0.774,1.53599 2.3125,3.6875 2.3125,3.6875 l -16.59375,0 c -1e-5,0 3.07875,-3.49375 3.46875,-4.84375 0.38399,-1.34999 0.96875,-4.21875 0.96875,-4.21875 0,0 -0.77226,-0.97299 -1.15625,-2.125 -0.39,-1.158 -1.73476,-2.5205 -3.46875,-4.0625 -0.007,-0.006 -0.0242,-0.0252 -0.0312,-0.0312 -1.8362,-1.52376 -10.96875,-2.28126 -10.96875,-2.28125 l -1.9375,-1.15625 53.625,-1.34375 z m -31.25,2.3125 0.78125,1.15625 0,1.90625 -1.34375,0.21875 0,-2.125 0.5625,-1.15625 z m 23.15625,0.96875 0.96875,0.9375 -0.78125,3.28125 -0.5625,-0.1875 0.375,-4.03125 z m -101.09375,0.1875 0.96875,2.125 -0.96875,12.03125 c -0.16865,-0.98213 -1.53549,-8.73356 -2.09375,-9.5 -0.005,-0.005 0.004,-0.0268 0,-0.0312 -0.58201,-0.57601 -1.75,-3.28125 -1.75,-3.28125 l 3.84375,-1.34375 z m 50.15625,0 3.875,0.75 -2.125,1.75 -2.3125,-1.34375 0.5625,-1.15625 z m 36.28125,0 1.34375,0.375 -0.78125,3.09375 -0.75,-2.125 0.1875,-1.34375 z m 12.53125,0 0.59375,3.65625 -1.75,0.375 -1.15625,-3.46875 2.3125,-0.5625 z m -4.25,0.96875 1.34375,2.6875 -0.375,0.78125 -2.5,-1.15625 1.53125,-2.3125 z m -35.09375,0.1875 1.71875,0.1875 -0.375,3.65625 -2.5,-2.125 1.15625,-1.71875 z m 44.5625,0 0.96875,1.15625 -1.5625,2.125 -0.75,-0.375 1.34375,-2.90625 z m -40.125,0.375 1.71875,1.5625 -1.15625,2.6875 -1.15625,0 -0.1875,-0.96875 0.78125,-3.28125 z m -37.625,0.96875 0.59375,2.6875 4.03125,2.34375 -1.71875,7.90625 -6.75,0.1875 3.84375,-13.125 z m 21.625,0.59375 3.46875,1.15625 -0.40625,0.5625 -3.65625,-0.96875 0.59375,-0.75 z m 28.34375,0 5,0.1875 0.21875,1.15625 -5.03125,0 -0.1875,-1.34375 z m -19.28125,1.15625 1.71875,1.53125 -0.96875,1.53125 -1.90625,-0.1875 1.15625,-2.875 z m 35.6875,0.1875 2.6875,1.71875 0.1875,1.375 -2.6875,0.9375 -0.1875,-4.03125 z m -88.5625,0.5625 4.625,3.65625 0,6.78125 -5.59375,-0.59375 0.96875,-9.84375 z m 102.625,0.1875 -0.1875,1.375 -2.6875,0.75 -0.21875,-1.90625 3.09375,-0.21875 z m -40.5,0.21875 1.15625,0 0.1875,2.875 -2.3125,0.1875 -0.375,-0.9375 1.34375,-2.125 z m -19.5,0.375 3.875,0.78125 -3.875,0.5625 0,-1.34375 z m 53.4375,0.75 c 0.0125,-0.005 0.0512,0.003 0.0625,0 0.006,-9e-4 0.0251,4.9e-4 0.0312,0 0.007,-1.7e-4 0.0245,-7e-5 0.0312,0 0.0274,9e-4 0.0701,0 0.0937,0 0.0326,10e-4 0.0862,-0.006 0.125,0 0.0286,0.005 0.0705,0.0253 0.0937,0.0312 0.005,0.002 0.025,-0.002 0.0312,0 0.0403,0.0149 0.0937,0.0482 0.125,0.0625 0.14858,0.0729 0.29754,0.20163 0.40625,0.34375 0.0206,0.0283 0.0699,0.09 0.0937,0.125 0.12726,0.22323 0.1875,0.51485 0.1875,0.8125 0,0.11279 -0.0104,0.23733 -0.0312,0.34375 -0.0412,0.19201 -0.12113,0.38399 -0.21875,0.53125 -0.0151,0.0216 -0.0447,0.0691 -0.0625,0.0937 -0.0328,0.0361 -0.0943,0.0963 -0.125,0.125 -0.0108,0.0111 -0.0516,0.0516 -0.0625,0.0625 -0.0225,0.0171 -0.0702,0.0474 -0.0937,0.0625 -0.13517,0.0815 -0.3103,0.11995 -0.46875,0.125 -0.17044,0 -0.35669,-0.0387 -0.5,-0.125 -0.0236,-0.0151 -0.0712,-0.0454 -0.0937,-0.0625 -0.0109,-0.0109 -0.0518,-0.0514 -0.0625,-0.0625 -0.0306,-0.0287 -0.0922,-0.0889 -0.125,-0.125 -0.0178,-0.0246 -0.0475,-0.0721 -0.0625,-0.0937 -0.0971,-0.14725 -0.17738,-0.33924 -0.21875,-0.53125 -0.021,-0.10642 -0.0312,-0.23096 -0.0312,-0.34375 0,-0.33487 0.0935,-0.66817 0.25,-0.90625 0.005,-0.008 0.0257,-0.0237 0.0312,-0.0312 0.10827,-0.14211 0.25729,-0.27081 0.40625,-0.34375 0.0314,-0.0143 0.0847,-0.0476 0.125,-0.0625 0.006,-0.002 0.0257,0.002 0.0312,0 0.0111,-0.004 0.0187,-0.0264 0.0312,-0.0312 z m -78.3125,0.21875 -3.65625,8.875 -4.25,0.1875 c 0,0 -0.77675,-1.528 -0.96875,-2.5 -0.192,-0.96 0,-6.375 0,-6.375 l 8.875,-0.1875 z m 39.28125,1.3125 c 0.0159,-0.005 0.0462,0.004 0.0625,0 0.003,2e-4 0.0285,-6e-5 0.0312,0 0.0109,7e-5 0.0516,-2.3e-4 0.0625,0 0.003,10e-5 0.0285,-3e-5 0.0312,0 0.005,-3.9e-4 0.0231,7e-5 0.0312,0 0.0182,2e-4 0.0519,0 0.0625,0 0.0106,2.6e-4 0.0463,-6e-5 0.0625,0 0.0109,-1.9e-4 0.0517,2e-5 0.0625,0 0.003,-5e-5 0.0282,1.6e-4 0.0312,0 0.0511,0.0115 0.10893,0.0412 0.15625,0.0625 0.0466,0.0229 0.11478,0.0626 0.15625,0.0937 0.081,0.0647 0.1659,0.16094 0.21875,0.25 0.008,0.0151 0.0239,0.0469 0.0312,0.0625 0.007,0.0158 0.0254,0.0463 0.0312,0.0625 0.006,0.0109 0.0257,0.0515 0.0312,0.0625 -2e-4,0.003 6e-5,0.0285 0,0.0312 0.006,0.0108 0.0256,0.0516 0.0312,0.0625 0,0.0108 1.7e-4,0.0516 0,0.0625 7.1e-4,0.0142 0,0.0481 0,0.0625 -2.7e-4,0.0106 -3.3e-4,0.0443 0,0.0625 -6e-5,0.008 5.2e-4,0.0261 0,0.0312 -0.006,0.0226 -0.0242,0.0717 -0.0312,0.0937 -0.007,0.0277 -0.0212,0.0673 -0.0312,0.0937 -0.0147,0.0347 -0.0431,0.0929 -0.0625,0.125 -0.0154,0.0236 -0.0448,0.0719 -0.0625,0.0937 -0.0123,0.0142 -0.0493,0.0492 -0.0625,0.0625 -0.041,0.0387 -0.1082,0.095 -0.15625,0.125 -0.0327,0.019 -0.0899,0.048 -0.125,0.0625 -0.0356,0.0134 -0.0876,0.0228 -0.125,0.0312 -0.005,0.006 -0.0258,0.0255 -0.0312,0.0312 -0.0108,-2e-5 -0.0516,1.9e-4 -0.0625,0 -0.0162,6e-5 -0.0519,-2.6e-4 -0.0625,0 -0.0105,0 -0.0443,-1.9e-4 -0.0625,0 -0.008,-7e-5 -0.0261,3.9e-4 -0.0312,0 -0.003,3e-5 -0.0282,-10e-5 -0.0312,0 -0.0109,-0.006 -0.0516,-0.0255 -0.0625,-0.0312 -0.17752,-0.0405 -0.35642,-0.14563 -0.46875,-0.28125 -0.0314,-0.0418 -0.0659,-0.10169 -0.0937,-0.15625 -0.007,-0.0138 -0.0253,-0.0486 -0.0312,-0.0625 -0.006,-0.0138 -0.0267,-0.0489 -0.0312,-0.0625 -0.002,-0.007 0.002,-0.0247 0,-0.0312 9e-5,-0.0109 -2.5e-4,-0.0516 0,-0.0625 1.2e-4,-0.003 -4e-5,-0.0285 0,-0.0312 -0.004,-0.0138 -0.0243,-0.0448 -0.0312,-0.0625 -0.001,-0.004 8.4e-4,-0.0278 0,-0.0312 0,-0.0144 -7.1e-4,-0.0483 0,-0.0625 0.006,-0.0109 0.0254,-0.0517 0.0312,-0.0625 -2.3e-4,-0.0109 7e-5,-0.0517 0,-0.0625 -6e-5,-0.003 2e-4,-0.0282 0,-0.0312 0.006,-0.011 0.0256,-0.0516 0.0312,-0.0625 0.006,-0.0158 0.0246,-0.047 0.0312,-0.0625 0.007,-0.0153 0.0233,-0.0477 0.0312,-0.0625 0.008,-0.0146 0.0221,-0.0484 0.0312,-0.0625 0.0239,-0.0346 0.0652,-0.0942 0.0937,-0.125 0.0411,-0.0419 0.10759,-0.0928 0.15625,-0.125 0.0142,-0.009 0.0478,-0.0234 0.0625,-0.0312 0.0299,-0.0147 0.062,-0.052 0.0937,-0.0625 z m -9.96875,0.59375 0.40625,0.96875 -3.28125,1.75 -0.96875,-1.53125 3.84375,-1.1875 z m 52.875,0 1.90625,0.21875 -0.1875,0.96875 -1.71875,-0.21875 0,-0.96875 z m -48.4375,0.21875 2.90625,0 0.1875,1.15625 -1.71875,1.90625 -1.375,-3.0625 z m 31.4375,0.375 1.1875,0 -0.21875,1.5625 -0.96875,0.75 0,-2.3125 z m 8.3125,0.1875 0.375,1.15625 -2.5,1.75 -0.78125,-2.3125 2.90625,-0.59375 z m -30.28125,0.40625 2.6875,0.5625 -0.5625,1.53125 -2.5,-0.5625 0.375,-1.53125 z m 37.21875,0.96875 1.15625,3.28125 -2.125,0.9375 -0.375,-3.84375 1.34375,-0.375 z m -50.15625,0.1875 0.78125,0.75 -0.78125,1.9375 -1.90625,-0.78125 1.90625,-1.90625 z m 10.8125,0.96875 0.96875,0 0.5625,2.125 -1.34375,0.5625 -0.1875,-2.6875 z m -2.6875,0.1875 1.53125,1.15625 -0.1875,1.53125 -2.5,-0.1875 1.15625,-2.5 z m 36.0625,1.15625 -0.1875,2.3125 -1.375,-0.59375 1.5625,-1.71875 z m 2.125,0.78125 0.96875,0.375 0,1.90625 -1.75,0 0.78125,-2.28125 z"
       style="fill:#ffea0f;fill-opacity:1;stroke:none"
       inkscape:connector-curvature="0" />
    <path
       style="fill:none;stroke:#002a86;stroke-width:1.15799999;stroke-linecap:round;stroke-opacity:1"
       d="m 354.702,234.35972 c 0,0 -2.7,-4.83 -2.892,-6.762 -0.198,-1.926 0.96,-5.976 3.66,-3.27 2.7,2.694 3.474,4.428 3.282,5.586 -0.192,1.164 -0.192,3.084 -0.192,3.084 m 2.892,-9.258 c 0,0 2.892,7.338 4.05,10.218 1.158,2.91 1.542,6.762 1.542,6.762 m 4.056,-0.972 -1.158,-11.178 m 13.5,14.07 0.582,-10.026 m 11.766,5.598 0.576,-6.174 m 9.84,8.682 1.158,-9.84 m 10.224,11.574 3.084,-9.066 m -51.696,9.066 c 0,0 3.282,0.576 4.242,1.164 0.966,0.57 2.316,0.762 2.316,1.734 0,0.96 0,2.88 0,2.88 m 0,-2.88 c 0,0 0.192,-2.124 2.892,-1.938 2.7,0.204 4.44,0 4.632,2.31 0.192,2.322 0.192,3.096 0.192,3.096 m 2.508,-0.186 c 0,0 -0.774,-4.056 2.124,-4.056 2.892,0 5.784,0.198 5.976,1.548 0.192,1.344 0.39,2.694 0.39,2.694 m 7.524,0 c 0,0 0,-4.242 2.892,-4.044 m 9.642,-1.158 c 0,0 -3.666,0.57 -3.474,2.508 0.198,1.92 0.582,2.508 0.582,2.508 m 5.592,-0.402 c 0,0 0.966,-3.27 2.316,-3.654 1.35,-0.39 3.09,-0.774 3.09,-0.774 m -62.31,0.384 3.474,-1.548"
       id="path176"
       inkscape:connector-curvature="0" />
    <path
       style="fill:none;stroke:#ffea0f;stroke-width:1.15799999;stroke-linecap:round;stroke-opacity:1"
       d="m 428.004,263.09372 2.124,0 m 2.31,-0.192 10.998,-2.316 m -14.856,5.988 2.898,-0.198 m -6.558,2.892 5.976,-1.158 m 0.192,2.508 c 0,0 5.4,1.344 6.366,0.768"
       id="path178"
       inkscape:connector-curvature="0" />
    <path
       style="fill:none;stroke:#002a86;stroke-width:1.15799999;stroke-linecap:round;stroke-opacity:1"
       d="m 361.068,246.14372 3.468,-1.542 m -2.94,3.258 3.474,-1.548 m -2.316,3.282 3.474,-1.548 m -2.892,3.258 3.468,-1.536"
       id="path180"
       inkscape:connector-curvature="0" />
    <path
       style="fill:none;stroke:#002a86;stroke-width:1.15799999;stroke-linecap:round;stroke-opacity:1"
       d="m 303.582,244.57772 c 0,0 6.558,-1.734 8.292,-1.734 1.74,0 3.474,1.146 4.056,0.96 0.576,-0.186 2.7,-0.774 4.236,-1.164 1.542,-0.372 11.958,0.774 11.958,0.774 m 11.97,0.39 -2.508,0.186 m -24.888,2.136 c 0,0 -1.926,0.762 -1.542,1.734 0.384,0.96 0.966,2.508 0.576,3.078 -0.384,0.576 -1.926,2.124 -0.768,2.706 1.158,0.576 2.118,0.762 2.118,0.762 m 1.356,-3.078 c 0,0 -0.582,-2.694 0.768,-3.084 1.35,-0.384 2.7,-0.198 2.7,-0.198 m 2.898,4.626 2.31,6.564"
       id="path222"
       inkscape:connector-curvature="0" />
    <path
       id="path224"
       d="m 287.55675,181.49869 -1.34375,0.21875 -0.1875,0.9375 -3.28125,1.53125 3.28125,0.21875 0,1.53125 -2.5,2.125 -1.9375,4.25 -0.1875,4.4375 -8.3125,7.6875 9.46875,11 27.59375,0.59375 0.75,-2.90625 1.9375,-2.5 0.1875,-5.21875 0.96875,0.21875 0.1875,-1 -5,0 0,0.0312 -0.59375,2.71875 1.53125,0.375 -1.34375,2.125 -2.125,0.5625 0.59375,-11 2.6875,-0.75 -0.1875,-1.75 -5.96875,-0.375 0.375,14.0625 -5,-0.1875 -0.21875,-6.5625 3.09375,0.375 0,-9.625 -2.875,-0.40625 0,-2.5 2.3125,0.21875 -0.1875,-5.8125 -1.9375,-0.1875 -0.40625,-2.6875 -2.09375,0 -0.40625,4.0625 -2.3125,2.5 -0.375,1.71875 2.875,0.40625 0,2.125 -5.375,-0.40625 0,5.59375 -1.75,0 0.1875,-9.65625 3.09375,-2.28125 -4.4375,-1 -0.78125,-4.8125 z m -1.71875,18.90625 0.78125,10.59375 -2.3125,-0.1875 0.1875,-10.21875 1.34375,-0.1875 z m -3.875,2.125 0,7.5 -2.09375,-1.90625 1.53125,-5.40625 0.5625,-0.1875 z m 12.15625,0 2.3125,0.1875 0,8.46875 -8.09375,0 0,-3.625 1.15625,0.15625 -0.1875,0.96875 4.4375,-0.1875 0.375,-5.96875 z m -16.5625,1.90625 -0.21875,1.75 -1.15625,-1.15625 1.375,-0.59375 z"
       style="fill:#ffea0f;fill-opacity:1;stroke:none"
       inkscape:connector-curvature="0" />
    <path
       style="fill:none;stroke:#ffea0f;stroke-width:2.31599998;stroke-opacity:1"
       d="m 410.448,209.46572 11.766,-4.83 m -13.116,3.282 15.624,-8.286 35.298,-17.748 m -1.536,-4.818 -49.77,29.118 m 43.206,-35.496 -44.556,33.564 m 25.464,-35.868 -26.622,36.252 38.772,-37.8 m -21.606,6.75 -19.674,30.294 m 9.066,-30.486 -11.19,28.74 m 5.4,-29.124 -6.558,29.124 m 0.198,-28.938 -2.508,28.176 m -3.666,-28.176 0.966,28.176 m -9.072,-27.978 6.756,27.39 m -19.68,-27.588 17.556,27.972 -11.382,-27.774 m -14.466,-0.198 23.34,29.706 m -30.672,-29.892 28.746,32.016 m -36.846,-32.016 35.298,32.79 m -47.256,-32.79 46.872,31.83 m -58.836,-32.016 58.062,33.36 m -95.676,-40.122 94.716,41.286 m -102.048,-36.846 99.54,40.128 M 276,177.25172 l 103.776,35.112 m -106.284,-29.91 96.258,27.402 m -97.806,-19.878 10.224,2.508 m 40.128,8.886 20.442,6.162 m -72.912,6.372 12.534,0.39 m 27.204,0 11.766,0.774"
       id="path234"
       inkscape:connector-curvature="0" />
    <path
       style="fill:#ffea0f;fill-opacity:1;stroke:#ffea0f;stroke-opacity:1"
       d="m 280.434,217.94972 c 0,0 -1.926,-1.536 -2.892,-1.344 -0.966,0.198 -3.474,0.972 -3.474,0.972 0,0 1.542,0.762 2.892,0.96 1.35,0.186 3.474,-0.588 3.474,-0.588"
       id="path236"
       inkscape:connector-curvature="0" />
    <path
       style="fill:#ffea0f;fill-opacity:1;stroke:#ffea0f;stroke-opacity:1"
       d="m 280.554,221.98172 c 0,0 -1.926,-1.548 -2.892,-1.35 -0.966,0.192 -3.474,0.966 -3.474,0.966 0,0 1.542,0.774 2.892,0.96 1.35,0.186 3.474,-0.576 3.474,-0.576"
       id="path238"
       inkscape:connector-curvature="0" />
    <path
       style="fill:#ffea0f;fill-opacity:1;stroke:#ffea0f;stroke-opacity:1"
       d="m 286.224,222.00572 c 0,0 -1.932,-1.548 -2.898,-1.35 -0.966,0.192 -3.468,0.966 -3.468,0.966 0,0 1.542,0.768 2.892,0.96 1.35,0.198 3.474,-0.576 3.474,-0.576"
       id="path240"
       inkscape:connector-curvature="0" />
    <path
       style="fill:#ffea0f;fill-opacity:1;stroke:#ffea0f;stroke-opacity:1"
       d="m 281.976,225.47372 c 0,0 -1.926,-1.548 -2.892,-1.344 -0.966,0.198 -3.474,0.96 -3.474,0.96 0,0 1.542,0.774 2.898,0.972 1.35,0.186 3.468,-0.588 3.468,-0.588"
       id="path242"
       inkscape:connector-curvature="0" />
    <path
       style="fill:#ffea0f;fill-opacity:1;stroke:#ffea0f;stroke-opacity:1"
       d="m 286.248,220.08572 c 0,0 -1.932,-1.548 -2.898,-1.362 -0.96,0.198 -3.468,0.96 -3.468,0.96 0,0 1.542,0.774 2.892,0.972 1.35,0.192 3.474,-0.57 3.474,-0.57"
       id="path244"
       inkscape:connector-curvature="0" />
    <path
       style="fill:#ffea0f;fill-opacity:1;stroke:#ffea0f;stroke-opacity:1"
       d="m 292.974,219.49772 c 0,0 -1.932,-1.548 -2.898,-1.35 -0.96,0.192 -3.468,0.966 -3.468,0.966 0,0 1.542,0.774 2.892,0.972 1.35,0.186 3.474,-0.588 3.474,-0.588"
       id="path246"
       inkscape:connector-curvature="0" />
    <path
       style="fill:#ffea0f;fill-opacity:1;stroke:#ffea0f;stroke-opacity:1"
       d="m 292.974,222.77972 c 0,0 -1.932,-1.548 -2.898,-1.362 -0.96,0.204 -3.468,0.972 -3.468,0.972 0,0 1.542,0.774 2.892,0.966 1.35,0.198 3.474,-0.576 3.474,-0.576"
       id="path248"
       inkscape:connector-curvature="0" />
    <path
       style="fill:#ffea0f;fill-opacity:1;stroke:#ffea0f;stroke-opacity:1"
       d="m 299.916,219.38372 c 0,0 -1.926,-1.548 -2.892,-1.35 -0.966,0.186 -3.474,0.96 -3.474,0.96 0,0 1.542,0.762 2.892,0.96 1.356,0.198 3.474,-0.57 3.474,-0.57"
       id="path250"
       inkscape:connector-curvature="0" />
    <path
       style="fill:#ffea0f;fill-opacity:1;stroke:#ffea0f;stroke-opacity:1"
       d="m 292.248,225.13172 c 0,0 -1.926,-1.53 -2.892,-1.344 -0.966,0.198 -3.474,0.96 -3.474,0.96 0,0 1.542,0.774 2.898,0.972 1.344,0.186 3.468,-0.588 3.468,-0.588"
       id="path252"
       inkscape:connector-curvature="0" />
    <path
       style="fill:#ffea0f;fill-opacity:1;stroke:#ffea0f;stroke-opacity:1"
       d="m 299.988,225.90572 c 0,0 -1.926,-1.53 -2.892,-1.344 -0.966,0.198 -3.474,0.972 -3.474,0.972 0,0 1.542,0.762 2.892,0.96 1.35,0.186 3.474,-0.588 3.474,-0.588"
       id="path254"
       inkscape:connector-curvature="0" />
    <path
       style="fill:#ffea0f;fill-opacity:1;stroke:#ffea0f;stroke-opacity:1"
       d="m 297.408,229.34372 c 0,0 -1.926,-1.548 -2.892,-1.35 -0.966,0.186 -3.474,0.948 -3.474,0.948 0,0 1.542,0.774 2.892,0.972 1.356,0.192 3.474,-0.57 3.474,-0.57"
       id="path256"
       inkscape:connector-curvature="0" />
    <path
       style="fill:#ffea0f;fill-opacity:1;stroke:#ffea0f;stroke-opacity:1"
       d="m 303.03,221.44172 c 0,0 -1.932,-1.536 -2.898,-1.332 -0.96,0.186 -3.468,0.96 -3.468,0.96 0,0 1.542,0.774 2.892,0.96 1.35,0.186 3.474,-0.588 3.474,-0.588"
       id="path258"
       inkscape:connector-curvature="0" />
    <path
       style="fill:#ffea0f;fill-opacity:1;stroke:#ffea0f;stroke-opacity:1"
       d="m 307.44,222.77972 c 0,0 -1.926,-1.548 -2.892,-1.362 -0.966,0.204 -3.474,0.972 -3.474,0.972 0,0 1.542,0.774 2.892,0.966 1.35,0.198 3.474,-0.576 3.474,-0.576"
       id="path260"
       inkscape:connector-curvature="0" />
    <path
       style="fill:#ffea0f;fill-opacity:1;stroke:#ffea0f;stroke-opacity:1"
       d="m 310.716,220.65572 c 0,0 -1.926,-1.542 -2.892,-1.344 -0.96,0.186 -3.468,0.96 -3.468,0.96 0,0 1.542,0.774 2.892,0.96 1.35,0.186 3.468,-0.576 3.468,-0.576"
       id="path262"
       inkscape:connector-curvature="0" />
    <path
       style="fill:#ffea0f;fill-opacity:1;stroke:#ffea0f;stroke-opacity:1"
       d="m 319.206,218.72372 c 0,0 -1.926,-1.548 -2.892,-1.344 -0.966,0.198 -3.474,0.96 -3.474,0.96 0,0 1.542,0.774 2.892,0.972 1.35,0.186 3.474,-0.588 3.474,-0.588"
       id="path264"
       inkscape:connector-curvature="0" />
    <path
       style="fill:#ffea0f;fill-opacity:1;stroke:#ffea0f;stroke-opacity:1"
       d="m 318.24,222.00572 c 0,0 -1.926,-1.548 -2.892,-1.35 -0.966,0.192 -3.474,0.966 -3.474,0.966 0,0 1.548,0.768 2.898,0.96 1.35,0.198 3.468,-0.576 3.468,-0.576"
       id="path266"
       inkscape:connector-curvature="0" />
    <path
       style="fill:#ffea0f;fill-opacity:1;stroke:#ffea0f;stroke-opacity:1"
       d="m 325.188,222.19172 c 0,0 -1.932,-1.536 -2.892,-1.344 -0.966,0.198 -3.474,0.972 -3.474,0.972 0,0 1.542,0.762 2.892,0.96 1.35,0.186 3.474,-0.588 3.474,-0.588"
       id="path268"
       inkscape:connector-curvature="0" />
    <path
       style="fill:#ffea0f;fill-opacity:1;stroke:#ffea0f;stroke-opacity:1"
       d="m 313.614,226.83572 c 0,0 -1.932,-1.548 -2.898,-1.35 -0.96,0.186 -3.468,0.948 -3.468,0.948 0,0 1.542,0.774 2.892,0.972 1.35,0.192 3.474,-0.57 3.474,-0.57"
       id="path270"
       inkscape:connector-curvature="0" />
    <path
       style="fill:#ffea0f;fill-opacity:1;stroke:#ffea0f;stroke-opacity:1"
       d="m 319.59,228.75572 c 0,0 -1.926,-1.548 -2.892,-1.35 -0.966,0.192 -3.474,0.966 -3.474,0.966 0,0 1.548,0.768 2.898,0.972 1.35,0.186 3.468,-0.588 3.468,-0.588"
       id="path272"
       inkscape:connector-curvature="0" />
    <path
       style="fill:#ffea0f;fill-opacity:1;stroke:#ffea0f;stroke-opacity:1"
       d="m 329.142,228.11372 c 0,0 -1.932,-1.548 -2.892,-1.35 -0.966,0.186 -3.474,0.948 -3.474,0.948 0,0 1.542,0.774 2.892,0.972 1.35,0.192 3.474,-0.57 3.474,-0.57"
       id="path274"
       inkscape:connector-curvature="0" />
    <path
       style="fill:#ffea0f;fill-opacity:1;stroke:#ffea0f;stroke-width:2.31599998;stroke-opacity:1"
       d="m 285.066,260.58572 11.184,0.582 -2.7,1.926 4.05,-2.508 11.766,-0.39"
       id="path276"
       inkscape:connector-curvature="0" />
    <path
       style="fill:#ffea0f;fill-opacity:1;stroke:#ffea0f;stroke-opacity:1"
       d="m 305.682,265.21172 c 0,0 -1.932,-1.548 -2.898,-1.344 -0.96,0.198 -3.468,0.96 -3.468,0.96 0,0 1.542,0.774 2.892,0.972 1.35,0.186 3.474,-0.588 3.474,-0.588"
       id="path278"
       inkscape:connector-curvature="0" />
    <path
       style="fill:#ffea0f;fill-opacity:1;stroke:#ffea0f;stroke-opacity:1"
       d="m 306.864,267.91772 c 0,0 -1.932,-1.542 -2.898,-1.344 -0.96,0.186 -3.468,0.96 -3.468,0.96 0,0 1.542,0.774 2.892,0.96 1.35,0.186 3.474,-0.576 3.474,-0.576"
       id="path280"
       inkscape:connector-curvature="0" />
    <path
       style="fill:#ffea0f;fill-opacity:1;stroke:#ffea0f;stroke-opacity:1"
       d="m 299.916,271.00172 c 0,0 -1.926,-1.548 -2.892,-1.35 -0.966,0.192 -3.474,0.966 -3.474,0.966 0,0 1.542,0.768 2.892,0.972 1.356,0.186 3.474,-0.588 3.474,-0.588"
       id="path282"
       inkscape:connector-curvature="0" />
    <path
       style="fill:#ffea0f;fill-opacity:1;stroke:#ffea0f;stroke-opacity:1"
       d="m 308.79,279.29972 c 0,0 -1.926,-1.548 -2.892,-1.35 -0.966,0.186 -3.474,0.96 -3.474,0.96 0,0 1.542,0.774 2.892,0.966 1.35,0.198 3.474,-0.576 3.474,-0.576"
       id="path284"
       inkscape:connector-curvature="0" />
    <path
       style="fill:none;stroke:#ffea0f;stroke-width:2.31599998;stroke-linecap:round;stroke-opacity:1"
       d="m 320.604,286.00172 c 0,0 3.858,-0.774 6.174,-0.96 2.316,-0.198 3.09,0.186 5.4,1.344 2.316,1.152 0.576,1.536 0.768,3.858 0.192,2.31 -5.01,3.084 -9.45,3.468 -4.434,0.39 -2.892,-3.468 -2.7,-8.298 0.192,-4.812 -1.158,-4.038 -5.016,-4.038 -3.852,0 -9.834,3.276 -9.834,3.276 l 5.208,2.7 -0.582,3.468 9.456,-1.152"
       id="path286"
       inkscape:connector-curvature="0" />
    <path
       style="fill:none;stroke:#ffea0f;stroke-width:2.31599998;stroke-opacity:1"
       d="m 426.894,287.15972 c 0,0 -5.982,-4.824 -9.84,-5.4 -3.858,-0.588 -6.75,-0.588 -6.168,3.468 0.576,4.044 1.302,6.612 1.302,6.612 0,0 1.008,-0.246 3.906,-0.246 2.892,0 4.626,1.158 4.626,1.158 l 0.39,-4.428 5.784,-1.164 z m -98.382,-8.496 c 0,0 -1.926,8.1 7.14,7.722 9.066,-0.384 67.71,-0.198 67.71,-0.198 0,0 4.242,-0.57 4.05,-4.242 -0.192,-3.654 1.92,-6.36 -10.224,-6.936 -12.156,-0.588 -62.694,-0.588 -62.694,-0.588 0,0 -6.366,-0.57 -5.982,4.242 z"
       id="path288"
       inkscape:connector-curvature="0" />
    <path
       style="fill:none;stroke:#ffea0f;stroke-width:2.31599998;stroke-linecap:round;stroke-opacity:1"
       d="m 402.156,286.62572 c 0,0 0.126,4.5 3.084,5.784 6.174,2.712 8.874,-0.186 8.874,-0.186 m -3.666,-8.106 -3.276,0.768"
       id="path290"
       inkscape:connector-curvature="0" />
    <path
       id="path292"
       d="m 358.838,287.09244 2.5,4.21875 -4.4375,-1.90625 -1.15625,1.71875 2.875,2.90625 -4.8125,-0.78125 -1.90625,4.0625 9.4375,1.53125 -0.96875,6.75 -8.6875,-0.78125 -3.0625,-8.65625 -2.90625,0.375 1.9375,8.5 -11,-0.21875 3.09375,10.4375 2.125,0 -1.75,-7.34375 8.6875,0.59375 0.96875,3.65625 -5.21875,-1.15625 0.375,3.28125 9.28125,2.90625 1.53125,4.625 c 0,0 3.08225,1.33024 7.90625,1.90625 4.824,0.588 17.9375,-0.56249 17.9375,-0.5625 l -0.59375,-4.25 c 0,0 1.3565,-0.967 4.0625,-2.125 2.7,-1.158 5.59374,-8.46874 5.59375,-8.46875 l 2.90625,-1.15625 -3.28125,-1.34375 4.8125,-6.96875 8.3125,-0.1875 0,-1.9375 -8.875,-0.1875 -3.28125,2.125 2.125,-3.46875 7.3125,-0.78125 0.1875,-1.53125 -8.875,-0.21875 -10.21875,12.375 -2.5,-0.40625 0.375,-6.5625 3.09375,0.78125 -1.34375,-1.9375 2.5,-0.75 -1.34375,-1.15625 1.15625,-2.125 -5.78125,-1.15625 2.6875,-3.09375 -2.3125,-1.34375 -3.84375,3.28125 0.9375,-3.28125 -7.125,0 -0.375,2.90625 -1.15625,-3.09375 -3.28125,0 -0.1875,2.6875 -0.96875,-2.5 -3.46875,-0.1875 z m -0.78125,21.03125 0.375,1.9375 -3.46875,3.0625 -1.9375,-4.8125 5.03125,-0.1875 z"
       style="fill:#ffea0f;fill-opacity:1;stroke:none"
       inkscape:connector-curvature="0" />
    <path
       style="fill:none;stroke:#002a86;stroke-width:2.31599998;stroke-linecap:round;stroke-opacity:1"
       d="m 360.366,315.25172 -2.118,3.084 m 8.1,2.118 1.158,-2.118 m 4.434,2.892 0.582,-2.118 m -8.298,-13.704 8.682,0 m 5.208,3.48 -4.632,6.942 6.366,0"
       id="path296"
       inkscape:connector-curvature="0" />
    <path
       style="fill:#ffea0f;fill-opacity:1;stroke:#ffea0f;stroke-opacity:1"
       d="m 338.916,278.54972 -2.244,0 0,-1.302 6.582,0 0,1.302 -2.304,0 0,5.376 -2.034,0 0,-5.376"
       id="path298"
       inkscape:connector-curvature="0" />
    <path
       style="fill:#ffea0f;fill-opacity:1;stroke:none"
       d="m 344.034,283.92572 0,-6.678 2.046,0 0,2.646 2.49,0 0,-2.646 2.028,0 0,6.678 -2.028,0 0,-2.742 -2.502,0 0,2.742 -2.034,0"
       id="path300"
       inkscape:connector-curvature="0" />
    <path
       style="fill:#ffea0f;fill-opacity:1;stroke:none"
       d="m 351.984,283.92572 0,-6.678 5.598,0 0,1.302 -3.564,0 0,1.368 3.276,0 0,1.29 -3.276,0 0,1.422 3.564,0 0,1.284 -5.598,0"
       id="path302"
       inkscape:connector-curvature="0" />
    <path
       style="fill:#ffea0f;fill-opacity:1;stroke:none"
       d="m 369.216,277.24772 0,4.23 c -0.018,1.854 -1.656,2.58 -3.504,2.58 -1.854,0 -3.492,-0.714 -3.51,-2.58 l 0,-4.23 2.034,0 0,4.14 c 0.03,0.84 0.516,1.38 1.476,1.38 0.954,0 1.44,-0.54 1.47,-1.38 l 0,-4.14 2.028,0"
       id="path304"
       inkscape:connector-curvature="0" />
    <path
       style="fill:#ffea0f;fill-opacity:1;stroke:none"
       d="m 370.608,277.24772 2.85,0 2.46,4.968 0.024,-0.012 0,-4.956 1.824,0 0,6.678 -2.82,0 -2.484,-5.118 -0.018,0 0,5.118 -1.836,0 0,-6.678"
       id="path306"
       inkscape:connector-curvature="0" />
    <path
       style="fill:#ffea0f;fill-opacity:1;stroke:none"
       d="m 379.06238,283.91336 2.09362,0 0,-6.65325 -2.09362,0 0,6.65325 z"
       id="path308"
       inkscape:connector-curvature="0" />
    <path
       style="fill:#ffea0f;fill-opacity:1;stroke:none"
       d="m 382.26,280.58972 c 0,-2.202 1.368,-3.48 3.804,-3.48 2.43,0 3.804,1.278 3.804,3.48 0,2.202 -1.374,3.48 -3.804,3.48 -2.436,0 -3.804,-1.278 -3.804,-3.48 z m 3.804,-2.196 c -1.386,0 -1.668,1.176 -1.668,2.22 0,0.996 0.282,2.154 1.668,2.154 1.38,0 1.668,-1.158 1.668,-2.154 0,-1.044 -0.288,-2.22 -1.668,-2.22"
       id="path310"
       inkscape:connector-curvature="0" />
    <path
       style="fill:#ffea0f;fill-opacity:1;stroke:none"
       d="m 390.96,277.24772 2.85,0 2.46,4.968 0.024,-0.012 0,-4.956 1.83,0 0,6.678 -2.82,0 -2.49,-5.118 -0.018,0 0,5.118 -1.836,0 0,-6.678"
       id="path312"
       inkscape:connector-curvature="0" />
    <path
       style="fill:#ffea0f;fill-opacity:1;stroke:none"
       d="m 258.696,209.84372 1.956,3.078 3.06,0.39 -2.046,2.718 0.498,3.444 -3.144,-1.524 -3.414,1.152 0.774,-3.06 -2.124,-2.73 3.132,-0.39 1.308,-3.078"
       id="path314"
       inkscape:connector-curvature="0" />
    <path
       style="fill:#ffea0f;fill-opacity:1;stroke:none"
       d="m 258.636,196.35572 1.962,3.078 3.054,0.39 -2.046,2.718 0.504,3.444 -3.144,-1.524 -3.414,1.152 0.768,-3.06 -2.118,-2.73 3.132,-0.39 1.302,-3.078"
       id="path316"
       inkscape:connector-curvature="0" />
    <path
       style="fill:#ffea0f;fill-opacity:1;stroke:none"
       d="m 262.698,181.30772 1.572,3.306 2.982,0.75 -2.364,2.448 0.078,3.492 -2.934,-1.902 -3.528,0.708 1.14,-2.946 -1.77,-2.964 3.156,0.012 1.668,-2.916"
       id="path318"
       inkscape:connector-curvature="0" />
    <path
       style="fill:#ffea0f;fill-opacity:1;stroke:none"
       d="m 267.552,167.42972 1.566,3.306 2.988,0.75 -2.364,2.46 0.072,3.48 -2.934,-1.896 -3.528,0.714 1.146,-2.952 -1.776,-2.964 3.156,0.012 1.674,-2.91"
       id="path320"
       inkscape:connector-curvature="0" />
    <path
       style="fill:#ffea0f;fill-opacity:1;stroke:none"
       d="m 259.632,222.79172 2.004,3.072 3.06,0.324 -2.01,2.754 0.552,3.444 -3.168,-1.488 -3.396,1.2 0.732,-3.072 -2.166,-2.694 3.132,-0.426 1.26,-3.114"
       id="path322"
       inkscape:connector-curvature="0" />
    <path
       style="fill:#ffea0f;fill-opacity:1;stroke:none"
       d="m 261.288,236.68772 2.004,3.06 3.06,0.354 -2.01,2.742 0.546,3.444 -3.156,-1.488 -3.402,1.194 0.732,-3.072 -2.16,-2.694 3.126,-0.42 1.26,-3.12"
       id="path324"
       inkscape:connector-curvature="0" />
    <path
       style="fill:#ffea0f;fill-opacity:1;stroke:none"
       d="m 265.884,249.43772 2.148,2.964 3.072,0.204 -1.878,2.844 0.714,3.402 -3.228,-1.326 -3.342,1.35 0.582,-3.108 -2.286,-2.592 3.108,-0.558 1.11,-3.18"
       id="path326"
       inkscape:connector-curvature="0" />
    <path
       style="fill:#ffea0f;fill-opacity:1;stroke:none"
       d="m 270.384,261.07772 2.148,2.964 3.072,0.186 -1.878,2.862 0.714,3.396 -3.228,-1.326 -3.342,1.35 0.582,-3.108 -2.286,-2.586 3.102,-0.576 1.116,-3.162"
       id="path328"
       inkscape:connector-curvature="0" />
    <path
       style="fill:#ffea0f;fill-opacity:1;stroke:none"
       d="m 277.326,273.22772 2.148,2.964 3.072,0.198 -1.872,2.838 0.714,3.408 -3.234,-1.32 -3.336,1.344 0.582,-3.102 -2.286,-2.592 3.102,-0.576 1.11,-3.162"
       id="path330"
       inkscape:connector-curvature="0" />
    <path
       style="fill:#ffea0f;fill-opacity:1;stroke:none"
       d="m 284.85,284.80772 2.148,2.964 3.072,0.186 -1.872,2.85 0.714,3.408 -3.234,-1.326 -3.336,1.338 0.582,-3.096 -2.286,-2.586 3.102,-0.576 1.11,-3.162"
       id="path332"
       inkscape:connector-curvature="0" />
    <path
       style="fill:#ffea0f;fill-opacity:1;stroke:none"
       d="m 293.34,295.22372 2.148,2.964 3.072,0.192 -1.878,2.844 0.714,3.408 -3.234,-1.332 -3.336,1.356 0.582,-3.114 -2.286,-2.58 3.102,-0.576 1.116,-3.162"
       id="path334"
       inkscape:connector-curvature="0" />
    <path
       style="fill:#ffea0f;fill-opacity:1;stroke:none"
       d="m 303.948,305.05772 2.148,2.964 3.072,0.198 -1.872,2.838 0.708,3.408 -3.228,-1.326 -3.342,1.35 0.588,-3.102 -2.292,-2.592 3.108,-0.576 1.11,-3.162"
       id="path336"
       inkscape:connector-curvature="0" />
    <path
       style="fill:#ffea0f;fill-opacity:1;stroke:none"
       d="m 315.918,312.55772 1.89,3.126 3.048,0.456 -2.106,2.676 0.426,3.456 -3.108,-1.596 -3.444,1.068 0.84,-3.048 -2.058,-2.766 3.138,-0.312 1.374,-3.06"
       id="path338"
       inkscape:connector-curvature="0" />
    <path
       style="fill:#ffea0f;fill-opacity:1;stroke:none"
       d="m 326.616,320.35172 1.89,3.126 3.048,0.456 -2.106,2.676 0.426,3.456 -3.114,-1.596 -3.438,1.068 0.84,-3.048 -2.058,-2.766 3.138,-0.318 1.374,-3.054"
       id="path340"
       inkscape:connector-curvature="0" />
    <path
       style="fill:#ffea0f;fill-opacity:1;stroke:none"
       d="m 338.766,327.29972 1.896,3.126 3.042,0.45 -2.106,2.682 0.426,3.456 -3.108,-1.596 -3.438,1.056 0.84,-3.036 -2.064,-2.778 3.138,-0.3 1.368,-3.06"
       id="path342"
       inkscape:connector-curvature="0" />
    <path
       style="fill:#ffea0f;fill-opacity:1;stroke:none"
       d="m 353.232,331.54172 1.896,3.126 3.042,0.45 -2.106,2.682 0.426,3.456 -3.108,-1.596 -3.438,1.068 0.84,-3.048 -2.064,-2.778 3.144,-0.3 1.362,-3.06"
       id="path344"
       inkscape:connector-curvature="0" />
    <path
       style="fill:#ffea0f;fill-opacity:1;stroke:none"
       d="m 368.088,334.23572 1.89,3.144 3.048,0.444 -2.106,2.67 0.426,3.456 -3.108,-1.59 -3.444,1.062 0.846,-3.042 -2.064,-2.766 3.138,-0.306 1.368,-3.072"
       id="path346"
       inkscape:connector-curvature="0" />
    <path
       style="fill:#ffea0f;fill-opacity:1;stroke:none"
       d="m 292.356,409.85972 12.6,0 0,-44.406 -12.6,0 0,44.406 z"
       id="path348"
       inkscape:connector-curvature="0" />
    <path
       style="fill:#ffea0f;fill-opacity:1;stroke:none"
       d="m 330.75,387.67172 c -5.412,-0.762 -7.296,-4.206 -7.296,-9.996 0,-9.036 7.23,-11.574 14.55,-11.574 7.956,0 13.998,2.472 13.998,11.574 0,5.472 -1.398,9.366 -6.234,10.056 l 0,0.33 c 6.24,0.63 9.702,5.892 9.702,12.762 0,10.44 -10.278,11.226 -18.678,11.226 -7.698,0 -16.428,-3.21 -16.428,-12.39 0,-6.936 4.02,-10.968 10.386,-11.796 l 0,-0.192 z m 14.064,10.056 c 0,-4.194 -3.054,-6.048 -6.81,-6.048 -3.756,0 -6.81,1.854 -6.81,6.048 0,4.206 3.054,6.048 6.81,6.048 3.756,0 6.81,-1.842 6.81,-6.048 z m -12.732,-19.158 c 0,3.432 2.418,5.472 5.922,5.472 3.498,0 5.916,-2.04 5.916,-5.472 0,-3.438 -2.418,-5.472 -5.916,-5.472 -3.504,0 -5.922,2.034 -5.922,5.472"
       id="path350"
       inkscape:connector-curvature="0" />
    <path
       style="fill:#ffea0f;fill-opacity:1;stroke:none"
       d="m 372.06,398.12972 c 1.158,0.768 4.92,3.078 8.106,3.078 4.392,0 5.778,-1.266 5.778,-5.016 0,-4.062 -1.92,-6.948 -3.846,-6.786 -2.22,0.18 -7.788,1.02 -8.106,3.318 l -6.948,-2.694 4.368,-22.71 24.594,0.048 0,8.268 -15.456,-0.276 -1.542,6.948 c 0.384,-1.164 0.756,-0.39 5.4,-0.39 8.592,0 13.89,5.298 13.89,13.5 0,10.254 -6.15,15.822 -16.206,15.822 -9.294,0 -11.958,-3.084 -13.89,-3.852 l 3.858,-9.258"
       id="path352"
       inkscape:connector-curvature="0" />
    <path
       style="fill:#ffea0f;fill-opacity:1;stroke:none"
       d="m 417.972,401.59772 c 0.066,1.464 4.608,0.606 5.688,1.242 1.086,0.63 2.25,-0.672 3.57,-0.858 2.7,-0.384 6.306,-2.436 6.558,-8.094 -2.478,3.114 -6.054,2.832 -10.026,2.304 -5.79,-0.774 -11.19,-6.066 -11.19,-14.658 0,-10.632 5.94,-15.234 15.612,-15.48 12.93,-0.33 18.012,11.376 17.568,24.738 -0.192,6.114 -2.856,12.96 -5.4,15.444 -4.524,4.386 -9.264,5.394 -13.314,5.766 -7.8,0.726 -12.54,-1.524 -12.54,-1.524 l 3.474,-8.88 z m 10.02,-27.27 c -4.266,0 -6.876,2.598 -6.876,6.618 0,4.572 2.928,6.612 6.876,6.612 4.584,0 6.87,-3.564 6.87,-6.612 0,-4.266 -2.736,-6.618 -6.87,-6.618"
       id="path354"
       inkscape:connector-curvature="0" />
    <path
       style="fill:#ffea0f;fill-opacity:1;stroke:none"
       d="m 137.88,67.973715 -6.366,5.202 c 0,0 -3.762,-3.762 -7.236,-3.468 -3.462,0.294 -7.212,4.536 0.582,9.552 8.1,5.202 9.486,11.79 9.258,17.076004 -0.288,6.642001 -5.76,11.376001 -11.574,11.562001 -8.97,0.294 -17.94,-5.496 -17.94,-5.496 l 5.208,-8.388001 9.546,4.056 c 0,0 4.632,0 3.762,-4.926 -0.864,-4.908004 -9.672,-13.920004 -11.862,-17.940004 -3.468,-6.36 4.344,-16.194 10.128,-15.618 8.64,0.864 11.574,2.028 13.02,3.762 1.446,1.734 3.474,4.626 3.474,4.626"
       id="path356"
       inkscape:connector-curvature="0" />
    <path
       style="fill:#ffea0f;fill-opacity:1;stroke:none"
       d="m 143.958,62.183715 0,10.71 10.416,-0.864 0.288,33.846005 10.704,-1.152 -0.288,-33.564005 9.258,-1.746 -0.576,-9.534 -29.802,2.316"
       id="path358"
       inkscape:connector-curvature="0" />
    <path
       id="path360"
       d="m 204.713,56.404939 -13.875,1.15625 -9.84375,46.312501 10.71875,-0.3125 2.59375,-7.218751 11.84375,-1.15625 2.34375,4.906251 9.53125,-2.031251 -13.3125,-41.65625 z m -6.0625,13.3125 5.78125,16.78125 -9.5625,1.4375 3.78125,-18.21875 z"
       style="fill:#ffea0f;fill-opacity:1;stroke:none"
       inkscape:connector-curvature="0" />
    <path
       style="fill:#ffea0f;fill-opacity:1;stroke:none"
       d="m 219.474,53.207715 0,9.846 11.868,-1.44 0.576,35.292004 12.726,-2.022 -0.282,-34.728004 8.388,-2.598 0,-10.128 -33.276,5.778"
       id="path364"
       inkscape:connector-curvature="0" />
    <path
       style="fill:#ffea0f;fill-opacity:1;stroke:none"
       d="m 262.302,45.695715 1.158,44.556 27.774,-4.056 -0.576,-9.258 -16.206,1.734 0.288,-7.512 7.23,-1.452 -0.282,-8.388 -6.366,0.294 -0.582,-8.982 17.076,-3.174 -0.87,-9.27 -28.644,5.508"
       id="path366"
       inkscape:connector-curvature="0" />
    <path
       id="path368"
       d="m 338.11925,37.873689 c -9.55799,0.396001 -19.408,6.07775 -18.25,20.84375 1.67401,21.378 10.13475,27.1875 19.96875,27.1875 9.84,2e-6 17.66975,-13.295 17.09375,-24.875 -0.58201,-11.567997 -4.9225,-23.73225 -18.8125,-23.15625 z m 0.3125,8.6875 c 0.18371,-0.01186 0.37919,-0.0065 0.5625,0 8.1,0.294 8.09376,9.266753 8.09375,14.46875 0,5.214 -1.14999,14.169 -9.25,13.875 -8.106,-0.276 -7.81749,-8.965251 -8.6875,-15.03125 -0.83941,-5.870109 4.23934,-12.986889 9.28125,-13.3125 z"
       style="fill:#ffea0f;fill-opacity:1;stroke:none"
       inkscape:connector-curvature="0" />
    <path
       style="fill:#ffea0f;fill-opacity:1;stroke:none"
       d="m 387.3,39.041715 -23.436,-0.588 -0.288,45.726 11.28,0 0,-19.38 5.214,0 -0.294,-8.682 -5.208,-0.294 0,-8.964 13.026,0.276 -0.294,-8.094"
       id="path372"
       inkscape:connector-curvature="0" />
    <path
       id="path374"
       d="m 432.6505,41.998689 c -9.42665,0.186875 -19.16666,5.566094 -18.59375,20.125 0.84002,21.42 9.07825,27.5595 18.90625,27.9375 9.83401,0.384002 18.126,-12.6015 18,-24.1875 -0.12601,-11.592001 -3.973,-23.911 -17.875,-23.875 -0.14944,3.75e-4 -0.28787,-0.003 -0.4375,0 z m 0.34375,8.6875 c 0.20453,-0.0076 0.4218,0.01625 0.625,0.03125 8.082,0.612 7.73524,9.579248 7.53125,14.78125 -0.204,5.202 -1.72451,14.111997 -9.8125,13.5 -8.082,-0.6 -7.43249,-9.266998 -8.0625,-15.375 -0.59962,-5.875172 4.68737,-12.750288 9.71875,-12.9375 z"
       style="fill:#ffea0f;fill-opacity:1;stroke:none"
       inkscape:connector-curvature="0" />
    <path
       id="path378"
       d="m 460.338,45.311189 c -1.01469,0.008 -1.5625,0.09375 -1.5625,0.09375 l -1.15625,48.59375 9.25,1.75 0.59375,-11 15.90625,14.75 1.71875,-10.125 -8.09375,-8.375 c 10e-6,0 11.288,-6.09525 11,-13.03125 -0.294,-6.936003 -2.02825,-15.337 -12.15625,-19.375 -7.2795,-2.915249 -12.90692,-3.301717 -15.5,-3.28125 z m 10.0625,12.4375 c 1.51044,-0.03955 3.39281,0.155938 5.15625,0.96875 3.762,1.734 2.59551,8.670252 1.4375,12.15625 -1.158,3.468 -10.125,4.03125 -10.125,4.03125 l 0.59375,-16.78125 c 0,0 1.22567,-0.330179 2.9375,-0.375 z"
       style="fill:#ffea0f;fill-opacity:1;stroke:none"
       inkscape:connector-curvature="0" />
    <path
       style="fill:#ffea0f;fill-opacity:1;stroke:none"
       d="m 498.702,54.659715 -2.892,44.850004 24.018,5.214001 0.576,-9.840001 -12.732,-4.044004 0.288,-7.242 6.654,0 0.294,-9.54 -6.078,-1.164 0,-7.8 11.574,1.44 0.576,-8.682 -22.278,-3.18"
       id="path382"
       inkscape:connector-curvature="0" />
    <path
       style="fill:#ffea0f;fill-opacity:1;stroke:none"
       d="m 560.046,73.175715 -6.948,5.214 c 0,0 -4.05,-7.518 -11.28,-3.48 -7.236,4.056 -7.236,11.58 -6.078,16.782004 1.158,5.214 2.652,10.326001 7.524,11.004001 8.388,1.152 6.366,-4.056001 6.366,-4.056001 l -5.208,-0.57 -0.294,-9.552004 15.63,0.87 c 0,0 0.546,16.884005 -3.474,19.968005 -4.92,3.762 -16.35,6.792 -23.436,-0.294 -6.078,-6.084 -8.34,-14.556001 -7.23,-23.718005 0.696,-5.778 3.468,-15.342 8.964,-18.234 5.496,-2.898 12.15,-3.762 15.624,-2.31 3.474,1.44 9.84,8.388 9.84,8.388"
       id="path384"
       inkscape:connector-curvature="0" />
    <path
       id="path386"
       d="m 584.99425,69.123689 c -9.55799,0.39 -19.37675,6.08975 -18.21875,20.84375 1.67398,21.390011 10.12875,27.187501 19.96875,27.187501 9.83402,0 17.6385,-13.295 17.0625,-24.875001 -0.58198,-11.580003 -4.9225,-23.73825 -18.8125,-23.15625 z m 0.375,8.6875 c 0.16328,-0.0087 0.33706,-0.0058 0.5,0 8.1,0.294 8.09373,9.254747 8.09375,14.46875 0,5.202 -1.15002,14.169001 -9.25,13.875001 -8.1,-0.288 -7.81752,-8.953241 -8.6875,-15.031251 -0.84281,-5.893875 4.28192,-13.041569 9.34375,-13.3125 z"
       style="fill:#ffea0f;fill-opacity:1;stroke:none"
       inkscape:connector-curvature="0" />
    <path
       style="fill:#ffea0f;fill-opacity:1;stroke:none"
       d="m 610.974,70.871715 0.576,44.844005 9.84,-0.294 0.288,-19.086001 12.726,17.352001 10.992,0 -1.446,-45.714005 -10.128,0.87 1.158,23.718004 -16.782,-21.984004 -7.23,0.294"
       id="path390"
       inkscape:connector-curvature="0" />
    <path
       style="fill:#ffea0f;fill-opacity:1;stroke:none"
       d="m 476.796,210.98972 -1.962,3.096 -3.054,0.384 2.046,2.718 -0.498,3.444 3.144,-1.518 3.414,1.134 -0.774,-3.06 2.124,-2.718 -3.132,-0.384 -1.308,-3.084"
       id="path392"
       inkscape:connector-curvature="0" />
    <path
       style="fill:#ffea0f;fill-opacity:1;stroke:none"
       d="m 476.856,197.50172 -1.962,3.096 -3.054,0.384 2.046,2.718 -0.504,3.444 3.144,-1.518 3.414,1.134 -0.768,-3.06 2.118,-2.718 -3.132,-0.384 -1.302,-3.084"
       id="path394"
       inkscape:connector-curvature="0" />
    <path
       style="fill:#ffea0f;fill-opacity:1;stroke:none"
       d="m 472.788,182.45372 -1.566,3.318 -2.982,0.75 2.364,2.448 -0.078,3.492 2.934,-1.908 3.528,0.714 -1.14,-2.94 1.77,-2.964 -3.156,0.012 -1.674,-2.922"
       id="path396"
       inkscape:connector-curvature="0" />
    <path
       style="fill:#ffea0f;fill-opacity:1;stroke:none"
       d="m 467.94,168.59372 -1.566,3.3 -2.988,0.75 2.364,2.466 -0.072,3.468 2.928,-1.902 3.534,0.726 -1.146,-2.952 1.776,-2.964 -3.156,0.012 -1.674,-2.904"
       id="path398"
       inkscape:connector-curvature="0" />
    <path
       style="fill:#ffea0f;fill-opacity:1;stroke:none"
       d="m 475.86,223.94972 -2.004,3.06 -3.06,0.342 2.01,2.754 -0.552,3.444 3.168,-1.488 3.396,1.182 -0.732,-3.06 2.16,-2.706 -3.126,-0.408 -1.26,-3.12"
       id="path400"
       inkscape:connector-curvature="0" />
    <path
       style="fill:#ffea0f;fill-opacity:1;stroke:none"
       d="m 474.204,237.85172 -2.004,3.054 -3.06,0.342 2.01,2.754 -0.552,3.444 3.162,-1.488 3.402,1.194 -0.732,-3.066 2.16,-2.706 -3.126,-0.414 -1.26,-3.114"
       id="path402"
       inkscape:connector-curvature="0" />
    <path
       style="fill:#ffea0f;fill-opacity:1;stroke:none"
       d="m 469.608,250.60172 -2.148,2.964 -3.072,0.186 1.878,2.85 -0.714,3.408 3.228,-1.326 3.342,1.35 -0.582,-3.108 2.286,-2.586 -3.102,-0.576 -1.116,-3.162"
       id="path404"
       inkscape:connector-curvature="0" />
    <path
       style="fill:#ffea0f;fill-opacity:1;stroke:none"
       d="m 465.108,262.23572 -2.148,2.964 -3.072,0.186 1.878,2.85 -0.714,3.408 3.228,-1.332 3.342,1.356 -0.582,-3.102 2.286,-2.592 -3.102,-0.576 -1.116,-3.162"
       id="path406"
       inkscape:connector-curvature="0" />
    <path
       style="fill:#ffea0f;fill-opacity:1;stroke:none"
       d="m 458.166,274.38572 -2.148,2.97 -3.072,0.198 1.872,2.832 -0.714,3.414 3.234,-1.338 3.336,1.35 -0.582,-3.096 2.286,-2.586 -3.102,-0.576 -1.11,-3.168"
       id="path408"
       inkscape:connector-curvature="0" />
    <path
       style="fill:#ffea0f;fill-opacity:1;stroke:none"
       d="m 450.642,285.96572 -2.148,2.964 -3.072,0.192 1.872,2.844 -0.708,3.414 3.228,-1.338 3.336,1.344 -0.582,-3.102 2.286,-2.58 -3.102,-0.57 -1.11,-3.168"
       id="path410"
       inkscape:connector-curvature="0" />
    <path
       style="fill:#ffea0f;fill-opacity:1;stroke:none"
       d="m 442.152,296.38772 -2.148,2.964 -3.072,0.186 1.878,2.85 -0.714,3.396 3.234,-1.326 3.336,1.35 -0.582,-3.108 2.286,-2.574 -3.102,-0.588 -1.116,-3.15"
       id="path412"
       inkscape:connector-curvature="0" />
    <path
       style="fill:#ffea0f;fill-opacity:1;stroke:none"
       d="m 431.544,306.21572 -2.148,2.964 -3.072,0.204 1.878,2.832 -0.714,3.414 3.228,-1.338 3.342,1.356 -0.588,-3.102 2.286,-2.592 -3.102,-0.57 -1.11,-3.168"
       id="path414"
       inkscape:connector-curvature="0" />
    <path
       style="fill:#ffea0f;fill-opacity:1;stroke:none"
       d="m 419.574,313.71572 -1.89,3.132 -3.048,0.456 2.106,2.67 -0.426,3.456 3.108,-1.59 3.444,1.062 -0.846,-3.042 2.064,-2.766 -3.138,-0.318 -1.374,-3.06"
       id="path416"
       inkscape:connector-curvature="0" />
    <path
       style="fill:#ffea0f;fill-opacity:1;stroke:none"
       d="m 408.876,321.49772 -1.89,3.138 -3.048,0.45 2.106,2.682 -0.426,3.456 3.114,-1.59 3.438,1.062 -0.84,-3.048 2.058,-2.772 -3.138,-0.306 -1.374,-3.06"
       id="path418"
       inkscape:connector-curvature="0" />
    <path
       style="fill:#ffea0f;fill-opacity:1;stroke:none"
       d="m 396.726,328.44572 -1.89,3.144 -3.048,0.444 2.106,2.67 -0.426,3.468 3.108,-1.602 3.438,1.062 -0.84,-3.03 2.064,-2.778 -3.138,-0.306 -1.374,-3.06"
       id="path420"
       inkscape:connector-curvature="0" />
    <path
       style="fill:#ffea0f;fill-opacity:1;stroke:none"
       d="m 382.254,332.68772 -1.89,3.144 -3.042,0.444 2.106,2.682 -0.426,3.456 3.108,-1.602 3.438,1.068 -0.84,-3.048 2.064,-2.766 -3.144,-0.318 -1.374,-3.06"
       id="path422"
       inkscape:connector-curvature="0" />
  </g>
</svg>
