<?xml version="1.0" encoding="UTF-8" standalone="no"?>
<!-- Created with Sodipodi ("http://www.sodipodi.com/") -->

<svg
   xmlns:dc="http://purl.org/dc/elements/1.1/"
   xmlns:cc="http://creativecommons.org/ns#"
   xmlns:rdf="http://www.w3.org/1999/02/22-rdf-syntax-ns#"
   xmlns:svg="http://www.w3.org/2000/svg"
   xmlns="http://www.w3.org/2000/svg"
   xmlns:sodipodi="http://sodipodi.sourceforge.net/DTD/sodipodi-0.dtd"
   xmlns:inkscape="http://www.inkscape.org/namespaces/inkscape"
   height="140mm"
   id="svg548"
   sodipodi:docname="VVA1.svg"
   sodipodi:version="0.32"
   width="210mm"
   version="1.1"
   inkscape:version="0.47 r22583">
  <metadata
     id="metadata3">
    <rdf:RDF>
      <cc:Work
         rdf:about="">
        <dc:title>Clipart by Steve Hall - United States - South Carolina</dc:title>
        <dc:description />
        <dc:subject>
          <rdf:Bag>
            <rdf:li />
            <rdf:li>0xa10d420</rdf:li>
            <rdf:li>america</rdf:li>
            <rdf:li>flag</rdf:li>
            <rdf:li>unitedstates</rdf:li>
            <rdf:li>north_america</rdf:li>
            <rdf:li>sign</rdf:li>
          </rdf:Bag>
        </dc:subject>
        <dc:publisher>
          <cc:Agent
             rdf:about="http://www.openclipart.org">
            <dc:title>Steve Hall</dc:title>
          </cc:Agent>
        </dc:publisher>
        <dc:creator>
          <cc:Agent>
            <dc:title>Steve Hall</dc:title>
          </cc:Agent>
        </dc:creator>
        <dc:rights>
          <cc:Agent>
            <dc:title>Steve Hall</dc:title>
          </cc:Agent>
        </dc:rights>
        <dc:date />
        <dc:format>image/svg+xml</dc:format>
        <dc:type
           rdf:resource="http://purl.org/dc/dcmitype/StillImage" />
        <cc:license
           rdf:resource="http://web.resource.org/cc/PublicDomain" />
        <dc:language>en</dc:language>
      </cc:Work>
      <cc:License
         rdf:about="http://web.resource.org/cc/PublicDomain">
        <cc:permits
           rdf:resource="http://web.resource.org/cc/Reproduction" />
        <cc:permits
           rdf:resource="http://web.resource.org/cc/Distribution" />
        <cc:permits
           rdf:resource="http://web.resource.org/cc/DerivativeWorks" />
      </cc:License>
    </rdf:RDF>
  </metadata>
  <defs
     id="defs550">
    <inkscape:perspective
       sodipodi:type="inkscape:persp3d"
       inkscape:vp_x="0 : 248.03149 : 1"
       inkscape:vp_y="0 : 1000 : 0"
       inkscape:vp_z="744.09448 : 248.03149 : 1"
       inkscape:persp3d-origin="372.04724 : 165.35433 : 1"
       id="perspective56" />
  </defs>
  <sodipodi:namedview
     id="base"
     showgrid="false"
     inkscape:zoom="0.70710678"
     inkscape:cx="509.42853"
     inkscape:cy="253.49109"
     inkscape:window-width="1280"
     inkscape:window-height="1004"
     inkscape:window-x="-8"
     inkscape:window-y="-8"
     inkscape:window-maximized="1"
     inkscape:current-layer="svg548" />
  <rect
     height="496.093384"
     id="rect552"
     style="font-size:12;fill:#003366;fill-rule:evenodd;stroke-width:1pt;fill-opacity:1;"
     width="744.130066"
     x="0.048534"
     y="-0.020241" />
  <path
     d="M 41.9847 92.1261 C 20.9189 163.131 105.622 220.504 163.319 169.024 C 223.827 104.787 156.302 18.0268 86.1791 45.722 C 137.358 36.8248 167.864 96.6128 133.45 133.919 C 100.209 168.251 39.59 145.69 41.9847 92.1261 z "
     id="path557"
     sodipodi:nodetypes="ccccc"
     style="fill:#ffffff;fill-rule:evenodd;stroke:none;stroke-opacity:1;stroke-width:0.62500000000000000;stroke-linejoin:miter;stroke-linecap:butt;fill-opacity:1;stroke-dasharray:none"
     transform="matrix(0.997208,0.000000,0.000000,0.986294,-0.623988,1.256203)" />
  <path
     d="M 380.377 141.23 C 380.099 140.675 377.323 133.178 377.323 132.9 C 377.323 132.623 367.327 114.298 367.327 114.298 L 366.494 124.849 L 348.447 91.2533 C 348.447 91.2533 349.28 104.303 349.558 104.303 C 349.836 104.303 358.165 123.738 358.165 123.738 L 340.118 91.8086 L 338.174 94.0298 C 338.174 94.0298 338.452 99.5827 338.452 100.138 C 338.452 100.693 350.668 123.183 350.668 122.905 C 350.668 122.627 332.621 91.2533 332.344 91.2533 C 332.066 91.2533 329.012 93.4745 329.012 93.4745 C 329.012 93.4745 329.012 99.0275 329.012 99.3051 C 329.012 99.5827 342.339 122.35 342.339 122.35 L 322.348 90.698 L 318.461 88.7545 C 318.461 88.7545 317.906 93.4745 317.906 93.7522 C 317.906 94.0298 339.563 127.07 339.563 127.07 L 327.624 110.133 L 324.292 109.3 L 324.014 114.298 L 341.506 140.397 L 346.781 151.503 L 356.499 161.498 C 356.499 161.498 344.56 149.837 344.56 149.282 C 344.56 148.726 340.673 142.34 340.673 142.063 C 340.673 141.785 330.956 132.623 330.956 132.623 C 330.956 132.623 328.457 132.623 328.457 132.9 C 328.457 133.178 329.29 139.564 329.29 139.842 C 329.29 140.119 334.287 145.117 334.287 145.117 C 334.287 145.117 329.29 144.284 327.901 143.729 C 326.513 143.173 320.96 141.23 320.96 141.23 C 320.96 141.23 319.85 143.729 320.127 144.006 C 320.405 144.284 323.459 146.505 323.737 146.783 C 324.014 147.06 321.238 147.338 320.96 147.06 C 320.683 146.783 305.134 138.453 305.134 138.453 L 287.365 129.569 L 280.979 127.625 L 280.701 130.124 C 280.701 130.124 287.643 135.677 287.92 135.677 C 288.198 135.677 307.078 145.672 307.078 145.672 L 267.374 132.9 L 264.598 132.9 L 266.541 137.343 L 297.915 147.893 L 298.471 150.392 C 298.471 150.392 297.083 149.282 295.972 148.449 C 294.861 147.616 288.198 146.505 286.81 146.505 C 285.421 146.505 269.04 147.338 269.04 147.338 C 269.04 147.338 269.595 149.837 269.873 149.837 C 270.151 149.837 274.315 151.78 274.593 152.058 C 274.871 152.336 297.36 151.503 297.36 151.503 C 297.36 151.503 291.53 152.891 291.53 153.169 C 291.53 153.446 291.252 155.945 291.53 156.223 C 291.807 156.5 297.083 157.611 297.36 157.611 C 297.638 157.611 302.08 155.945 302.358 155.667 C 302.635 155.39 305.412 153.169 305.69 153.169 C 305.967 153.169 299.581 157.889 299.581 158.166 C 299.581 158.444 299.304 160.943 299.581 161.22 C 299.859 161.498 305.69 161.776 306.245 161.498 C 306.8 161.22 311.52 157.889 311.52 158.166 C 311.52 158.444 313.186 162.609 313.186 162.886 C 313.186 163.164 320.127 164.275 320.683 164.552 C 321.238 164.83 336.508 166.496 336.508 166.496 L 351.224 173.159 C 351.224 173.159 337.341 168.439 337.064 168.162 C 336.786 167.884 327.901 167.051 327.901 167.051 L 293.195 169.827 C 293.195 169.827 264.598 174.547 264.32 174.547 C 264.043 174.547 257.379 177.046 257.379 177.046 C 257.379 177.046 260.155 178.712 260.988 178.99 C 261.821 179.267 293.751 176.769 293.751 176.769 L 264.043 179.823 C 264.043 179.823 258.767 183.155 258.212 183.432 C 257.657 183.71 255.713 186.486 255.713 186.764 C 255.713 187.042 256.268 189.818 257.101 189.818 C 257.934 189.818 265.708 188.152 266.264 188.152 C 266.819 188.152 281.257 185.376 281.257 185.376 C 281.257 185.376 295.972 181.211 296.25 181.211 C 296.527 181.211 272.372 188.43 272.372 188.43 L 265.153 190.096 C 265.153 190.096 265.153 193.428 265.708 193.428 C 266.264 193.428 272.094 193.983 274.593 193.705 C 277.092 193.428 283.478 190.929 284.588 190.651 C 285.699 190.373 301.803 185.098 301.803 185.098 C 301.803 185.098 286.81 192.039 286.254 192.039 C 285.699 192.039 274.038 197.592 274.038 197.592 C 274.038 197.592 271.817 201.202 272.372 201.202 C 272.927 201.202 277.092 201.757 277.37 201.757 C 277.647 201.757 285.421 197.87 285.699 197.87 C 285.977 197.87 299.304 191.206 299.304 191.206 L 290.697 197.87 L 282.645 202.868 C 282.645 202.868 281.534 205.366 281.812 205.366 C 282.09 205.366 285.977 206.477 285.977 206.477 C 285.977 206.477 291.53 204.256 292.64 203.423 C 293.751 202.59 304.024 196.204 304.024 196.204 C 304.024 196.204 315.13 189.263 315.963 188.708 C 316.796 188.152 327.346 183.987 327.346 183.987 L 313.186 193.428 C 313.186 193.428 304.857 202.312 304.579 202.59 C 304.301 202.868 294.861 210.364 294.584 210.919 C 294.306 211.475 282.367 222.858 282.09 223.413 C 281.812 223.969 278.758 232.298 278.758 232.298 C 278.758 232.298 278.48 245.903 278.48 247.291 C 278.48 248.679 280.424 253.955 280.701 253.955 C 280.979 253.955 282.923 244.792 282.923 244.792 C 282.923 244.792 285.977 255.343 286.254 254.51 C 286.532 253.677 289.864 244.515 290.141 244.515 C 290.419 244.515 292.918 247.013 293.195 247.013 C 293.473 247.013 296.805 244.515 297.083 243.404 C 297.36 242.293 302.08 222.025 302.08 222.025 L 304.579 233.409 C 304.579 233.409 307.633 232.298 307.911 230.632 C 308.188 228.966 310.132 216.195 310.41 216.472 C 310.687 216.75 313.741 220.915 314.297 220.637 C 314.852 220.359 318.461 217.305 318.461 217.028 C 318.461 216.75 321.238 203.145 321.238 203.145 L 324.292 208.42 C 324.292 208.42 328.734 207.31 328.734 206.755 C 328.734 206.199 339.84 193.983 340.118 193.983 C 340.396 193.983 348.725 188.985 349.003 188.985 C 349.28 188.985 349.836 191.206 348.725 192.595 C 347.614 193.983 342.894 200.091 341.506 201.202 C 340.118 202.312 329.012 213.973 329.012 214.251 C 329.012 214.529 329.012 217.305 329.012 217.305 L 334.287 219.526 C 334.287 219.526 326.236 223.413 326.236 223.691 C 326.236 223.969 317.351 230.632 317.351 230.632 C 317.351 230.632 316.24 235.075 316.796 235.075 C 317.351 235.075 324.57 235.352 324.57 235.63 C 324.57 235.908 321.516 237.573 320.683 238.129 C 319.85 238.684 309.021 243.959 309.021 244.237 C 309.021 244.515 305.69 248.124 305.69 248.402 C 305.69 248.679 308.744 249.79 309.021 249.512 C 309.299 249.235 317.073 246.18 317.073 246.18 C 317.073 246.18 304.024 258.397 304.024 258.675 C 304.024 258.952 303.746 262.284 304.024 262.284 C 304.301 262.284 307.633 260.34 308.188 260.063 C 308.744 259.785 320.405 249.235 320.683 248.957 C 320.96 248.679 320.96 250.9 320.96 250.9 L 309.299 265.616 C 309.299 265.616 306.523 268.67 306.523 268.948 C 306.523 269.225 307.633 273.112 307.911 272.835 C 308.188 272.557 310.687 270.058 311.52 268.948 C 312.353 267.837 319.294 259.508 319.85 259.23 C 320.405 258.952 326.791 253.677 326.791 253.677 C 326.791 253.677 326.791 255.898 326.791 256.176 C 326.791 256.453 322.904 262.006 322.904 262.284 C 322.904 262.562 318.739 270.058 318.461 270.613 C 318.184 271.169 318.184 276.722 318.184 276.722 C 318.184 276.722 321.238 276.999 321.238 276.444 C 321.238 275.889 327.068 266.171 327.624 265.338 C 328.179 264.505 333.177 253.677 333.454 252.566 C 333.732 251.456 337.341 242.293 337.341 241.738 C 337.341 241.183 338.73 240.072 338.73 240.072 C 338.73 240.072 339.285 245.903 339.285 247.291 C 339.285 248.679 341.506 253.399 341.506 252.566 C 341.506 251.733 345.393 243.959 345.393 243.959 C 345.393 243.959 350.113 234.519 350.668 233.686 C 351.224 232.853 353.723 227.578 353.723 227.023 C 353.723 226.468 357.332 217.86 357.332 217.86 L 357.332 227.3 C 357.332 227.3 353.723 238.129 353.723 238.406 C 353.723 238.684 349.835 247.569 349.28 248.124 C 348.725 248.679 345.393 254.51 345.393 254.788 C 345.393 255.065 342.339 259.785 342.339 259.785 L 345.948 257.842 C 345.948 257.842 349.836 255.62 350.668 254.788 C 351.501 253.955 355.666 248.679 355.666 249.512 C 355.666 250.345 353.167 255.898 353.167 256.176 C 353.167 256.453 350.391 265.338 350.391 265.616 C 350.391 265.893 348.17 271.724 348.17 272.002 C 348.17 272.279 347.892 276.999 348.447 276.999 C 349.003 276.999 353.445 272.557 354 271.724 C 354.556 270.891 358.443 263.117 358.443 263.117 C 358.443 263.117 360.664 265.06 360.664 265.338 C 360.664 265.616 364.551 263.672 364.551 263.672 C 364.551 263.672 363.44 255.898 363.44 255.62 C 363.44 255.343 365.106 249.79 365.384 248.402 C 365.661 247.013 367.05 240.35 367.327 239.517 C 367.605 238.684 368.716 226.468 368.716 226.745 C 368.716 227.023 368.716 238.129 368.716 238.129 C 368.716 238.129 375.101 236.185 374.824 236.185 C 374.546 236.185 368.521 240.072 368.521 240.072 L 368.29 248.124 L 376.048 243.412 L 368.274 250.631 L 368.194 256.257 L 373.713 254.549 L 368.204 257.881 C 367.926 258.158 367.878 263.95 367.878 264.228 C 367.878 264.505 362.885 393.056 362.885 393.056 C 362.885 393.056 358.72 407.771 358.165 408.049 C 357.61 408.326 335.676 408.049 335.398 408.326 C 335.12 408.604 327.901 412.491 327.901 412.769 C 327.901 413.046 324.57 415.823 324.57 415.823 C 324.57 415.823 326.791 419.155 327.068 419.432 C 327.346 419.71 336.508 420.821 336.786 420.543 C 337.064 420.265 335.12 423.319 335.12 423.319 C 335.12 423.319 328.734 426.929 328.734 427.206 C 328.734 427.484 328.179 431.094 328.734 431.649 C 329.29 432.204 331.511 434.148 332.066 433.87 C 332.621 433.592 337.064 431.094 337.064 431.094 L 339.007 433.037 C 339.007 433.037 338.452 436.646 338.73 436.924 C 339.007 437.202 341.784 438.868 342.894 438.035 C 344.005 437.202 347.337 434.425 348.725 433.592 C 350.113 432.759 353.445 429.15 353.723 429.15 C 354 429.15 355.111 431.371 355.388 431.649 C 355.666 431.926 358.998 433.592 359.553 433.592 C 360.108 433.592 363.995 433.315 365.661 433.315 C 367.327 433.315 371.214 432.482 372.047 432.204 C 372.88 431.926 375.657 428.872 375.934 428.595 C 376.212 428.317 380.377 429.428 380.654 429.705 C 380.932 429.983 382.876 433.315 384.264 433.87 C 385.652 434.425 388.984 434.981 388.984 434.981 C 388.984 434.981 390.094 433.87 390.094 432.204 C 390.094 430.538 389.539 427.206 389.817 427.206 C 390.094 427.206 393.148 427.762 393.704 428.039 C 394.259 428.317 398.146 429.983 398.701 430.538 C 399.257 431.094 402.311 432.482 402.589 431.649 C 402.866 430.816 402.589 426.651 402.866 426.651 C 403.144 426.651 405.643 428.039 406.198 428.595 C 406.753 429.15 409.807 430.816 410.085 431.094 C 410.363 431.371 415.638 433.592 415.638 433.037 C 415.638 432.482 415.638 428.595 415.638 428.317 C 415.638 428.039 417.581 428.039 417.859 428.317 C 418.137 428.595 420.913 430.261 421.469 430.261 C 422.024 430.261 421.746 426.651 421.746 426.374 C 421.746 426.096 421.191 421.654 421.191 421.931 C 421.191 422.209 426.188 423.875 427.299 424.152 C 428.41 424.43 433.685 425.818 433.685 425.263 C 433.685 424.708 431.464 421.931 430.631 421.098 C 429.798 420.265 423.69 415.823 422.301 414.99 C 420.913 414.157 414.527 412.491 414.527 412.491 C 414.527 412.491 400.09 411.658 398.424 411.658 C 396.758 411.658 393.704 407.216 393.426 406.383 C 393.148 405.55 391.76 397.776 391.483 397.776 C 391.205 397.776 389.817 384.449 389.817 384.449 L 388.984 300.877 L 386.485 238.406 L 383.153 230.077 C 383.153 230.077 393.426 252.844 393.426 253.122 C 393.426 253.399 395.37 261.173 395.37 261.451 C 395.37 261.729 395.925 267.282 395.925 267.282 L 399.812 266.726 L 401.2 261.451 L 387.873 226.468 L 385.097 220.637 C 385.097 220.637 401.2 261.451 402.033 261.451 C 402.866 261.451 406.198 257.009 406.198 257.009 L 395.092 227.023 L 386.763 220.915 C 386.763 220.915 396.203 226.468 396.203 225.635 C 396.203 224.802 399.257 221.47 399.812 221.47 C 400.367 221.47 396.48 226.745 396.48 226.745 C 396.48 226.745 407.181 263.22 407.181 263.416 C 407.181 263.613 409.537 264.987 409.733 264.202 C 409.929 263.416 411.893 256.741 411.893 256.545 C 411.893 256.349 409.537 247.121 409.144 246.14 C 408.751 245.158 401.291 221.795 401.291 221.795 C 401.291 221.795 413.659 254.385 413.463 255.171 C 413.267 255.956 413.267 261.649 413.267 261.846 C 413.267 262.042 417.782 261.846 417.782 261.649 C 417.782 261.453 417.979 255.171 417.979 254.189 C 417.979 253.207 416.604 248.496 416.212 247.907 C 415.819 247.318 407.77 222.188 407.77 222.188 C 407.77 222.188 420.531 256.938 420.531 257.134 C 420.531 257.33 421.709 261.649 421.905 261.649 C 422.101 261.649 426.617 263.809 426.617 263.809 C 426.617 263.809 427.795 268.717 428.188 268.914 C 428.58 269.11 431.525 270.68 431.525 270.484 C 431.525 270.288 432.114 251.833 432.114 251.637 C 432.114 251.44 430.544 244.373 430.544 244.373 C 430.544 244.373 435.255 257.134 435.255 257.723 C 435.255 258.312 436.041 265.38 436.237 265.772 C 436.433 266.165 440.752 267.932 440.752 267.736 C 440.752 267.539 441.734 262.827 441.734 262.827 L 445.464 265.772 C 445.464 265.772 448.802 264.987 448.802 264.594 C 448.802 264.202 447.624 257.527 447.428 257.134 C 447.231 256.741 443.108 246.14 443.108 246.14 C 443.108 246.14 450.961 257.33 451.158 257.919 C 451.354 258.508 454.299 260.668 454.299 260.275 C 454.299 259.882 454.495 255.171 454.103 254.974 C 453.71 254.778 450.569 248.888 449.98 247.514 C 449.391 246.14 444.679 235.342 444.679 235.342 L 446.839 236.716 C 446.839 236.716 461.17 255.956 461.367 255.956 C 461.563 255.956 464.508 256.938 464.704 256.741 C 464.901 256.545 465.097 253.796 464.901 253.796 C 464.704 253.796 460.581 245.747 460.385 245.354 C 460.189 244.962 447.428 225.329 447.428 225.329 L 462.348 243.784 C 462.348 243.784 466.275 245.551 466.471 245.354 C 466.668 245.158 467.257 242.998 467.06 242.606 C 466.864 242.213 463.919 236.912 463.526 236.52 C 463.134 236.127 449.98 216.102 449.587 215.709 C 449.194 215.316 439.771 199.414 439.771 199.414 C 439.771 199.414 452.139 206.874 452.925 207.66 C 453.71 208.445 472.754 225.329 473.343 225.722 C 473.932 226.114 480.803 230.826 480.803 231.023 C 480.803 231.219 484.533 232.397 484.337 232.397 C 484.141 232.397 481.588 227.096 481.588 227.096 C 481.588 227.096 487.085 228.863 487.674 229.452 C 488.263 230.041 492.975 231.611 493.564 232.004 C 494.153 232.397 497.687 232.2 497.687 232.2 C 497.687 232.2 495.92 228.47 495.527 228.274 C 495.135 228.078 490.423 224.151 490.423 224.151 C 490.423 224.151 496.313 227.096 496.705 227.292 C 497.098 227.489 502.203 228.47 502.203 228.47 C 502.203 228.47 504.755 227.685 504.951 227.489 C 505.147 227.292 504.951 224.347 504.559 224.347 C 504.166 224.347 481.588 211.979 481.588 211.979 C 481.588 211.979 489.638 214.727 489.834 214.727 C 490.03 214.727 496.313 213.942 496.313 213.942 L 494.939 211.194 L 464.508 200.199 C 464.508 200.199 452.925 192.543 453.121 192.739 C 453.317 192.935 464.312 195.487 464.704 195.487 C 465.097 195.487 480.214 196.469 480.214 196.273 C 480.214 196.076 471.576 192.346 471.576 192.346 C 471.576 192.346 483.355 191.757 483.748 191.757 C 484.141 191.757 501.417 191.168 501.417 191.168 C 501.417 191.168 504.166 188.42 504.559 188.42 C 504.951 188.42 508.092 185.475 508.092 185.475 L 507.307 175.855 L 505.147 172.321 C 505.147 172.321 496.313 170.554 496.313 170.358 C 496.313 170.161 491.601 168.787 491.601 168.787 C 491.601 168.787 466.275 168.394 466.864 168.198 C 467.453 168.002 466.864 166.824 467.257 166.824 C 467.649 166.824 474.913 165.646 474.913 165.646 C 474.913 165.646 474.717 163.094 474.717 163.29 C 474.717 163.486 450.372 163.879 450.372 163.879 C 450.372 163.879 457.637 160.149 457.833 160.149 C 458.029 160.149 467.453 154.652 468.238 154.455 C 469.023 154.259 473.146 150.725 473.146 150.529 C 473.146 150.332 469.023 148.762 468.827 148.958 C 468.631 149.154 458.815 150.725 459.207 150.529 C 459.6 150.332 462.348 147.584 464.901 146.602 C 467.453 145.621 477.073 139.534 477.269 139.534 C 477.465 139.534 482.374 136.786 482.374 136.59 C 482.374 136.393 481.392 134.626 480.803 134.823 C 480.214 135.019 469.416 139.142 469.22 139.142 C 469.023 139.142 464.115 139.731 464.115 139.534 C 464.115 139.338 471.968 134.234 471.968 134.234 C 471.968 134.234 482.374 126.97 482.57 126.97 C 482.766 126.97 484.533 123.043 484.337 123.043 C 484.141 123.043 478.447 124.614 478.251 125.006 C 478.054 125.399 469.809 130.503 469.612 130.503 C 469.416 130.503 478.055 123.043 478.251 123.043 C 478.447 123.043 480.607 117.939 480.607 117.939 C 480.607 117.939 478.447 116.564 478.447 116.761 C 478.447 116.957 470.79 119.902 470.79 119.902 L 460.189 130.896 C 460.189 130.896 472.557 117.35 472.557 116.564 C 472.557 115.779 472.95 112.049 472.95 112.049 L 465.686 115.19 C 465.686 115.19 458.029 116.564 458.029 116.761 C 458.029 116.957 440.163 134.037 439.771 134.43 C 439.378 134.823 427.402 142.872 427.402 142.872 C 427.402 142.872 419.157 148.173 418.96 148.369 C 418.764 148.566 411.696 149.94 411.696 149.94 C 411.696 149.94 411.107 147.976 411.696 147.78 C 412.285 147.584 417.586 138.749 417.782 138.553 C 417.979 138.357 424.457 123.436 424.457 123.436 L 424.85 113.423 L 424.065 111.656 C 424.065 111.656 416.212 125.988 416.212 126.184 C 416.212 126.381 415.819 124.81 416.015 124.614 C 416.212 124.417 424.654 107.926 424.654 107.926 L 424.85 101.644 C 424.85 101.644 423.476 99.8766 423.083 100.466 C 422.69 101.055 410.126 122.65 410.126 122.65 C 410.126 122.65 407.966 125.203 407.966 125.006 C 407.966 124.81 422.298 98.8949 422.494 98.8949 C 422.69 98.8949 424.261 94.9684 424.457 94.1831 C 424.654 93.3978 424.85 85.5448 424.85 85.5448 L 422.69 83.5815 C 422.69 83.5815 417.782 89.4713 417.782 89.864 C 417.782 90.2566 407.181 112.638 407.181 112.638 C 407.181 112.638 408.162 110.086 408.948 108.122 C 409.733 106.159 417.193 86.7227 417.193 86.7227 C 417.193 86.7227 416.015 83.9742 416.015 84.3668 C 416.015 84.7595 410.911 91.2382 410.911 91.8272 C 410.911 92.4162 403.45 106.944 403.45 106.944 C 403.45 106.944 409.929 89.6676 410.126 89.6676 C 410.322 89.6676 411.304 83.1888 411.304 82.9925 C 411.304 82.7962 408.359 82.5999 408.162 83.3852 C 407.966 84.1705 404.236 87.9007 403.647 90.2566 C 403.058 92.6125 396.579 110.674 396.579 111.263 C 396.579 111.852 391.082 125.595 391.278 125.399 C 391.475 125.203 396.186 108.908 396.186 108.515 C 396.186 108.122 395.205 98.1096 395.205 98.1096 C 395.205 98.1096 393.634 97.128 393.634 97.5207 C 393.634 97.9133 391.475 102.232 391.475 102.232 C 391.475 102.232 386.566 112.442 386.566 113.03 C 386.566 113.619 383.425 125.792 383.425 125.792 L 381.462 137.571 L 380.284 141.694 L 380.284 141.498 "
     id="path554"
     sodipodi:nodetypes="cccccccccccccccccccccccccccccccccccccccccccccccccccccccccccccccccccccccccccccccccccccccccccccccccccccccccccccccccccccccccccccccccccccccccccccccccccccccccccccccccccccccccccccccccccccccccccccccccccccccccccccccccccccccccccccccccccccccccccccccccccccccccccccccccccccccccccccccccccccccccccccccccccccccccccccccccccccccccccccccccccccccccccccccccccccccccccccccccccccccccccccccccccccccccccccccccccccccccccccccccccc"
     style="fill:#ffffff;fill-rule:evenodd;stroke:#666666;stroke-opacity:1;stroke-width:1.25;stroke-linejoin:miter;stroke-linecap:butt;fill-opacity:1;stroke-dasharray:none;" />
  <path
     d="M 356.725 188.027 L 358.099 193.524 C 358.099 193.524 361.633 191.168 361.829 190.972 C 362.026 190.775 363.596 187.438 363.596 187.438 "
     id="path556"
     style="fill:none;fill-rule:evenodd;stroke:#666666;stroke-opacity:1;stroke-width:1.25;stroke-linejoin:miter;stroke-linecap:butt;fill-opacity:1;stroke-dasharray:none;" />
  <path
     d="M 360.652 192.15 C 360.652 192.15 361.437 197.843 361.437 198.04 C 361.437 198.236 363.4 194.309 363.4 194.309 L 364.382 191.364 C 364.382 191.364 366.149 193.524 366.345 193.524 C 366.541 193.524 368.701 193.524 368.897 193.72 C 369.094 193.917 370.861 198.825 370.861 198.825 L 373.216 193.917 C 373.216 193.917 375.18 190.187 375.18 190.383 C 375.18 190.579 374.591 199.218 374.591 199.414 C 374.591 199.61 374.983 204.322 374.983 204.911 C 374.983 205.5 374.394 215.709 374.394 215.905 C 374.394 216.102 378.517 214.531 378.517 214.531 L 381.069 209.427 C 381.069 209.427 382.247 200.984 382.247 201.377 C 382.247 201.77 383.229 208.249 383.425 208.249 C 383.622 208.249 386.174 206.285 385.978 205.304 C 385.781 204.322 384.8 201.966 384.8 201.966 "
     id="path558"
     style="fill:none;fill-rule:evenodd;stroke:#666666;stroke-opacity:1;stroke-width:1.25;stroke-linejoin:miter;stroke-linecap:butt;fill-opacity:1;stroke-dasharray:none;" />
  <path
     d="M 383.818 191.561 C 383.818 191.561 383.818 197.058 383.818 197.451 C 383.818 197.843 384.8 201.573 385.192 201.77 C 385.585 201.966 387.156 202.555 387.548 202.359 C 387.941 202.162 389.511 198.04 389.708 198.04 C 389.904 198.04 392.653 194.506 393.045 193.917 C 393.438 193.328 394.223 189.401 394.223 189.401 "
     id="path559"
     style="fill:none;fill-rule:evenodd;stroke:#666666;stroke-opacity:1;stroke-width:1.25;stroke-linejoin:miter;stroke-linecap:butt;fill-opacity:1;stroke-dasharray:none;" />
  <path
     d="M 398.15 183.315 L 399.917 189.401 C 399.917 189.401 403.451 192.346 403.451 192.542 C 403.451 192.739 404.432 198.432 404.432 198.629 C 404.432 198.825 400.506 203.733 400.506 203.733 L 398.15 207.66 L 403.254 210.015 C 403.254 210.015 402.469 212.568 401.88 212.764 C 401.291 212.96 396.972 216.494 396.972 216.494 C 396.972 216.494 401.684 216.494 401.88 216.887 C 402.076 217.28 402.665 220.421 402.862 221.402 C 403.058 222.384 405.807 223.169 405.807 223.169 L 409.733 220.813 "
     id="path560"
     style="fill:none;fill-rule:evenodd;stroke:#666666;stroke-opacity:1;stroke-width:1.25;stroke-linejoin:miter;stroke-linecap:butt;fill-opacity:1;stroke-dasharray:none;" />
  <path
     d="M 405.807 210.604 C 405.61 211.193 403.843 213.549 403.843 213.746 C 403.843 213.942 406.985 215.513 406.985 215.513 L 408.359 218.261 C 408.359 218.261 411.304 219.635 411.304 219.832 C 411.304 220.028 410.911 224.544 411.107 224.544 C 411.304 224.544 414.249 224.347 414.249 225.133 C 414.249 225.918 414.838 230.433 415.034 230.63 C 415.23 230.826 418.96 233.771 418.96 234.164 C 418.96 234.556 419.942 238.483 419.942 238.483 L 421.513 241.82 L 426.225 239.464 "
     id="path561"
     style="fill:none;fill-rule:evenodd;stroke:#666666;stroke-opacity:1;stroke-width:1.25;stroke-linejoin:miter;stroke-linecap:butt;fill-opacity:1;stroke-dasharray:none;" />
  <path
     d="M 430.347 243.587 C 430.151 243.391 427.599 240.25 427.599 240.25 C 427.599 240.25 426.028 233.967 426.028 233.575 C 426.028 233.182 422.298 224.151 421.905 223.366 C 421.513 222.58 413.463 207.66 413.463 207.267 C 413.463 206.874 411.5 203.34 411.5 203.34 "
     id="path562"
     style="fill:none;fill-rule:evenodd;stroke:#666666;stroke-opacity:1;stroke-width:1.25;stroke-linejoin:miter;stroke-linecap:butt;fill-opacity:1;stroke-dasharray:none;" />
  <path
     d="M 401.291 185.475 C 401.291 185.475 405.807 185.082 406.003 185.082 C 406.199 185.082 409.144 188.027 409.34 188.027 C 409.537 188.027 414.445 192.15 414.445 192.739 C 414.445 193.328 417.586 199.414 417.979 200.395 C 418.371 201.377 423.083 206.285 423.28 207.071 C 423.476 207.856 423.672 214.138 423.869 214.531 C 424.065 214.924 431.133 226.507 431.329 226.9 C 431.525 227.292 433.292 231.219 433.292 231.415 C 433.292 231.611 432.703 236.912 432.703 237.109 C 432.703 237.305 435.256 241.82 435.452 242.409 C 435.648 242.998 437.415 249.281 437.808 249.477 C 438.2 249.673 441.538 255.171 441.538 255.76 C 441.538 256.348 441.538 260.275 441.538 260.275 "
     id="path563"
     style="fill:none;fill-rule:evenodd;stroke:#666666;stroke-opacity:1;stroke-width:1.25;stroke-linejoin:miter;stroke-linecap:butt;fill-opacity:1;stroke-dasharray:none;" />
  <path
     d="M 428.188 235.931 C 428.188 236.127 431.525 236.323 431.525 236.323 L 435.452 231.611 L 438.2 231.022 L 440.556 226.507 L 446.25 225.133 "
     id="path564"
     style="fill:none;fill-rule:evenodd;stroke:#666666;stroke-opacity:1;stroke-width:1.25;stroke-linejoin:miter;stroke-linecap:butt;fill-opacity:1;stroke-dasharray:none;" />
  <path
     d="M 418.764 189.401 C 418.96 189.598 423.083 196.076 423.476 196.862 C 423.869 197.647 429.169 209.034 429.169 209.23 C 429.169 209.427 436.63 222.384 436.63 222.58 C 436.63 222.777 436.63 233.182 437.022 233.967 C 437.415 234.753 441.145 239.661 441.342 240.053 C 441.538 240.446 443.109 245.943 443.109 245.943 "
     id="path565"
     style="fill:none;fill-rule:evenodd;stroke:#666666;stroke-opacity:1;stroke-width:1.25;stroke-linejoin:miter;stroke-linecap:butt;fill-opacity:1;stroke-dasharray:none;" />
  <path
     d="M 444.09 232.593 C 444.287 231.022 444.483 222.777 444.483 222.58 C 444.483 222.384 440.556 215.513 440.556 214.138 C 440.556 212.764 437.611 204.322 437.219 203.929 C 436.826 203.537 432.311 194.113 431.918 193.72 C 431.525 193.328 429.366 188.812 428.777 188.223 C 428.188 187.634 425.439 180.567 425.439 180.567 "
     id="path566"
     style="fill:none;fill-rule:evenodd;stroke:#666666;stroke-opacity:1;stroke-width:1.25;stroke-linejoin:miter;stroke-linecap:butt;fill-opacity:1;stroke-dasharray:none;" />
  <path
     d="M 413.071 188.812 C 413.66 188.42 415.427 184.1 415.427 183.119 C 415.427 182.137 413.66 177.033 413.463 176.836 C 413.267 176.64 408.555 173.695 408.555 173.695 L 403.058 171.732 "
     id="path567"
     style="fill:none;fill-rule:evenodd;stroke:#666666;stroke-opacity:1;stroke-width:1.25;stroke-linejoin:miter;stroke-linecap:butt;fill-opacity:1;stroke-dasharray:none;" />
  <path
     d="M 406.003 170.75 L 410.322 172.517 C 410.322 172.517 413.66 172.321 413.856 172.321 C 414.052 172.321 417.782 169.376 417.39 169.376 C 416.997 169.376 411.304 166.038 411.304 166.038 C 411.304 166.038 405.61 163.879 405.414 163.879 C 405.218 163.879 399.72 164.271 399.72 164.271 C 399.72 164.271 406.396 156.615 406.985 155.829 C 407.574 155.044 411.696 149.547 411.696 149.547 "
     id="path568"
     style="fill:none;fill-rule:evenodd;stroke:#666666;stroke-opacity:1;stroke-width:1.25;stroke-linejoin:miter;stroke-linecap:butt;fill-opacity:1;stroke-dasharray:none;" />
  <path
     d="M 427.01 151.314 C 426.814 151.314 422.494 155.437 422.102 155.633 C 421.709 155.829 415.23 157.793 415.034 158.578 C 414.838 159.363 415.623 161.327 415.623 161.327 L 422.298 157.793 C 422.298 157.793 425.439 160.738 426.225 161.327 C 427.01 161.916 427.991 165.646 427.991 165.646 "
     id="path569"
     style="fill:none;fill-rule:evenodd;stroke:#666666;stroke-opacity:1;stroke-width:1.25;stroke-linejoin:miter;stroke-linecap:butt;fill-opacity:1;stroke-dasharray:none;" />
  <path
     d="M 444.679 158.185 C 443.894 158.185 440.164 159.56 439.967 159.756 C 439.771 159.952 435.059 163.29 435.059 163.486 C 435.059 163.682 432.311 165.449 432.311 165.646 "
     id="path570"
     style="fill:none;fill-rule:evenodd;stroke:#666666;stroke-opacity:1;stroke-width:1.25;stroke-linejoin:miter;stroke-linecap:butt;fill-opacity:1;stroke-dasharray:none;" />
  <path
     d="M 465.097 189.598 C 465.097 189.99 477.858 190.775 477.858 190.775 "
     id="path571"
     style="fill:none;fill-rule:evenodd;stroke:#666666;stroke-opacity:1;stroke-width:1.25;stroke-linejoin:miter;stroke-linecap:butt;fill-opacity:1;stroke-dasharray:none;" />
  <path
     d="M 467.06 185.278 C 468.238 185.278 478.447 185.278 478.644 185.278 C 478.84 185.278 482.57 183.511 482.767 183.904 C 482.963 184.297 484.73 185.867 485.711 186.26 C 486.693 186.653 493.761 186.26 494.153 186.26 C 494.546 186.26 499.847 186.653 501.221 186.456 C 502.595 186.26 506.326 185.278 506.326 185.278 "
     id="path572"
     style="fill:none;fill-rule:evenodd;stroke:#666666;stroke-opacity:1;stroke-width:1.25;stroke-linejoin:miter;stroke-linecap:butt;fill-opacity:1;stroke-dasharray:none;" />
  <path
     d="M 475.895 177.033 C 476.288 177.033 484.926 178.211 486.3 178.211 C 487.675 178.211 495.92 178.407 496.706 178.407 C 497.491 178.407 506.129 178.603 506.129 178.603 "
     id="path573"
     style="fill:none;fill-rule:evenodd;stroke:#666666;stroke-opacity:1;stroke-width:1.25;stroke-linejoin:miter;stroke-linecap:butt;fill-opacity:1;stroke-dasharray:none;" />
  <path
     d="M 464.508 173.499 C 464.705 173.695 469.22 173.891 470.987 173.891 C 472.754 173.891 476.091 172.124 477.662 172.321 C 479.233 172.517 485.122 171.928 487.086 172.125 C 489.049 172.321 502.399 172.91 502.399 173.106 "
     id="path574"
     style="fill:none;fill-rule:evenodd;stroke:#666666;stroke-opacity:1;stroke-width:1.25;stroke-linejoin:miter;stroke-linecap:butt;fill-opacity:1;stroke-dasharray:none;" />
  <path
     d="M 440.556 172.321 C 441.342 172.321 447.428 170.75 448.213 170.75 C 448.998 170.75 458.422 170.358 459.796 169.965 C 461.171 169.572 466.275 167.805 466.275 167.805 "
     id="path575"
     style="fill:none;fill-rule:evenodd;stroke:#666666;stroke-opacity:1;stroke-width:1.25;stroke-linejoin:miter;stroke-linecap:butt;fill-opacity:1;stroke-dasharray:none;" />
  <path
     d="M 439.771 167.413 C 440.556 166.824 445.268 164.664 446.25 164.468 C 447.231 164.271 451.354 163.29 451.354 163.486 "
     id="path576"
     style="fill:none;fill-rule:evenodd;stroke:#666666;stroke-opacity:1;stroke-width:1.25;stroke-linejoin:miter;stroke-linecap:butt;fill-opacity:1;stroke-dasharray:none;" />
  <path
     d="M 466.471 115.582 C 465.49 116.957 459.6 122.258 459.207 122.847 C 458.815 123.436 452.532 126.773 452.14 127.166 C 451.747 127.558 449.98 129.129 449.98 129.129 "
     id="path577"
     style="fill:none;fill-rule:evenodd;stroke:#666666;stroke-opacity:1;stroke-width:1.25;stroke-linejoin:miter;stroke-linecap:butt;fill-opacity:1;stroke-dasharray:none;" />
  <path
     d="M 368.701 268.717 C 369.094 268.521 374.591 264.005 373.805 265.183 C 373.02 266.361 368.112 274.41 368.112 274.41 "
     id="path578"
     style="fill:none;fill-rule:evenodd;stroke:#666666;stroke-opacity:1;stroke-width:1.25;stroke-linejoin:miter;stroke-linecap:butt;fill-opacity:1;stroke-dasharray:none;" />
  <path
     d="M 367.916 277.944 C 368.308 278.141 371.842 279.711 371.842 279.711 L 366.738 284.423 "
     id="path579"
     style="fill:none;fill-rule:evenodd;stroke:#666666;stroke-opacity:1;stroke-width:1.25;stroke-linejoin:miter;stroke-linecap:butt;fill-opacity:1;stroke-dasharray:none;" />
  <path
     d="M 367.523 291.687 C 368.112 291.687 373.805 290.509 373.413 291.295 C 373.02 292.08 367.13 298.362 367.13 298.362 "
     id="path580"
     style="fill:none;fill-rule:evenodd;stroke:#666666;stroke-opacity:1;stroke-width:1.25;stroke-linejoin:miter;stroke-linecap:butt;fill-opacity:1;stroke-dasharray:none;" />
  <path
     d="M 366.738 305.626 C 366.934 305.823 372.824 306.215 372.235 307.393 C 371.646 308.571 366.541 311.124 366.541 311.32 "
     id="path581"
     style="fill:none;fill-rule:evenodd;stroke:#666666;stroke-opacity:1;stroke-width:1.25;stroke-linejoin:miter;stroke-linecap:butt;fill-opacity:1;stroke-dasharray:none;" />
  <path
     d="M 366.149 314.265 C 366.345 315.443 371.646 319.566 371.45 319.566 "
     id="path582"
     style="fill:none;fill-rule:evenodd;stroke:#666666;stroke-opacity:1;stroke-width:1.25;stroke-linejoin:miter;stroke-linecap:butt;fill-opacity:1;stroke-dasharray:none;" />
  <path
     d="M 366.345 330.364 C 366.541 330.364 373.02 333.112 373.02 333.112 "
     id="path583"
     style="fill:none;fill-rule:evenodd;stroke:#666666;stroke-opacity:1;stroke-width:1.25;stroke-linejoin:miter;stroke-linecap:butt;fill-opacity:1;stroke-dasharray:none;" />
  <path
     d="M 365.952 342.143 C 366.149 343.125 370.075 345.088 370.075 345.088 "
     id="path584"
     style="fill:none;fill-rule:evenodd;stroke:#666666;stroke-opacity:1;stroke-width:1.25;stroke-linejoin:miter;stroke-linecap:butt;fill-opacity:1;stroke-dasharray:none;" />
  <path
     d="M 365.167 353.53 L 371.45 357.849 "
     id="path585"
     style="fill:none;fill-rule:evenodd;stroke:#666666;stroke-opacity:1;stroke-width:1.25;stroke-linejoin:miter;stroke-linecap:butt;fill-opacity:1;stroke-dasharray:none;" />
  <path
     d="M 364.971 365.113 C 365.363 365.899 370.468 371.003 370.468 371.003 "
     id="path586"
     style="fill:none;fill-rule:evenodd;stroke:#666666;stroke-opacity:1;stroke-width:1.25;stroke-linejoin:miter;stroke-linecap:butt;fill-opacity:1;stroke-dasharray:none;" />
  <path
     d="M 363.793 380.819 C 363.989 381.016 371.057 385.728 371.057 385.728 "
     id="path587"
     style="fill:none;fill-rule:evenodd;stroke:#666666;stroke-opacity:1;stroke-width:1.25;stroke-linejoin:miter;stroke-linecap:butt;fill-opacity:1;stroke-dasharray:none;" />
  <path
     d="M 362.222 394.955 C 362.615 395.348 368.897 398.292 368.897 398.292 "
     id="path588"
     style="fill:none;fill-rule:evenodd;stroke:#666666;stroke-opacity:1;stroke-width:1.25;stroke-linejoin:miter;stroke-linecap:butt;fill-opacity:1;stroke-dasharray:none;" />
  <path
     d="M 358.296 408.109 C 358.296 409.09 360.063 412.035 360.063 412.624 C 360.063 413.213 362.026 414.98 362.615 415.373 C 363.204 415.765 367.327 418.514 368.112 418.514 C 368.897 418.514 373.216 416.943 374.198 416.747 C 375.18 416.551 381.659 415.569 382.64 415.569 C 383.622 415.569 392.064 414.391 392.653 414.391 C 393.242 414.391 396.383 411.25 396.383 411.446 "
     id="path589"
     style="fill:none;fill-rule:evenodd;stroke:#666666;stroke-opacity:1;stroke-width:1.25;stroke-linejoin:miter;stroke-linecap:butt;fill-opacity:1;stroke-dasharray:none;" />
  <path
     d="M 390.886 393.384 C 390.297 393.777 385.389 396.133 385.389 396.329 C 385.389 396.526 381.855 398.292 381.855 398.292 "
     id="path590"
     style="fill:none;fill-rule:evenodd;stroke:#666666;stroke-opacity:1;stroke-width:1.25;stroke-linejoin:miter;stroke-linecap:butt;fill-opacity:1;stroke-dasharray:none;" />
  <path
     d="M 389.315 380.819 C 389.119 381.212 386.567 382.979 385.978 383.372 C 385.389 383.764 381.07 386.12 381.07 386.12 "
     id="path591"
     style="fill:none;fill-rule:evenodd;stroke:#666666;stroke-opacity:1;stroke-width:1.25;stroke-linejoin:miter;stroke-linecap:butt;fill-opacity:1;stroke-dasharray:none;" />
  <path
     d="M 389.512 366.684 C 388.923 367.077 385.389 370.414 385.192 370.61 C 384.996 370.807 380.677 371.985 380.481 372.181 "
     id="path592"
     style="fill:none;fill-rule:evenodd;stroke:#666666;stroke-opacity:1;stroke-width:1.25;stroke-linejoin:miter;stroke-linecap:butt;fill-opacity:1;stroke-dasharray:none;" />
  <path
     d="M 389.315 354.119 C 389.119 354.512 386.174 357.064 385.978 357.26 C 385.781 357.457 381.855 359.812 381.855 359.812 "
     id="path593"
     style="fill:none;fill-rule:evenodd;stroke:#666666;stroke-opacity:1;stroke-width:1.25;stroke-linejoin:miter;stroke-linecap:butt;fill-opacity:1;stroke-dasharray:none;" />
  <path
     d="M 389.119 340.572 C 388.53 341.554 384.996 345.088 384.603 345.284 C 384.211 345.481 377.536 348.033 377.536 348.033 "
     id="path594"
     style="fill:none;fill-rule:evenodd;stroke:#666666;stroke-opacity:1;stroke-width:1.25;stroke-linejoin:miter;stroke-linecap:butt;fill-opacity:1;stroke-dasharray:none;" />
  <path
     d="M 388.923 327.811 C 388.53 328.597 384.014 332.327 383.622 332.916 C 383.229 333.505 376.947 339.395 376.947 339.395 "
     id="path595"
     style="fill:none;fill-rule:evenodd;stroke:#666666;stroke-opacity:1;stroke-width:1.25;stroke-linejoin:miter;stroke-linecap:butt;fill-opacity:1;stroke-dasharray:none;" />
  <path
     d="M 388.334 317.799 C 387.548 318.78 381.266 323.688 381.266 323.688 L 387.941 320.547 "
     id="path596"
     style="fill:none;fill-rule:evenodd;stroke:#666666;stroke-opacity:1;stroke-width:1.25;stroke-linejoin:miter;stroke-linecap:butt;fill-opacity:1;stroke-dasharray:none;" />
  <path
     d="M 387.941 304.841 L 379.499 309.357 C 379.499 309.357 386.174 311.124 386.174 310.535 C 386.174 309.946 388.726 307.982 388.726 307.982 "
     id="path597"
     style="fill:none;fill-rule:evenodd;stroke:#666666;stroke-opacity:1;stroke-width:1.25;stroke-linejoin:miter;stroke-linecap:butt;fill-opacity:1;stroke-dasharray:none;" />
  <path
     d="M 388.137 291.491 C 387.156 292.08 384.014 296.203 383.818 296.203 C 383.622 296.203 379.106 298.951 379.106 298.951 C 379.106 298.951 385.585 298.559 385.978 298.559 "
     id="path598"
     style="fill:none;fill-rule:evenodd;stroke:#666666;stroke-opacity:1;stroke-width:1.25;stroke-linejoin:miter;stroke-linecap:butt;fill-opacity:1;stroke-dasharray:none;" />
  <path
     d="M 387.548 278.533 C 386.763 279.319 382.248 283.638 382.248 283.834 C 382.248 284.03 378.91 285.601 379.499 285.797 C 380.088 285.994 387.548 284.227 387.548 284.227 "
     id="path599"
     style="fill:none;fill-rule:evenodd;stroke:#666666;stroke-opacity:1;stroke-width:1.25;stroke-linejoin:miter;stroke-linecap:butt;fill-opacity:1;stroke-dasharray:none;" />
  <path
     d="M 386.37 268.128 C 386.37 268.324 382.836 271.858 382.836 271.858 C 382.836 271.858 378.517 274.803 379.303 274.803 C 380.088 274.803 386.37 272.055 386.567 272.055 "
     id="path600"
     style="fill:none;fill-rule:evenodd;stroke:#666666;stroke-opacity:1;stroke-width:1.25;stroke-linejoin:miter;stroke-linecap:butt;fill-opacity:1;stroke-dasharray:none;" />
  <path
     d="M 385.978 256.152 C 385.781 256.741 382.64 258.901 382.444 259.097 C 382.248 259.293 379.303 261.846 379.303 261.846 L 384.996 260.079 "
     id="path601"
     style="fill:none;fill-rule:evenodd;stroke:#666666;stroke-opacity:1;stroke-width:1.25;stroke-linejoin:miter;stroke-linecap:butt;fill-opacity:1;stroke-dasharray:none;" />
  <path
     d="M 385.585 244.373 C 385.781 244.962 382.051 249.084 382.051 249.084 C 382.051 249.084 380.677 251.44 381.07 251.244 C 381.462 251.048 386.174 247.514 386.174 247.514 "
     id="path602"
     style="fill:none;fill-rule:evenodd;stroke:#666666;stroke-opacity:1;stroke-width:1.25;stroke-linejoin:miter;stroke-linecap:butt;fill-opacity:1;stroke-dasharray:none;" />
</svg>
